M48
;Layer_Color=9474304
;FILE_FORMAT=2:4
INCH,LZ
;TYPE=PLATED
T1F00S00C0.0118
T2F00S00C0.0310
T3F00S00C0.0320
T4F00S00C0.0400
T5F00S00C0.0433
T6F00S00C0.0450
T8F00S00C0.0600
T9F00S00C0.1378
;TYPE=NON_PLATED
T10F00S00C0.0591
%
T01
X02695Y01225
X025406Y014574
X03395Y012252
X03335Y0232
X033382Y02425
X0332Y02845
X04205Y0285
X04065Y02325
X03975Y0236
X0373Y02255
Y0209
X02965Y0239
X0254
X0213Y0238
X02215Y02295
X01985Y0219
X0188Y02275
X0242Y01785
X0247Y0173
X02515Y0165
X02465Y02845
T02
X02103Y009465
X02109Y011375
X02357Y011345
X02354Y009425
X02798Y009465
X02804Y011375
X03052Y011345
X03049Y009425
X03493Y009465
X03499Y011375
X03747Y011345
X03744Y009425
X03805Y0247
Y0257
X04105
Y0247
X03175
Y0257
X02875
Y0247
X02285
Y0257
X01985
Y0247
T03
X0181Y01085
X0191
X04015Y02665
Y02765
X0312
Y02665
X02225Y026659
Y027659
T04
X043199Y02345
X044199Y02345
X01775Y02455
X01775Y02555
X0178Y0272
X0178Y0282
T05
X0422Y02215
X0432
X0442
X015897Y024825
X009834
X011882Y0364
X01385
T06
X031483Y03005
X033883Y03105
X03835
X04075Y03005
X04315Y03105
X029083
X024617
X022217Y03005
X019817Y03105
Y03585
X024617
X029083
X033883
X03835
X04315
T08
X040704Y014099
Y016099
X040704Y0181
X0407Y020103
T09
X01Y01
X043465
X01Y041496
X043465
T10
X0145Y0385
X0175
X021617
X024617
X028733
X031733
X03585
X03885
M30
