G04*
G04 #@! TF.GenerationSoftware,Altium Limited,Altium Designer,19.0.12 (326)*
G04*
G04 Layer_Physical_Order=2*
G04 Layer_Color=16711680*
%FSTAX24Y24*%
%MOIN*%
G70*
G01*
G75*
%ADD18C,0.0080*%
%ADD70C,0.0276*%
%ADD71C,0.0394*%
%ADD72C,0.0118*%
%ADD73C,0.0787*%
%ADD74C,0.0700*%
%ADD75C,0.1200*%
%ADD76R,0.1200X0.1200*%
%ADD77O,0.1000X0.0650*%
%ADD78R,0.1000X0.0650*%
%ADD79R,0.0900X0.0600*%
%ADD80O,0.0900X0.0600*%
%ADD81R,0.1000X0.1600*%
%ADD82R,0.1600X0.1000*%
%ADD83C,0.0600*%
%ADD84C,0.0669*%
%ADD85C,0.0750*%
%ADD86C,0.0630*%
%ADD87R,0.0630X0.0630*%
%ADD88R,0.0650X0.1000*%
%ADD89O,0.0650X0.1000*%
%ADD90O,0.1200X0.1100*%
%ADD91R,0.1200X0.1100*%
%ADD92C,0.1378*%
%ADD93C,0.0236*%
%ADD94C,0.1181*%
G36*
X014853Y011007D02*
X014851Y011082D01*
X014845Y011149D01*
X014835Y011208D01*
X014822Y011259D01*
X014804Y011303D01*
X014782Y011338D01*
X014757Y011366D01*
X014727Y011385D01*
X014694Y011397D01*
X014656Y011401D01*
X015444D01*
X015406Y011397D01*
X015373Y011385D01*
X015343Y011366D01*
X015318Y011338D01*
X015296Y011303D01*
X015278Y011259D01*
X015265Y011208D01*
X015255Y011149D01*
X015249Y011082D01*
X015247Y011007D01*
X014853D01*
D02*
G37*
G36*
X018884Y01004D02*
X018883Y010108D01*
X01887Y010291D01*
X018863Y010344D01*
X018842Y010438D01*
X01883Y01048D01*
X018815Y010517D01*
X018799Y01055D01*
X019371Y010494D01*
X019353Y010469D01*
X019337Y010439D01*
X019323Y010403D01*
X019311Y010362D01*
X019301Y010316D01*
X019292Y010265D01*
X019281Y010147D01*
X019278Y010081D01*
X019277Y010009D01*
X018884Y01004D01*
D02*
G37*
G36*
X021546Y009228D02*
X021505Y009228D01*
X021399Y00922D01*
X02137Y009215D01*
X021343Y009209D01*
X02132Y009202D01*
X0213Y009194D01*
X021283Y009185D01*
X021268Y009175D01*
X021324Y009697D01*
X021338Y009683D01*
X021354Y00967D01*
X021374Y009659D01*
X021396Y009649D01*
X021422Y009641D01*
X021451Y009634D01*
X021482Y009629D01*
X021517Y009625D01*
X021596Y009622D01*
X021546Y009228D01*
D02*
G37*
G36*
X022996Y009622D02*
X023037Y009623D01*
X02311Y009628D01*
X023142Y009632D01*
X023171Y009638D01*
X023197Y009645D01*
X02322Y009654D01*
X023241Y009664D01*
X023258Y009675D01*
X023272Y009688D01*
Y009162D01*
X023258Y009175D01*
X023241Y009186D01*
X02322Y009196D01*
X023197Y009205D01*
X023171Y009212D01*
X023142Y009218D01*
X02311Y009222D01*
X023037Y009227D01*
X022996Y009228D01*
Y009622D01*
D02*
G37*
G36*
X024096Y009248D02*
X024055Y009247D01*
X023982Y009242D01*
X02395Y009237D01*
X023921Y00923D01*
X023895Y009223D01*
X023872Y009213D01*
X023852Y009203D01*
X023835Y009191D01*
X023821Y009177D01*
X023793Y009701D01*
X023808Y00969D01*
X023825Y00968D01*
X023846Y009671D01*
X023869Y009663D01*
X023895Y009657D01*
X023925Y009651D01*
X023957Y009647D01*
X02403Y009642D01*
X024071Y009642D01*
X024096Y009248D01*
D02*
G37*
G36*
X025209Y016673D02*
X025209Y01666D01*
X025211Y016638D01*
X025213Y016627D01*
X025215Y016618D01*
X025218Y01661D01*
X025221Y016602D01*
X025224Y016595D01*
X025228Y016589D01*
X025233Y016584D01*
X025067D01*
X025072Y016589D01*
X025076Y016595D01*
X025079Y016602D01*
X025082Y01661D01*
X025085Y016618D01*
X025087Y016627D01*
X025089Y016638D01*
X02509Y016649D01*
X025091Y016673D01*
X025209D01*
D02*
G37*
G36*
X024759Y017473D02*
X024759Y01746D01*
X024761Y017438D01*
X024763Y017427D01*
X024765Y017418D01*
X024768Y01741D01*
X024771Y017402D01*
X024774Y017395D01*
X024778Y017389D01*
X024783Y017384D01*
X024617D01*
X024622Y017389D01*
X024626Y017395D01*
X024629Y017402D01*
X024632Y01741D01*
X024635Y017418D01*
X024637Y017427D01*
X024639Y017438D01*
X02464Y017449D01*
X024641Y017473D01*
X024759D01*
D02*
G37*
G36*
X04355Y023396D02*
X043556Y023306D01*
X043562Y023266D01*
X043569Y02323D01*
X043578Y023197D01*
X04359Y023167D01*
X043602Y023141D01*
X043617Y023118D01*
X043634Y023099D01*
X04355Y023016D01*
X043531Y023032D01*
X043508Y023047D01*
X043482Y02306D01*
X043453Y023071D01*
X04342Y02308D01*
X043383Y023088D01*
X043343Y023094D01*
X043253Y0231D01*
X043203Y0231D01*
X043549Y023447D01*
X04355Y023396D01*
D02*
G37*
G36*
X044492Y021832D02*
X044472Y02182D01*
X044454Y021801D01*
X044439Y021773D01*
X044426Y021738D01*
X044416Y021695D01*
X044407Y021643D01*
X044402Y021584D01*
X044397Y021443D01*
X044003D01*
X044002Y021517D01*
X043993Y021643D01*
X043984Y021695D01*
X043974Y021738D01*
X043961Y021773D01*
X043946Y021801D01*
X043928Y02182D01*
X043908Y021832D01*
X043886Y021836D01*
X044514D01*
X044492Y021832D01*
D02*
G37*
G36*
X040789Y020867D02*
X040793Y020814D01*
X0408Y020767D01*
X04081Y020727D01*
X040822Y020694D01*
X040837Y020666D01*
X040855Y020646D01*
X040876Y020632D01*
X040899Y020625D01*
X040925Y020624D01*
X040375Y020577D01*
X040401Y020582D01*
X040424Y020594D01*
X040445Y020612D01*
X040463Y020636D01*
X040478Y020666D01*
X04049Y020702D01*
X0405Y020745D01*
X040507Y020794D01*
X040511Y020849D01*
X040512Y02091D01*
X040788Y020926D01*
X040789Y020867D01*
D02*
G37*
G36*
X041298Y018157D02*
X041301Y018147D01*
X041307Y018138D01*
X041315Y01813D01*
X041326Y018124D01*
X04134Y018118D01*
X041356Y018114D01*
X041375Y018111D01*
X041397Y01811D01*
X041422Y018109D01*
X04141Y017991D01*
X041386Y01799D01*
X041364Y017989D01*
X041344Y017986D01*
X041327Y017982D01*
X041313Y017976D01*
X0413Y01797D01*
X041291Y017962D01*
X041284Y017953D01*
X041279Y017943D01*
X041277Y017932D01*
X041298Y018168D01*
X041298Y018157D01*
D02*
G37*
G36*
X041306Y014506D02*
X041318Y014473D01*
X041338Y014443D01*
X041365Y014418D01*
X041401Y014396D01*
X041444Y014378D01*
X041495Y014365D01*
X041555Y014355D01*
X041622Y014349D01*
X041697Y014347D01*
Y013953D01*
X041622Y013951D01*
X041555Y013945D01*
X041495Y013935D01*
X041444Y013922D01*
X041401Y013904D01*
X041365Y013882D01*
X041338Y013857D01*
X041318Y013827D01*
X041306Y013794D01*
X041302Y013756D01*
Y014544D01*
X041306Y014506D01*
D02*
G37*
G36*
X041106Y013547D02*
X041073Y013535D01*
X041043Y013515D01*
X041018Y013488D01*
X040996Y013452D01*
X040978Y013409D01*
X040965Y013358D01*
X040955Y013299D01*
X040949Y013232D01*
X040947Y013157D01*
X040553D01*
X040551Y013232D01*
X040545Y013299D01*
X040535Y013358D01*
X040522Y013409D01*
X040504Y013452D01*
X040482Y013488D01*
X040457Y013515D01*
X040427Y013535D01*
X040394Y013547D01*
X040356Y013551D01*
X041144D01*
X041106Y013547D01*
D02*
G37*
G36*
X027727Y009189D02*
X027712Y0092D01*
X027695Y00921D01*
X027674Y009219D01*
X027651Y009227D01*
X027625Y009233D01*
X027595Y009239D01*
X027563Y009243D01*
X02749Y009248D01*
X027449Y009248D01*
X027424Y009642D01*
X027465Y009643D01*
X027538Y009648D01*
X02757Y009653D01*
X027599Y00966D01*
X027625Y009667D01*
X027648Y009677D01*
X027668Y009687D01*
X027685Y009699D01*
X027699Y009713D01*
X027727Y009189D01*
D02*
G37*
G36*
X044671Y0293D02*
X041525D01*
X041317Y029694D01*
X041464Y03005D01*
X041451Y030083D01*
Y032304D01*
X041244Y032802D01*
X040048Y033998D01*
X03955Y034204D01*
X037592D01*
X036554Y035242D01*
Y0384D01*
X036539Y038438D01*
X036564Y0385D01*
X036355Y039005D01*
X03585Y039214D01*
X035345Y039005D01*
X035136Y0385D01*
X035161Y038438D01*
X035146Y0384D01*
Y03495D01*
X035352Y034452D01*
X036802Y033002D01*
X0373Y032796D01*
X039258D01*
X040042Y032012D01*
Y030066D01*
X040036Y03005D01*
X040183Y029694D01*
X039975Y0293D01*
X032258D01*
X03205Y029694D01*
X032198Y03005D01*
X032187Y030075D01*
Y03565D01*
X031981Y036148D01*
X029319Y03881D01*
X029238Y039005D01*
X028733Y039214D01*
X028228Y039005D01*
X028019Y0385D01*
X028045Y038438D01*
X028029Y0384D01*
X028235Y037902D01*
X029209Y036928D01*
X029036Y036545D01*
X028578Y036355D01*
X028369Y03585D01*
X028578Y035345D01*
X029083Y035136D01*
X029588Y035345D01*
X029778Y035803D01*
X030161Y035976D01*
X030779Y035358D01*
Y030075D01*
X030769Y03005D01*
X030917Y029694D01*
X030709Y0293D01*
X022991D01*
X022783Y029694D01*
X022931Y03005D01*
X022921Y030075D01*
Y035428D01*
X022715Y035926D01*
X022321Y03632D01*
Y0384D01*
X022305Y038438D01*
X022331Y0385D01*
X022122Y039005D01*
X021617Y039214D01*
X021112Y039005D01*
X020902Y0385D01*
X020928Y038438D01*
X020913Y0384D01*
Y036028D01*
X021119Y03553D01*
X021513Y035137D01*
Y030075D01*
X021502Y03005D01*
X02165Y029694D01*
X021442Y0293D01*
X0191D01*
X01905Y02935D01*
Y030292D01*
X019444Y03049D01*
X019817Y030336D01*
X020322Y030545D01*
X020531Y03105D01*
X020322Y031555D01*
X019817Y031764D01*
X019444Y03161D01*
X01905Y031808D01*
Y035092D01*
X019444Y03529D01*
X019817Y035136D01*
X020322Y035345D01*
X020531Y03585D01*
X020322Y036355D01*
X019817Y036564D01*
X019444Y03641D01*
X01905Y036608D01*
Y042506D01*
X042916D01*
X042994Y042112D01*
X042891Y042069D01*
X042654Y041496D01*
X042891Y040923D01*
X043465Y040685D01*
X044038Y040923D01*
X044275Y041496D01*
X044038Y042069D01*
X043935Y042112D01*
X044013Y042506D01*
X044671D01*
Y0293D01*
D02*
G37*
G36*
X018095Y037895D02*
X018092Y037875D01*
X01809Y037842D01*
X018083Y037577D01*
X018081Y037241D01*
X0169D01*
X016901Y037901D01*
X018099D01*
X018095Y037895D01*
D02*
G37*
G36*
X018093Y027395D02*
X018106Y027385D01*
X018123Y027376D01*
X018143Y027368D01*
X018166Y027362D01*
X018192Y027356D01*
X018221Y027352D01*
X018289Y027347D01*
X018328Y027347D01*
X018258Y026953D01*
X018219Y026953D01*
X018094Y026945D01*
X018071Y026942D01*
X018052Y026938D01*
X018035Y026933D01*
X018022Y026928D01*
X018012Y026922D01*
X018082Y027407D01*
X018093Y027395D01*
D02*
G37*
G36*
X040625Y025582D02*
X040624Y025594D01*
X04062Y025604D01*
X040613Y025612D01*
X040603Y02562D01*
X040591Y025626D01*
X040576Y025632D01*
X040558Y025636D01*
X040537Y025639D01*
X040514Y02564D01*
X040488Y025641D01*
Y025759D01*
X040514Y02576D01*
X040537Y025761D01*
X040558Y025764D01*
X040576Y025768D01*
X040591Y025774D01*
X040603Y02578D01*
X040613Y025788D01*
X04062Y025796D01*
X040624Y025806D01*
X040625Y025818D01*
Y025582D01*
D02*
G37*
G36*
X031325D02*
X031324Y025594D01*
X03132Y025604D01*
X031313Y025612D01*
X031303Y02562D01*
X031291Y025626D01*
X031276Y025632D01*
X031258Y025636D01*
X031237Y025639D01*
X031214Y02564D01*
X031188Y025641D01*
Y025759D01*
X031214Y02576D01*
X031237Y025761D01*
X031258Y025764D01*
X031276Y025768D01*
X031291Y025774D01*
X031303Y02578D01*
X031313Y025788D01*
X03132Y025796D01*
X031324Y025806D01*
X031325Y025818D01*
Y025582D01*
D02*
G37*
G36*
X022589Y025423D02*
X02258Y02543D01*
X02257Y025434D01*
X022559Y025435D01*
X022547Y025434D01*
X022534Y025429D01*
X022519Y025422D01*
X022504Y025413D01*
X022487Y0254D01*
X022469Y025385D01*
X02245Y025367D01*
X022367Y02545D01*
X022385Y025469D01*
X0224Y025487D01*
X022413Y025504D01*
X022422Y025519D01*
X022429Y025534D01*
X022434Y025547D01*
X022435Y025559D01*
X022434Y02557D01*
X02243Y02558D01*
X022423Y025589D01*
X022589Y025423D01*
D02*
G37*
G36*
X020206Y024522D02*
X020172Y024506D01*
X020143Y02448D01*
X020117Y024444D01*
X020096Y024398D01*
X020078Y024341D01*
X020064Y024274D01*
X020055Y024196D01*
X020049Y024109D01*
X020047Y024011D01*
X019653D01*
X019651Y024109D01*
X019636Y024274D01*
X019622Y024341D01*
X019604Y024398D01*
X019583Y024444D01*
X019557Y02448D01*
X019528Y024506D01*
X019494Y024522D01*
X019457Y024527D01*
X020243D01*
X020206Y024522D01*
D02*
G37*
G36*
X029566Y023817D02*
X029561Y023822D01*
X029555Y023826D01*
X029548Y023829D01*
X02954Y023832D01*
X029532Y023835D01*
X029523Y023837D01*
X029512Y023839D01*
X029501Y02384D01*
X029477Y023841D01*
Y023959D01*
X02949Y023959D01*
X029512Y023961D01*
X029523Y023963D01*
X029532Y023965D01*
X02954Y023968D01*
X029548Y023971D01*
X029555Y023974D01*
X029561Y023978D01*
X029566Y023983D01*
Y023817D01*
D02*
G37*
G36*
X025489Y023978D02*
X025495Y023974D01*
X025502Y023971D01*
X02551Y023968D01*
X025518Y023965D01*
X025527Y023963D01*
X025538Y023961D01*
X025549Y02396D01*
X025573Y023959D01*
Y023841D01*
X02556Y023841D01*
X025538Y023839D01*
X025527Y023837D01*
X025518Y023835D01*
X02551Y023832D01*
X025502Y023829D01*
X025495Y023826D01*
X025489Y023822D01*
X025484Y023817D01*
Y023983D01*
X025489Y023978D01*
D02*
G37*
G36*
X043852Y023881D02*
X043868Y023868D01*
X04389Y023853D01*
X043916Y02384D01*
X043946Y023829D01*
X043979Y02382D01*
X044015Y023812D01*
X044055Y023806D01*
X044146Y0238D01*
X044196Y0238D01*
X044085Y023689D01*
X044086Y023688D01*
X044119Y02367D01*
X044148Y023657D01*
X044175Y023649D01*
X044199Y023647D01*
X044003Y02345D01*
X044Y023474D01*
X043992Y023501D01*
X043979Y023531D01*
X043962Y023563D01*
X043961Y023565D01*
X043849Y023454D01*
X043849Y023504D01*
X043843Y023594D01*
X043837Y023634D01*
X04383Y02367D01*
X04382Y023703D01*
X043809Y023733D01*
X043796Y023759D01*
X043782Y023782D01*
X043774Y023791D01*
X043746Y023819D01*
X04383Y023903D01*
X043852Y023881D01*
D02*
G37*
%LPC*%
G36*
X03951Y03916D02*
X03819D01*
Y038507D01*
X038146Y0384D01*
X03819Y038293D01*
Y03784D01*
X038502D01*
X03885Y037696D01*
X042158D01*
X042442Y037412D01*
Y035866D01*
X042436Y03585D01*
X042645Y035345D01*
X04315Y035136D01*
X043655Y035345D01*
X043864Y03585D01*
X043851Y035883D01*
Y037704D01*
X043644Y038202D01*
X042948Y038898D01*
X04245Y039104D01*
X03951D01*
Y03916D01*
D02*
G37*
G36*
X03835Y036564D02*
X037845Y036355D01*
X037636Y03585D01*
X037845Y035345D01*
X03835Y035136D01*
X038855Y035345D01*
X039064Y03585D01*
X038855Y036355D01*
X03835Y036564D01*
D02*
G37*
G36*
X032393Y03916D02*
X031073D01*
Y038507D01*
X031029Y0384D01*
X031073Y038293D01*
Y03784D01*
X031073D01*
X03107Y037808D01*
X03107Y037807D01*
X03107Y037801D01*
X03107Y037801D01*
X031078Y037781D01*
X031078Y037781D01*
X031084Y03776D01*
X031084Y03776D01*
X031087Y037759D01*
X031089Y037755D01*
X031089Y037755D01*
X031089Y037755D01*
X031089Y037755D01*
X031109Y037747D01*
X031128Y037737D01*
X031128Y037737D01*
X031199Y037729D01*
X031276Y037707D01*
X031366Y037668D01*
X03139Y037654D01*
X031467Y037612D01*
X031578Y037539D01*
X031656Y037482D01*
X033176Y035962D01*
Y035866D01*
X033169Y03585D01*
X033378Y035345D01*
X033883Y035136D01*
X034388Y035345D01*
X034598Y03585D01*
X034584Y035883D01*
Y036254D01*
X034378Y036752D01*
X032652Y038477D01*
X032594Y038555D01*
X032521Y038667D01*
X032466Y038768D01*
X032427Y038857D01*
X032404Y038934D01*
X032397Y039006D01*
X032393Y039012D01*
Y03916D01*
D02*
G37*
G36*
X025277D02*
X023957D01*
Y038507D01*
X023913Y0384D01*
Y035875D01*
X023902Y03585D01*
X024112Y035345D01*
X024617Y035136D01*
X025122Y035345D01*
X025331Y03585D01*
X025321Y035875D01*
Y0384D01*
X025277Y038507D01*
Y03916D01*
D02*
G37*
G36*
X04315Y031764D02*
X042645Y031555D01*
X042436Y03105D01*
X042645Y030545D01*
X04315Y030336D01*
X043655Y030545D01*
X043864Y03105D01*
X043655Y031555D01*
X04315Y031764D01*
D02*
G37*
G36*
X03835D02*
X037845Y031555D01*
X037636Y03105D01*
X037845Y030545D01*
X03835Y030336D01*
X038855Y030545D01*
X039064Y03105D01*
X038855Y031555D01*
X03835Y031764D01*
D02*
G37*
G36*
X033883D02*
X033378Y031555D01*
X033169Y03105D01*
X033378Y030545D01*
X033883Y030336D01*
X034388Y030545D01*
X034598Y03105D01*
X034388Y031555D01*
X033883Y031764D01*
D02*
G37*
G36*
X029083D02*
X028578Y031555D01*
X028369Y03105D01*
X028578Y030545D01*
X029083Y030336D01*
X029588Y030545D01*
X029798Y03105D01*
X029588Y031555D01*
X029083Y031764D01*
D02*
G37*
G36*
X024617D02*
X024112Y031555D01*
X023902Y03105D01*
X024112Y030545D01*
X024617Y030336D01*
X025122Y030545D01*
X025331Y03105D01*
X025122Y031555D01*
X024617Y031764D01*
D02*
G37*
%LPD*%
G36*
X039461Y038997D02*
X039496Y038996D01*
X04063Y038991D01*
Y037809D01*
X039449Y037801D01*
Y038999D01*
X039461Y038997D01*
D02*
G37*
G36*
X03234Y038922D02*
X032366Y038835D01*
X032407Y038739D01*
X032466Y038633D01*
X032541Y038518D01*
X032633Y038394D01*
X032867Y038116D01*
X033167Y037801D01*
X032332Y036966D01*
X03217Y037125D01*
X03174Y037501D01*
X031615Y037592D01*
X0315Y037668D01*
X031395Y037726D01*
X031298Y037768D01*
X031212Y037793D01*
X031135Y037801D01*
X032332Y038999D01*
X03234Y038922D01*
D02*
G37*
G36*
X025214Y037789D02*
X025213Y037754D01*
X025207Y03662D01*
X024026D01*
X024018Y037801D01*
X025215D01*
X025214Y037789D01*
D02*
G37*
D18*
X0152Y0385D02*
G03*
X014385Y039191I-0007J0D01*
G01*
Y037809D02*
G03*
X0152Y0385I000115J000691D01*
G01*
X017979Y036752D02*
G03*
X018181Y03723I-000488J000488D01*
G01*
X017978Y036752D02*
G03*
X018181Y03723I-000488J000489D01*
G01*
X01665Y035709D02*
G03*
X017139Y035912I0J000691D01*
G01*
X01665Y035709D02*
G03*
X017138Y035912I0J000691D01*
G01*
X01385Y037091D02*
G03*
X01385Y035709I0J-000691D01*
G01*
X012592Y039191D02*
G03*
X012103Y038988I0J-000691D01*
G01*
X012592Y039191D02*
G03*
X012104Y038988I0J-000691D01*
G01*
X012388Y03593D02*
G03*
X012591Y036418I-000488J000488D01*
G01*
X012388Y03593D02*
G03*
X012591Y036418I-000488J000489D01*
G01*
X010789Y041496D02*
G03*
X010789Y041496I-000789J0D01*
G01*
D02*
G03*
X010789Y041496I-000789J0D01*
G01*
X011412Y038297D02*
G03*
X011209Y037808I000488J-000489D01*
G01*
X011412Y038296D02*
G03*
X011209Y037808I000488J-000488D01*
G01*
Y036559D02*
G03*
X01237Y035912I000672J-000159D01*
G01*
X01Y010789D02*
G03*
X009211Y01I0J-000789D01*
G01*
X010789D02*
G03*
X01Y010789I-000789J0D01*
G01*
Y009211D02*
G03*
X010789Y01I0J000789D01*
G01*
X009211D02*
G03*
X01Y009211I000789J0D01*
G01*
X01805Y042479D02*
X0188Y041728D01*
X017767Y042479D02*
X0188Y041446D01*
X017484Y042479D02*
X0188Y041163D01*
X018615Y042479D02*
X0188Y042294D01*
X018332Y042479D02*
X0188Y042011D01*
X016855Y0392D02*
X0188Y041145D01*
X016635Y042479D02*
X0188Y040314D01*
X017138Y0392D02*
X0188Y040862D01*
X017201Y042479D02*
X0188Y04088D01*
X016918Y042479D02*
X0188Y040597D01*
X016353Y042479D02*
X0188Y040031D01*
X015787Y042479D02*
X0188Y039466D01*
X01607Y042479D02*
X0188Y039748D01*
X014974Y039015D02*
X018437Y042479D01*
X015504D02*
X0188Y039183D01*
X015221Y042479D02*
X0188Y0389D01*
X015182Y038658D02*
X0188Y042276D01*
X01519Y038383D02*
X0188Y041993D01*
X015101Y038859D02*
X01872Y042479D01*
X014938D02*
X0188Y038617D01*
X0182Y038565D02*
X0188Y039165D01*
X0182Y038848D02*
X0188Y039448D01*
X0182Y038934D02*
X0188Y038334D01*
X0182Y03913D02*
X0188Y03973D01*
X0182Y038848D02*
X0188Y039448D01*
X0182Y038651D02*
X0188Y038051D01*
X0182Y038282D02*
X0188Y038882D01*
X0182Y038086D02*
X0188Y037486D01*
X0182Y037905D02*
Y0392D01*
Y0378D02*
Y037892D01*
X017987Y0392D02*
X0188Y040013D01*
X017704Y0392D02*
X0188Y040296D01*
X0182Y037999D02*
X0188Y038599D01*
X017421Y0392D02*
X0188Y040579D01*
X0168Y0392D02*
X0182D01*
Y037803D02*
X0188Y037203D01*
X018184Y037417D02*
X0188Y038033D01*
X018171Y037121D02*
X0188Y03775D01*
X0182Y038369D02*
X0188Y037769D01*
X018188Y037704D02*
X0188Y038316D01*
X014587Y039195D02*
X017871Y042479D01*
X014373D02*
X017651Y0392D01*
X014655Y042479D02*
X017934Y0392D01*
X014018Y039191D02*
X017306Y042479D01*
X01409D02*
X017369Y0392D01*
X014805Y03913D02*
X018154Y042479D01*
X0143Y039191D02*
X017589Y042479D01*
X0168Y039145D02*
X016855Y0392D01*
X0168Y038491D02*
Y0392D01*
X013524Y042479D02*
X016803Y0392D01*
X013452Y039191D02*
X01674Y042479D01*
X013807D02*
X017086Y0392D01*
X012603Y039191D02*
X015892Y042479D01*
X013169Y039191D02*
X016457Y042479D01*
X013241D02*
X0168Y03892D01*
X012676Y042479D02*
X0168Y038354D01*
X013735Y039191D02*
X017023Y042479D01*
X012886Y039191D02*
X016174Y042479D01*
X012958D02*
X0168Y038637D01*
Y037905D02*
Y038491D01*
Y037905D02*
Y038491D01*
X018191Y0378D02*
X018192Y037836D01*
X0168Y0378D02*
Y037905D01*
Y0378D02*
Y037905D01*
X018185Y037576D02*
X018191Y0378D01*
X0168Y037527D02*
Y0378D01*
X018183Y03724D02*
X018185Y037576D01*
X016799Y037525D02*
X016799Y037901D01*
X016364Y037091D02*
X016799Y037525D01*
X012592Y039191D02*
X014385D01*
X012878Y037809D02*
X014385D01*
X012591Y037522D02*
X012878Y037809D01*
X012591Y037481D02*
X012919Y037809D01*
X015877Y037091D02*
X0168Y038013D01*
X015199Y038541D02*
X016507Y037233D01*
X01616Y037091D02*
X016799Y037729D01*
X015168Y03829D02*
X016365Y037092D01*
X012591Y037198D02*
X013202Y037809D01*
X018142Y037012D02*
X0188Y036354D01*
X018044Y036828D02*
X0188Y036071D01*
X017908Y036681D02*
X0188Y035789D01*
X018184Y037536D02*
X0188Y03692D01*
X018183Y037254D02*
X0188Y036637D01*
X017483Y036257D02*
X0188Y03494D01*
X017342Y036115D02*
X0188Y034657D01*
X017201Y035974D02*
X0188Y034374D01*
X017766Y03654D02*
X0188Y035506D01*
X017625Y036398D02*
X0188Y035223D01*
X017053Y035839D02*
X0188Y034092D01*
X016865Y035744D02*
X0188Y033809D01*
X015485Y035709D02*
X0188Y032395D01*
X01418Y037091D02*
X0188Y04171D01*
X014463Y037091D02*
X0188Y041427D01*
X014071Y035709D02*
X0188Y03098D01*
X013785Y035713D02*
X0188Y030697D01*
X014354Y035709D02*
X0188Y031263D01*
X015202Y035709D02*
X0188Y032112D01*
X014637Y035709D02*
X0188Y031546D01*
X017986Y0293D02*
X0188Y030114D01*
X017703Y0293D02*
X0188Y030397D01*
X018552Y0293D02*
X0188Y029548D01*
X016616Y035709D02*
X0188Y033526D01*
X016334Y035709D02*
X0188Y033243D01*
X017138Y0293D02*
X0188Y030962D01*
X016572Y0293D02*
X0188Y031528D01*
X017421Y0293D02*
X0188Y030679D01*
X016855Y0293D02*
X0188Y031245D01*
X018269Y0293D02*
X0188Y029831D01*
X016006Y0293D02*
X0188Y032094D01*
X014919Y035709D02*
X0188Y031829D01*
X016289Y0293D02*
X0188Y031811D01*
X016051Y035709D02*
X0188Y03296D01*
X015768Y035709D02*
X0188Y032677D01*
X014592Y0293D02*
X0188Y033508D01*
X013461Y0293D02*
X0188Y034639D01*
X015441Y0293D02*
X0188Y032659D01*
X013744Y0293D02*
X0188Y034356D01*
X015724Y0293D02*
X0188Y032376D01*
X014938Y037954D02*
X015801Y037091D01*
X014746D02*
X0168Y039145D01*
X014759Y03785D02*
X015518Y037091D01*
X014234Y037809D02*
X014953Y037091D01*
X014525Y0378D02*
X015235Y037091D01*
X0188Y0293D02*
Y042479D01*
X015029Y037091D02*
X0168Y038862D01*
X015312Y037091D02*
X0168Y038579D01*
X015595Y037091D02*
X0168Y038296D01*
X015074Y0381D02*
X016084Y037091D01*
X013951Y037809D02*
X01467Y037091D01*
X013897D02*
X014617Y03781D01*
X013668Y037809D02*
X014387Y037091D01*
X013102Y037809D02*
X013822Y03709D01*
X013385Y037809D02*
X014104Y037091D01*
X013542Y037018D02*
X014333Y037809D01*
X012591Y036632D02*
X013768Y037809D01*
X012849Y03778D02*
X013589Y037039D01*
X012591Y036915D02*
X013485Y037809D01*
X012707Y037639D02*
X013412Y036934D01*
X017139Y035912D02*
X017978Y036752D01*
X014875Y0293D02*
X0188Y033225D01*
X014309Y0293D02*
X0188Y033791D01*
X015158Y0293D02*
X0188Y032942D01*
X01385Y035709D02*
X01665D01*
X014026Y0293D02*
X0188Y034074D01*
X012591Y03719D02*
X013187Y036593D01*
X01385Y037091D02*
X016364D01*
X012591Y036418D02*
Y037522D01*
Y036907D02*
X013163Y036335D01*
X012612Y0293D02*
X0188Y035488D01*
X012895Y0293D02*
X0188Y035205D01*
X012591Y036624D02*
X0188Y030415D01*
X013178Y0293D02*
X0188Y034922D01*
X010979Y042479D02*
X014267Y039191D01*
X010696Y042479D02*
X013984Y039191D01*
X011261Y042479D02*
X014541Y039199D01*
X010768Y041315D02*
X011932Y042479D01*
X010413D02*
X013701Y039191D01*
X01211Y042479D02*
X016799Y03779D01*
X011827Y042479D02*
X01679Y037516D01*
X012393Y042479D02*
X0168Y038071D01*
X012195Y039065D02*
X015609Y042479D01*
X011544D02*
X016648Y037375D01*
X00882Y037388D02*
X013912Y042479D01*
X00882Y03767D02*
X013629Y042479D01*
X00882D02*
X0188D01*
X00882Y038519D02*
X01278Y042479D01*
X00882Y037953D02*
X013346Y042479D01*
X00882Y036256D02*
X015043Y042479D01*
X00882Y036539D02*
X01476Y042479D01*
X00882Y035973D02*
X015326Y042479D01*
X00882Y037105D02*
X014194Y042479D01*
X00882Y036822D02*
X014477Y042479D01*
X010788Y041538D02*
X013135Y039191D01*
X01076Y041283D02*
X012853Y039191D01*
X010781Y04161D02*
X011649Y042479D01*
X012591Y037473D02*
X013277Y036786D01*
X012587Y036345D02*
X014051Y037809D01*
X011412Y038297D02*
X012103Y038988D01*
X010674Y041086D02*
X01257Y03919D01*
X010598Y042011D02*
X013418Y039191D01*
X010548Y040929D02*
X012336Y039141D01*
X00882Y039085D02*
X012215Y042479D01*
X010386Y040808D02*
X012158Y039037D01*
X00882Y038802D02*
X012497Y042479D01*
X00882Y038236D02*
X013063Y042479D01*
X010183Y040729D02*
X012013Y038898D01*
X00882Y041526D02*
X011731Y038615D01*
X009917Y040711D02*
X011872Y038757D01*
X01004Y042284D02*
X010235Y042479D01*
X009847D02*
X010042Y042284D01*
X010275Y042236D02*
X010517Y042479D01*
X009564D02*
X009787Y042256D01*
X009698Y042225D02*
X009952Y042479D01*
X010606Y042001D02*
X011083Y042479D01*
X010459Y042138D02*
X0108Y042479D01*
X010716Y041828D02*
X011366Y042479D01*
X009281D02*
X00959Y04217D01*
X01013Y042479D02*
X010515Y042094D01*
X008999Y042479D02*
X009433Y042045D01*
X00882Y041913D02*
X009386Y042479D01*
X00882Y042374D02*
X009312Y041882D01*
X00882Y042196D02*
X009103Y042479D01*
X00882Y042091D02*
X009233Y041679D01*
X00882Y04163D02*
X009669Y042479D01*
X00882Y041808D02*
X009215Y041413D01*
X00882Y041347D02*
X009271Y041798D01*
X00882Y040394D02*
X011232Y037983D01*
X00882Y040111D02*
X011209Y037722D01*
X00882Y039828D02*
X011209Y037439D01*
X00882Y039263D02*
X011209Y036874D01*
X00882Y039546D02*
X011209Y037157D01*
X00882Y03898D02*
X011209Y036591D01*
X00882Y038697D02*
X011195Y036322D01*
X011209Y036559D02*
Y037808D01*
X00882Y040216D02*
X009495Y04089D01*
X00882Y040499D02*
X009358Y041037D01*
X00882Y039933D02*
X009668Y04078D01*
X00882Y041065D02*
X009212Y041456D01*
X00882Y040782D02*
X00926Y041222D01*
X00882Y04096D02*
X011448Y038333D01*
X00882Y041243D02*
X011589Y038474D01*
X00882Y040677D02*
X011318Y03818D01*
X00882Y039367D02*
X010181Y040728D01*
X00882Y03965D02*
X009886Y040715D01*
X012587Y036345D02*
X0188Y030132D01*
X012525Y036124D02*
X0188Y029849D01*
X012412Y035955D02*
X0188Y029566D01*
X012047Y0293D02*
X0188Y036053D01*
X012261Y035823D02*
X018783Y0293D01*
X011481D02*
X0188Y036619D01*
X011198Y0293D02*
X0188Y036902D01*
X011764Y0293D02*
X0188Y036336D01*
X010632Y0293D02*
X0188Y037468D01*
X010915Y0293D02*
X0188Y037185D01*
X00882Y036717D02*
X016238Y0293D01*
X00882Y037D02*
X016521Y0293D01*
X00882Y036434D02*
X015955Y0293D01*
X00882Y036152D02*
X015672Y0293D01*
X00882Y035869D02*
X015389Y0293D01*
X00882Y038131D02*
X017652Y0293D01*
X00882Y038414D02*
X017935Y0293D01*
X00882Y037849D02*
X017369Y0293D01*
X00882Y037566D02*
X017086Y0293D01*
X00882Y037283D02*
X016803Y0293D01*
X009501D02*
X01591Y035709D01*
X009218Y0293D02*
X015628Y035709D01*
X009784Y0293D02*
X016193Y035709D01*
X008935Y0293D02*
X015345Y035709D01*
X00882Y03502D02*
X014541Y0293D01*
X012329D02*
X0188Y035771D01*
X012066Y035735D02*
X0185Y0293D01*
X011804Y035714D02*
X018218Y0293D01*
X01035D02*
X016769Y03572D01*
X010067Y0293D02*
X016476Y035709D01*
X00882Y029468D02*
X015062Y035709D01*
X00882Y029751D02*
X014779Y035709D01*
X00882Y029468D02*
X015062Y035709D01*
X00882Y030317D02*
X014213Y035709D01*
X00882Y030034D02*
X014496Y035709D01*
X00882Y035303D02*
X014823Y0293D01*
X00882Y035586D02*
X015106Y0293D01*
X00882D02*
X0188D01*
X00882Y034737D02*
X014258Y0293D01*
X00882Y034454D02*
X013975Y0293D01*
X00882Y035408D02*
X011209Y037797D01*
X00882Y035691D02*
X011335Y038205D01*
X00882Y035125D02*
X011209Y037514D01*
X00882Y034842D02*
X011209Y037231D01*
X00882Y032296D02*
X013232Y036708D01*
X00882Y034559D02*
X011209Y036948D01*
X00882Y034276D02*
X011209Y036665D01*
X00882Y0293D02*
Y042479D01*
Y033993D02*
X011192Y036365D01*
X00882Y032862D02*
X011694Y035735D01*
X00882Y033145D02*
X0115Y035824D01*
X00882Y032579D02*
X011955Y035713D01*
X00882Y033711D02*
X011244Y036134D01*
X00882Y033428D02*
X011351Y035958D01*
X00882Y031165D02*
X013475Y03582D01*
X00882Y031448D02*
X013325Y035952D01*
X00882Y030882D02*
X013671Y035733D01*
X00882Y032014D02*
X013161Y036354D01*
X00882Y031731D02*
X013216Y036126D01*
X00882Y031626D02*
X011147Y0293D01*
X00882Y031909D02*
X011429Y0293D01*
X00882Y031343D02*
X010864Y0293D01*
X00882Y03106D02*
X010581Y0293D01*
X00882Y030778D02*
X010298Y0293D01*
X00882Y030212D02*
X009732Y0293D01*
X00882Y030495D02*
X010015Y0293D01*
X00882Y029929D02*
X009449Y0293D01*
X00882Y029646D02*
X009167Y0293D01*
X00882Y029363D02*
X008884Y0293D01*
X00882Y034172D02*
X013692Y0293D01*
X00882Y030599D02*
X013931Y035709D01*
X00882Y033889D02*
X013409Y0293D01*
X00882Y033606D02*
X013126Y0293D01*
X00882Y033323D02*
X012844Y0293D01*
X00882Y03304D02*
X012561Y0293D01*
X00882Y032757D02*
X012278Y0293D01*
X00882Y032475D02*
X011995Y0293D01*
X00882Y032192D02*
X011712Y0293D01*
X019Y02875D02*
X01905Y0287D01*
X0188Y027365D02*
Y02875D01*
X018718Y027447D02*
X018866Y027298D01*
X018765Y0274D02*
X01905D01*
X018718Y027447D02*
X018866Y027298D01*
X0186Y027447D02*
Y02875D01*
X018421Y027447D02*
X018718D01*
X018421D02*
X018718D01*
X018346D02*
X018421D01*
X019Y027165D02*
Y02875D01*
X01905Y027115D02*
Y0287D01*
X018948Y027216D02*
X01905Y027115D01*
X018965Y0272D02*
X01905D01*
X018948Y027216D02*
X01905Y027115D01*
X018866Y027298D02*
X018948Y027216D01*
X018421Y026853D02*
X018503Y026771D01*
Y022602D02*
Y026771D01*
X018268Y026853D02*
X018421D01*
X01825Y0284D02*
X01905D01*
X01825Y0282D02*
X01905D01*
X018075Y0286D02*
X01905D01*
X01825Y028D02*
X01905D01*
X018075Y0278D02*
X01905D01*
X018075Y0268D02*
X018474D01*
X018075Y0276D02*
X01905D01*
X018175Y0258D02*
X018503D01*
X017975Y026D02*
X018503D01*
X0182Y0246D02*
X018503D01*
X018175Y0248D02*
X018503D01*
X0182Y0244D02*
X018503D01*
X018075Y0242D02*
X018503D01*
X0182Y0254D02*
X018503D01*
X0182Y0256D02*
X018503D01*
X018075Y0252D02*
X018503D01*
X016332Y025D02*
X018503D01*
X020147Y0224D02*
X021D01*
X020147Y0222D02*
X0212D01*
X020147Y0226D02*
X0208D01*
X020147Y0218D02*
X0216D01*
X020147Y022D02*
X0214D01*
X020147Y0232D02*
X0202D01*
X020147Y021752D02*
Y02325D01*
Y0228D02*
X0206D01*
X020147Y023D02*
X0204D01*
X021Y02035D02*
Y0224D01*
X02015Y02325D02*
X0229Y0205D01*
X022Y02035D02*
Y0214D01*
X0218Y02035D02*
Y0216D01*
X0202Y02035D02*
Y0232D01*
X019998Y021603D02*
X020147Y021752D01*
X02Y02035D02*
Y021605D01*
X0198Y02035D02*
Y021603D01*
X019097Y0232D02*
X019553D01*
X019097Y023D02*
X019553D01*
X019097Y02325D02*
X019553D01*
X019097Y0228D02*
X019553D01*
X019095Y0226D02*
X019553D01*
X019097Y022602D02*
Y02325D01*
X018948Y022453D02*
X019097Y022602D01*
X018652Y022453D02*
X018948D01*
X018503Y022602D02*
X018652Y022453D01*
X0196Y02035D02*
Y021705D01*
X019553Y021752D02*
X019702Y021603D01*
X019998D01*
X0184Y02035D02*
X022D01*
X019553Y021752D02*
Y02325D01*
X0194Y02035D02*
Y02325D01*
X0188Y02035D02*
Y022453D01*
X0186Y02035D02*
Y022505D01*
X0182Y028475D02*
Y02875D01*
X01825Y027975D02*
Y028425D01*
X018025Y02865D02*
X01825Y028425D01*
X018025Y02765D02*
X01822Y027455D01*
X018025Y02775D02*
X01825Y027975D01*
X018Y02865D02*
Y02875D01*
X0178Y02865D02*
Y02875D01*
X0182Y027475D02*
Y027925D01*
X018Y02765D02*
Y02775D01*
X018293Y027449D02*
X018329Y027449D01*
X0184Y027447D02*
Y02875D01*
X018232Y027454D02*
X018293Y027449D01*
X0184Y02035D02*
Y026853D01*
X018222Y026851D02*
X018259Y026851D01*
X0182Y025775D02*
Y02685D01*
X01812Y026845D02*
X018222Y026851D01*
X018025Y02675D02*
X01812Y026845D01*
X018Y025975D02*
Y02675D01*
X017575Y02865D02*
X018025D01*
X0176D02*
Y02875D01*
X017575Y02775D02*
X018025D01*
X0178Y02765D02*
Y02775D01*
X0176Y02765D02*
Y02775D01*
X0174Y028475D02*
Y02875D01*
X01735Y028425D02*
X017575Y02865D01*
X01735Y027975D02*
X017575Y02775D01*
X01735Y027975D02*
Y028425D01*
X017575Y02765D02*
X018025D01*
X0174Y027475D02*
Y027925D01*
X01735Y026975D02*
X017575Y02675D01*
X01735Y027425D02*
X017575Y02765D01*
X0162Y025174D02*
Y02875D01*
X016Y02526D02*
Y02875D01*
X0174Y025875D02*
Y026925D01*
X01735Y026975D02*
Y027425D01*
X017975Y026D02*
X0182Y025775D01*
Y025325D02*
Y025775D01*
X017575Y02675D02*
X018025D01*
X0182Y025325D02*
Y025775D01*
X017975Y0251D02*
X0182Y025325D01*
X0178Y026D02*
Y02675D01*
X0176Y026D02*
Y02675D01*
Y025D02*
Y0251D01*
X017525Y025D02*
X017975D01*
X0182Y024775D02*
Y025325D01*
X017975Y025D02*
X0182Y024775D01*
Y024325D02*
Y024775D01*
X017975Y0241D02*
X0182Y024325D01*
X018Y024975D02*
Y025125D01*
X0178Y025D02*
Y0251D01*
X0182Y024325D02*
Y024775D01*
X017525Y0241D02*
X017975D01*
X017525Y026D02*
X017975D01*
X017525D02*
X017975D01*
X0173Y025775D02*
X017525Y026D01*
Y0251D02*
X017975D01*
X0173Y025325D02*
X017525Y0251D01*
X0173Y025325D02*
Y025775D01*
X016115Y02526D02*
X016332Y025043D01*
X0174Y024875D02*
Y025225D01*
X016174Y0252D02*
X017425D01*
X0173Y024775D02*
X017525Y025D01*
X016332Y0248D02*
X017325D01*
X0173Y024325D02*
X017525Y0241D01*
X016324Y0246D02*
X0173D01*
Y024325D02*
Y024775D01*
X016332Y024608D02*
Y025043D01*
X016124Y0244D02*
X0173D01*
X016115Y024391D02*
X016332Y024608D01*
X02235Y019D02*
X0229D01*
X02235Y0188D02*
X0229D01*
X02235Y0192D02*
X0229D01*
X02235Y0172D02*
X0229D01*
X02235Y0186D02*
X0229D01*
X02235Y0198D02*
X0229D01*
X02235Y02D02*
X0229D01*
X02235Y0194D02*
X0229D01*
X02235Y0196D02*
X0229D01*
X02235Y017D02*
X0229D01*
Y01425D02*
Y0205D01*
X02235Y0168D02*
X0229D01*
X02235Y0162D02*
X0229D01*
X02235Y0164D02*
X0229D01*
X0226Y01395D02*
Y0208D01*
X0224Y01375D02*
Y021D01*
X0228Y01415D02*
Y0206D01*
X02235Y0146D02*
Y02D01*
X0214Y02035D02*
Y022D01*
X0216Y02035D02*
Y0218D01*
X0212Y02035D02*
Y0222D01*
X0222Y02015D02*
Y0212D01*
X02215Y0202D02*
X0229D01*
X0204Y02035D02*
Y023D01*
X0192Y02035D02*
Y02325D01*
X0208Y02035D02*
Y0226D01*
X0206Y02035D02*
Y0228D01*
X02235Y0176D02*
X0229D01*
X02235Y0178D02*
X0229D01*
X02235Y0166D02*
X0229D01*
X02235Y0174D02*
X0229D01*
X02235Y0184D02*
X0229D01*
X022Y02035D02*
X02235Y02D01*
Y018D02*
X0229D01*
X02235Y0182D02*
X0229D01*
X02235Y015D02*
X0229D01*
X02235Y0148D02*
X0229D01*
X02235Y0152D02*
X0229D01*
X02235Y0146D02*
X0229D01*
X02215Y0144D02*
X0229D01*
X02235Y0158D02*
X0229D01*
X02235Y016D02*
X0229D01*
X02235Y0154D02*
X0229D01*
X02235Y0156D02*
X0229D01*
X02235Y0137D02*
X0229Y01425D01*
X02175Y014D02*
X02235Y0146D01*
X02195Y0142D02*
X02285D01*
X02175Y014D02*
X02265D01*
X0222Y0137D02*
Y01445D01*
X022Y0137D02*
Y01425D01*
X0218Y0137D02*
Y01405D01*
X0216Y0137D02*
Y014D01*
X0212Y0137D02*
Y014D01*
X0214Y0137D02*
Y014D01*
X0182D02*
X02175D01*
X0182D02*
X02175D01*
X01765Y0138D02*
X02245D01*
X0204Y0137D02*
Y014D01*
X0202Y0137D02*
Y014D01*
X0208Y0137D02*
Y014D01*
X0206Y0137D02*
Y014D01*
X02Y0137D02*
Y014D01*
X0198Y0137D02*
Y014D01*
X021Y0137D02*
Y014D01*
X019Y0137D02*
X02235D01*
X0192D02*
Y014D01*
X019Y0137D02*
Y014D01*
X0196Y0137D02*
Y014D01*
X0194Y0137D02*
Y014D01*
X019Y02035D02*
Y022505D01*
X0182Y02015D02*
Y024325D01*
X018Y01995D02*
Y024125D01*
Y0199D02*
Y01995D01*
X0184Y02035D01*
X0176Y0199D02*
Y0241D01*
X0174Y0199D02*
Y024225D01*
X018Y0199D02*
Y01995D01*
X0178Y0199D02*
Y0241D01*
X01785Y01435D02*
X0182Y014D01*
X0178Y01215D02*
Y01435D01*
X01725D02*
X01785D01*
X018Y01235D02*
Y0142D01*
X01765D02*
X018D01*
X0174Y0143D02*
Y01435D01*
X0172Y0199D02*
Y02875D01*
X01765Y0125D02*
Y0143D01*
X0176D02*
Y01435D01*
X01715Y0199D02*
X018D01*
X01715Y01445D02*
X01725Y01435D01*
X01595Y0146D02*
X01715D01*
X0172Y0143D02*
Y0144D01*
X01595D02*
X0172D01*
X0168Y0143D02*
Y02875D01*
X0166Y0143D02*
Y02875D01*
X01715Y01445D02*
Y0199D01*
X01595Y0148D02*
X01715D01*
X017Y0143D02*
Y02875D01*
X01645Y0143D02*
X01765D01*
X01645Y0125D02*
Y0143D01*
X01595Y0142D02*
X01645D01*
X0164Y009762D02*
Y02875D01*
X0162Y009762D02*
Y024476D01*
X016Y009762D02*
Y024391D01*
X01595Y0138D02*
Y015D01*
X0188Y0135D02*
Y014D01*
X0186Y0133D02*
Y014D01*
X01855Y01325D02*
X019Y0137D01*
X01765Y0134D02*
X0187D01*
X01765Y0136D02*
X0189D01*
X01855Y0129D02*
Y01325D01*
X01765Y014D02*
X0182D01*
X01765Y013D02*
X01855D01*
X01765Y0132D02*
X01855D01*
X0184Y01275D02*
Y014D01*
X0173Y01165D02*
X01855Y0129D01*
X01765Y0126D02*
X01825D01*
X01765Y0128D02*
X01845D01*
X0182Y01255D02*
Y014D01*
X0176Y01195D02*
Y0125D01*
X0174Y01175D02*
Y0125D01*
X01725Y01165D02*
X0173D01*
X017Y009762D02*
Y0125D01*
X0172Y009762D02*
Y0125D01*
X01645D02*
X01765D01*
X01725Y009762D02*
Y01165D01*
X01595Y0116D02*
X01725D01*
X01595Y0138D02*
X01645D01*
X01595Y014D02*
X01645D01*
X0168Y009762D02*
Y0125D01*
X0166Y009762D02*
Y0125D01*
X017Y009017D02*
Y009168D01*
X0168Y009017D02*
Y009168D01*
X01725Y009017D02*
Y009168D01*
X0172Y009017D02*
Y009168D01*
X0162Y009017D02*
Y009168D01*
X016Y009017D02*
Y009168D01*
X0166Y009017D02*
Y009168D01*
X0164Y009017D02*
Y009168D01*
X00882Y0234D02*
X018503D01*
X00882Y0232D02*
X018503D01*
X00882Y0236D02*
X018503D01*
X00882Y0228D02*
X018503D01*
X00882Y023D02*
X018503D01*
X00882Y0242D02*
X017425D01*
X00882Y0254D02*
X0173D01*
X00882Y0238D02*
X018503D01*
X00882Y024D02*
X018503D01*
X00882Y0216D02*
X0218D01*
X00882Y0214D02*
X022D01*
X00882Y0218D02*
X019553D01*
X00882Y021D02*
X0224D01*
X00882Y0212D02*
X0222D01*
X00882Y0224D02*
X019553D01*
X00882Y0226D02*
X018505D01*
X00882Y022D02*
X019553D01*
X00882Y0222D02*
X019553D01*
X00882Y0286D02*
X017525D01*
X00882Y0278D02*
X017525D01*
X00882Y02875D02*
X019D01*
X00882Y0272D02*
X01735D01*
X00882Y0276D02*
X017525D01*
X00882Y0282D02*
X01735D01*
X00882Y0284D02*
X01735D01*
X00882Y0274D02*
X01735D01*
X00882Y028D02*
X01735D01*
X00882Y0266D02*
X018503D01*
X00882Y0268D02*
X017525D01*
X00882Y0262D02*
X018503D01*
X00882Y0264D02*
X018503D01*
X00882Y026D02*
X017525D01*
X00882Y027D02*
X01735D01*
X00882Y0256D02*
X0173D01*
X00882Y0258D02*
X017325D01*
X00882Y0206D02*
X0228D01*
X00882Y0204D02*
X0229D01*
X00882Y0208D02*
X0226D01*
X00882Y0196D02*
X01715D01*
X00882Y0202D02*
X01825D01*
X00882Y0192D02*
X01715D01*
X00882Y0194D02*
X01715D01*
X00882Y0188D02*
X01715D01*
X00882Y019D02*
X01715D01*
X01595Y0124D02*
X01805D01*
X00882Y0184D02*
X01715D01*
X01595Y012D02*
X01765D01*
X01595Y0122D02*
X01785D01*
X00882Y0182D02*
X01715D01*
X00882Y0186D02*
X01715D01*
X01595Y015D02*
X01715D01*
X00882Y018D02*
X01715D01*
X00882Y0198D02*
X01715D01*
X00882Y0178D02*
X01715D01*
X00882Y02D02*
X01805D01*
X00882Y0174D02*
X01715D01*
X00882Y0176D02*
X01715D01*
X00882Y017D02*
X01715D01*
X00882Y0172D02*
X01715D01*
X00882Y0166D02*
X01715D01*
X00882Y0168D02*
X01715D01*
X00882Y0162D02*
X01715D01*
X00882Y0164D02*
X01715D01*
X00882Y0158D02*
X01715D01*
X00882Y016D02*
X01715D01*
X00882Y0154D02*
X01715D01*
X00882Y0156D02*
X01715D01*
X00882Y013D02*
X01645D01*
X00882Y0152D02*
X01715D01*
X01568Y02526D02*
X016115D01*
X0158D02*
Y02875D01*
X0156Y02518D02*
Y02875D01*
X015463Y025043D02*
X01568Y02526D01*
X010261Y0246D02*
X01547D01*
X015463Y024608D02*
Y025043D01*
X010269Y024608D02*
Y025043D01*
Y0248D02*
X015463D01*
X010269Y025D02*
X015463D01*
X0152Y015D02*
Y02875D01*
X0154Y015D02*
Y02875D01*
X015Y015D02*
Y02875D01*
X0156Y015D02*
Y02447D01*
X015463Y024608D02*
X01568Y024391D01*
X0144Y015D02*
Y02875D01*
X0142Y015D02*
Y02875D01*
X0148Y015D02*
Y02875D01*
X0146Y015D02*
Y02875D01*
X01Y02526D02*
Y02875D01*
X0102Y025111D02*
Y02875D01*
X0098Y02526D02*
Y02875D01*
X010111Y0252D02*
X01562D01*
X009617Y02526D02*
X010052D01*
X0096Y025243D02*
Y02875D01*
X0094Y025043D02*
Y02875D01*
X0094Y025043D02*
X009617Y02526D01*
X00882Y0252D02*
X009557D01*
X010052Y024391D02*
X010269Y024608D01*
X010052Y02526D02*
X010269Y025043D01*
X0094Y024608D02*
X009617Y024391D01*
X00882Y0244D02*
X009607D01*
X0094Y024608D02*
Y025043D01*
X00882Y025D02*
X0094D01*
X00882Y0246D02*
X009407D01*
X00882Y0248D02*
X0094D01*
X01568Y024391D02*
X016115D01*
X01415Y015D02*
X01595D01*
X01415D02*
X01595D01*
X01415Y0138D02*
X01595D01*
X01415D02*
X01595D01*
X0158Y015D02*
Y024391D01*
X01415Y0138D02*
Y015D01*
X0154Y0125D02*
Y0138D01*
X0152Y0125D02*
Y0138D01*
X0156Y0125D02*
Y0138D01*
X015Y0125D02*
Y0138D01*
X0158Y0125D02*
Y0138D01*
X01415Y0125D02*
X01595D01*
X0144D02*
Y0138D01*
X0142Y0125D02*
Y0138D01*
X0148Y0125D02*
Y0138D01*
X0146Y0125D02*
Y0138D01*
X010061Y0244D02*
X01567D01*
X00882Y015D02*
X01415D01*
X00882Y0148D02*
X01415D01*
X00882Y014D02*
X01415D01*
X00882Y0146D02*
X01415D01*
X009617Y024391D02*
X010052D01*
X00882Y0144D02*
X01415D01*
X00882Y0138D02*
X01415D01*
X00882Y0142D02*
X01415D01*
X00882Y0134D02*
X01645D01*
X00882Y0136D02*
X01645D01*
X00882Y0128D02*
X01645D01*
X00882Y0132D02*
X01645D01*
X00882Y0124D02*
X01415D01*
X00882Y0126D02*
X01645D01*
X00882Y012D02*
X01415D01*
X00882Y0122D02*
X01415D01*
X01595Y0118D02*
X01745D01*
X01595Y0114D02*
X01725D01*
X01595Y0113D02*
Y0125D01*
X015455Y0113D02*
X01595D01*
X015368Y0112D02*
X01725D01*
X015375Y011227D02*
X015387Y011257D01*
X015364Y011187D02*
X015375Y011227D01*
X015356Y011136D02*
X015364Y011187D01*
X014744Y011136D02*
X014749Y011076D01*
X0156Y009845D02*
Y0113D01*
X0158Y009762D02*
Y0113D01*
X0154Y010045D02*
Y011277D01*
X015351Y011076D02*
X015356Y011136D01*
X015348Y011D02*
X01725D01*
X015349Y011005D02*
X015351Y011076D01*
X014749D02*
X014751Y011005D01*
X015347Y010098D02*
Y010996D01*
X014753Y010098D02*
Y010996D01*
X014713Y011257D02*
X014725Y011227D01*
X014736Y011187D01*
X01415Y0113D02*
X014645D01*
X014736Y011187D02*
X014744Y011136D01*
X00882Y0112D02*
X014732D01*
X01415Y0113D02*
Y0125D01*
X00882Y0118D02*
X01415D01*
X00882Y0114D02*
X01415D01*
X00882Y0116D02*
X01415D01*
X0144Y009017D02*
Y0113D01*
X0142Y009017D02*
Y0113D01*
X0146Y009017D02*
Y0113D01*
X00882Y011D02*
X014752D01*
X0136Y009017D02*
Y02875D01*
X0134Y009017D02*
Y02875D01*
X014Y009017D02*
Y02875D01*
X0138Y009017D02*
Y02875D01*
X015347Y0106D02*
X01725D01*
X015347Y0104D02*
X01725D01*
X015347Y0108D02*
X01725D01*
X015445Y01D02*
X01725D01*
X015347Y0102D02*
X01725D01*
X015645Y0098D02*
X01725D01*
X015347Y010098D02*
X015683Y009762D01*
Y009168D02*
X01725D01*
X015683Y009762D02*
X01725D01*
X0156Y009017D02*
Y009168D01*
X015387D02*
X015683D01*
X0158Y009017D02*
Y009168D01*
X015387D02*
X015683D01*
X015238Y009317D02*
X015387Y009168D01*
X0152Y009017D02*
Y009355D01*
X0154Y009017D02*
Y009168D01*
X015238Y009317D02*
X015387Y009168D01*
X014753Y009802D02*
Y010098D01*
Y009802D02*
Y010098D01*
X010789Y01D02*
X014753D01*
Y009802D02*
X014902Y009653D01*
X010789Y0098D02*
X014755D01*
X010583Y0106D02*
X014753D01*
X00882Y0108D02*
X014753D01*
X010789Y0102D02*
X014753D01*
X010783Y0104D02*
X014753D01*
X014902Y009653D02*
X015238Y009317D01*
X010583Y0094D02*
X015155D01*
X00882Y009017D02*
X01725D01*
X00882Y0092D02*
X015355D01*
X0148Y009017D02*
Y009755D01*
X014753Y009802D02*
X014902Y009653D01*
X015Y009017D02*
Y009555D01*
X010783Y0096D02*
X014955D01*
X0112Y009017D02*
Y02875D01*
X0114Y009017D02*
Y02875D01*
X011Y009017D02*
Y02875D01*
X0108Y009017D02*
Y02875D01*
X0106Y010512D02*
Y010583D01*
Y02875D01*
X0104Y010783D02*
Y02875D01*
X010512Y0106D02*
X010583D01*
X0104Y01068D02*
Y010783D01*
X0126Y009017D02*
Y02875D01*
X0128Y009017D02*
Y02875D01*
X0124Y009017D02*
Y02875D01*
X0132Y009017D02*
Y02875D01*
X013Y009017D02*
Y02875D01*
X0118Y009017D02*
Y02875D01*
X0116Y009017D02*
Y02875D01*
X0122Y009017D02*
Y02875D01*
X012Y009017D02*
Y02875D01*
X01Y010789D02*
Y024391D01*
X0102Y010789D02*
Y024539D01*
X0098Y010789D02*
Y024391D01*
X01Y010789D02*
X010394D01*
X009606D02*
X01D01*
X0096Y01068D02*
Y010783D01*
Y024407D01*
X009417Y0106D02*
X009488D01*
X00882D02*
X009417D01*
X009211Y010394D02*
X009606Y010789D01*
X010394D02*
X010789Y010394D01*
X009Y009017D02*
Y02875D01*
X00882Y009017D02*
Y02875D01*
X0094Y010583D02*
Y024607D01*
X0092Y009017D02*
Y02875D01*
X010789Y01D02*
Y010394D01*
Y009606D02*
Y01D01*
X01068Y0104D02*
X010783D01*
X01068Y0096D02*
X010783D01*
X0106Y009417D02*
Y009488D01*
X010512Y0094D02*
X010583D01*
X0104Y009217D02*
Y00932D01*
X01Y009211D02*
X010394D01*
X0106Y009017D02*
Y009417D01*
X010394Y009211D02*
X010789Y009606D01*
X0104Y009017D02*
Y009217D01*
X0102Y009017D02*
Y009211D01*
X0098Y009017D02*
Y009211D01*
X0096Y009017D02*
Y009217D01*
X01Y009017D02*
Y009211D01*
X009606D02*
X01D01*
X0094Y010512D02*
Y010583D01*
X009217Y0104D02*
X00932D01*
X00882D02*
X009217D01*
Y0096D02*
X00932D01*
X00882Y0102D02*
X009211D01*
Y009606D02*
Y01D01*
Y010394D01*
X00882Y0098D02*
X009211D01*
X00882Y01D02*
X009211D01*
Y009606D02*
X009606Y009211D01*
X0096Y009217D02*
Y00932D01*
X009417Y0094D02*
X009488D01*
X0094Y009417D02*
Y009488D01*
X00882Y0096D02*
X009217D01*
X0094Y009017D02*
Y009417D01*
X00882Y0094D02*
X009417D01*
D70*
X03335Y0232D02*
Y024218D01*
X033382Y02425D01*
X0373Y0209D02*
Y02255D01*
X02765Y0136D02*
X03395D01*
Y012252D02*
Y0136D01*
X02695Y0129D02*
X02765Y0136D01*
X02695Y01225D02*
Y0129D01*
X0261Y01225D02*
X02695D01*
X025406Y012944D02*
X0261Y01225D01*
X025406Y012944D02*
Y014574D01*
X04065Y02025D02*
Y02325D01*
Y02025D02*
X040746Y020154D01*
D71*
X042Y02845D02*
X04205Y0285D01*
X0332Y02845D02*
X042D01*
X04075Y0103D02*
Y01415D01*
X03493Y009465D02*
X039915D01*
X02798D02*
X03493D01*
X015535D02*
X02103D01*
X009068Y02895D02*
X0445Y02895D01*
X02465Y02845D02*
X0332D01*
X0188Y02275D02*
Y026919D01*
X018569Y02715D02*
X0188Y026919D01*
X01785Y02715D02*
X018569D01*
X0178Y0272D02*
X01785Y02715D01*
X019081Y009581D02*
Y010831D01*
X018975Y009475D02*
X019081Y009581D01*
X01505Y00995D02*
X015535Y009465D01*
X039915D02*
X04075Y0103D01*
X02796Y009445D02*
X02798Y009465D01*
X02356Y009445D02*
X02796D01*
X02354Y009425D02*
X02356Y009445D01*
X02103Y009465D02*
X02107Y009425D01*
X02354D01*
X0442Y02215D02*
X0442Y02215D01*
X044199Y02345D02*
X0442Y02345D01*
X0442Y01535D02*
Y02215D01*
X01985Y0219D02*
Y0247D01*
X034862Y009633D02*
X03495Y009545D01*
X019081Y010831D02*
X0191Y01085D01*
X01505Y00995D02*
Y0119D01*
X03742Y009545D02*
X03744Y009525D01*
X043Y01415D02*
X0442Y01535D01*
X04075Y01415D02*
X043D01*
D72*
X0213Y0238D02*
X02215Y02295D01*
X0242Y01785D02*
Y0219D01*
X02215Y02395D02*
X0242Y0219D01*
X02215Y02395D02*
Y02515D01*
X03975Y023999D02*
X04365D01*
X03975Y0236D02*
Y023999D01*
X04365D02*
X044199Y02345D01*
X0254Y0239D02*
X02965D01*
X03065Y0241D02*
Y0252D01*
X02965Y0231D02*
X03065Y0241D01*
X02605Y0231D02*
X02965D01*
X03065Y0252D02*
X03115Y0257D01*
X0247Y02175D02*
X02605Y0231D01*
X0247Y0173D02*
Y02175D01*
X03825Y02285D02*
X0398Y0244D01*
X02625Y02285D02*
X03825D01*
X02515Y02175D02*
X02625Y02285D01*
X02515Y0165D02*
Y02175D01*
X03115Y0257D02*
X03175D01*
X04085Y01805D02*
X0429D01*
X040749Y018151D02*
X04085Y01805D01*
X0429D02*
X04365Y0188D01*
Y022999D01*
X043199Y02345D02*
X04365Y022999D01*
X0398Y02525D02*
X04025Y0257D01*
X04105D01*
X0398Y0244D02*
Y02525D01*
X02215Y02515D02*
X0227Y0257D01*
X02285D01*
D73*
X0442Y02215D02*
Y02345D01*
D74*
X043199Y02345D02*
D03*
X044199Y02345D02*
D03*
X0178Y0282D02*
D03*
X0178Y0272D02*
D03*
X01775Y02555D02*
D03*
X01775Y02455D02*
D03*
D75*
X03835Y03105D02*
D03*
X04315Y03585D02*
D03*
X04075Y03005D02*
D03*
X03835Y03585D02*
D03*
X04315Y03105D02*
D03*
X029083D02*
D03*
X033883Y03585D02*
D03*
X031483Y03005D02*
D03*
X029083Y03585D02*
D03*
X033883Y03105D02*
D03*
X019817D02*
D03*
X024617Y03585D02*
D03*
X022217Y03005D02*
D03*
X019817Y03585D02*
D03*
X024617Y03105D02*
D03*
X0145Y0385D02*
D03*
X021617D02*
D03*
X028733D02*
D03*
X03585D02*
D03*
D76*
X0175D02*
D03*
X024617D02*
D03*
X031733D02*
D03*
X03885D02*
D03*
D77*
X04015Y02665D02*
D03*
X0312D02*
D03*
X02225Y026659D02*
D03*
D78*
X04015Y02765D02*
D03*
X0312D02*
D03*
X02225Y027659D02*
D03*
D79*
X04105Y0247D02*
D03*
X03175D02*
D03*
X02285D02*
D03*
D80*
X04105Y0257D02*
D03*
X03805D02*
D03*
Y0247D02*
D03*
X03175Y0257D02*
D03*
X02875D02*
D03*
Y0247D02*
D03*
X02285Y0257D02*
D03*
X01985D02*
D03*
Y0247D02*
D03*
D81*
X01705Y0134D02*
D03*
D82*
X01505Y0119D02*
D03*
Y0144D02*
D03*
D83*
X01385Y0364D02*
D03*
X011882D02*
D03*
D84*
X015897Y024825D02*
D03*
X009834D02*
D03*
D85*
X03499Y011375D02*
D03*
X03744Y009425D02*
D03*
X03747Y011345D02*
D03*
X03493Y009465D02*
D03*
X02109Y011375D02*
D03*
X02354Y009425D02*
D03*
X02357Y011345D02*
D03*
X02103Y009465D02*
D03*
X02804Y011375D02*
D03*
X03049Y009425D02*
D03*
X03052Y011345D02*
D03*
X02798Y009465D02*
D03*
D86*
X0422Y02215D02*
D03*
X0432D02*
D03*
D87*
X0442D02*
D03*
D88*
X0181Y01085D02*
D03*
D89*
X0191D02*
D03*
D90*
X040704Y016099D02*
D03*
X040704Y0181D02*
D03*
X0407Y020103D02*
D03*
D91*
X040704Y014099D02*
D03*
D92*
X043465Y041496D02*
D03*
Y01D02*
D03*
X01Y041496D02*
D03*
Y01D02*
D03*
D93*
X03335Y0232D02*
D03*
X0213Y0238D02*
D03*
X02215Y02295D02*
D03*
X03975Y0236D02*
D03*
X04205Y0285D02*
D03*
X033382Y02425D02*
D03*
X0373Y02255D02*
D03*
Y0209D02*
D03*
X02965Y0239D02*
D03*
X0254D02*
D03*
X03395Y012252D02*
D03*
X02695Y01225D02*
D03*
X025406Y014574D02*
D03*
X04065Y02325D02*
D03*
X0332Y02845D02*
D03*
X02465D02*
D03*
X02515Y0165D02*
D03*
X0247Y0173D02*
D03*
X0242Y01785D02*
D03*
X01985Y0219D02*
D03*
X0188Y02275D02*
D03*
D94*
X031483Y03005D02*
Y03565D01*
X0119Y037808D02*
X012592Y0385D01*
X0119Y036418D02*
Y037808D01*
X011882Y0364D02*
X0119Y036418D01*
X012592Y0385D02*
X0145D01*
X01665Y0364D02*
X017491Y037241D01*
Y038491D01*
X0175Y0385D01*
X01385Y0364D02*
X01665D01*
X03885Y0384D02*
X04245D01*
X043146Y037704D01*
Y035854D02*
Y037704D01*
Y035854D02*
X04315Y03585D01*
X03585Y03495D02*
Y0384D01*
Y03495D02*
X0373Y0335D01*
X03955D01*
X040746Y032304D01*
Y030054D02*
Y032304D01*
Y030054D02*
X04075Y03005D01*
X03388Y035854D02*
X033883Y03585D01*
X03388Y035854D02*
Y036254D01*
X031733Y0384D02*
X03388Y036254D01*
X028733Y0384D02*
X031483Y03565D01*
X024617Y03585D02*
Y0384D01*
X021617Y036028D02*
X022217Y035428D01*
Y03005D02*
Y035428D01*
X021617Y036028D02*
Y0384D01*
M02*
