G04*
G04 #@! TF.GenerationSoftware,Altium Limited,Altium Designer,19.0.12 (326)*
G04*
G04 Layer_Color=8388736*
%FSTAX24Y24*%
%MOIN*%
G70*
G01*
G75*
%ADD36R,0.0867X0.0474*%
%ADD37R,0.0316X0.0395*%
%ADD38R,0.0395X0.0316*%
%ADD39R,0.0415X0.0552*%
%ADD40R,0.0780X0.0780*%
%ADD41R,0.0867X0.0592*%
%ADD42R,0.2832X0.4332*%
%ADD43R,0.1064X0.0501*%
%ADD44R,0.0926X0.0474*%
%ADD45R,0.0926X0.1379*%
%ADD46R,0.0867X0.0513*%
%ADD47R,0.0867X0.0474*%
%ADD48R,0.2049X0.0986*%
%ADD49R,0.0780X0.0780*%
%ADD50C,0.0780*%
%ADD51C,0.1280*%
%ADD52R,0.1280X0.1280*%
%ADD53O,0.1080X0.0730*%
%ADD54R,0.1080X0.0730*%
%ADD55R,0.0980X0.0680*%
%ADD56O,0.0980X0.0680*%
%ADD57R,0.1080X0.1680*%
%ADD58R,0.1680X0.1080*%
%ADD59C,0.0680*%
%ADD60C,0.0749*%
%ADD61C,0.0830*%
%ADD62C,0.0710*%
%ADD63R,0.0710X0.0710*%
%ADD64R,0.0730X0.1080*%
%ADD65O,0.0730X0.1080*%
%ADD66O,0.1280X0.1180*%
%ADD67R,0.1280X0.1180*%
%ADD68C,0.1458*%
%ADD69C,0.0316*%
D36*
X027447Y020086D02*
D03*
Y019299D02*
D03*
Y018511D02*
D03*
Y017724D02*
D03*
Y016937D02*
D03*
Y016149D02*
D03*
Y015362D02*
D03*
Y014574D02*
D03*
X033353D02*
D03*
Y015362D02*
D03*
Y016149D02*
D03*
Y016937D02*
D03*
Y017724D02*
D03*
Y018511D02*
D03*
Y019299D02*
D03*
Y020086D02*
D03*
D37*
X043976Y02435D02*
D03*
X043424D02*
D03*
X034776D02*
D03*
X034224D02*
D03*
X03825Y02755D02*
D03*
X037764D02*
D03*
X038326Y02685D02*
D03*
X037774D02*
D03*
X029476D02*
D03*
X028924D02*
D03*
X02945Y02755D02*
D03*
X028964D02*
D03*
X020074Y02685D02*
D03*
X020626D02*
D03*
X030538Y012252D02*
D03*
X03109D02*
D03*
X02855Y01225D02*
D03*
X028064D02*
D03*
X023624Y012252D02*
D03*
X024176D02*
D03*
X02155Y01225D02*
D03*
X021064D02*
D03*
X037674Y012252D02*
D03*
X038226D02*
D03*
X0354Y01225D02*
D03*
X034914D02*
D03*
X01876Y01235D02*
D03*
X018274D02*
D03*
X02613Y0246D02*
D03*
X025578D02*
D03*
X020586Y02755D02*
D03*
X0201D02*
D03*
X025725Y0201D02*
D03*
X026212D02*
D03*
X025728Y0185D02*
D03*
X026214D02*
D03*
X026251Y02135D02*
D03*
X0257D02*
D03*
D38*
X04215Y02425D02*
D03*
Y024736D02*
D03*
Y0255D02*
D03*
Y025986D02*
D03*
X0328Y02425D02*
D03*
Y024736D02*
D03*
Y0255D02*
D03*
Y025986D02*
D03*
X02405D02*
D03*
Y0255D02*
D03*
Y02425D02*
D03*
Y024736D02*
D03*
X01402Y023526D02*
D03*
Y022974D02*
D03*
X01322D02*
D03*
Y023526D02*
D03*
X01325Y021676D02*
D03*
Y021124D02*
D03*
X01405Y021676D02*
D03*
Y021124D02*
D03*
X0345Y018764D02*
D03*
Y01925D02*
D03*
X03475Y014714D02*
D03*
Y0152D02*
D03*
D39*
X0344Y026092D02*
D03*
X034028Y02511D02*
D03*
X034786Y025108D02*
D03*
X025854Y026392D02*
D03*
X025482Y02541D02*
D03*
X02624Y025408D02*
D03*
X044088Y025108D02*
D03*
X04333Y02511D02*
D03*
X043702Y026092D02*
D03*
D40*
X042094Y02715D02*
D03*
X043866D02*
D03*
X033044D02*
D03*
X034816D02*
D03*
X023994D02*
D03*
X025766D02*
D03*
D41*
X01655Y018716D02*
D03*
Y016984D02*
D03*
D42*
X0104Y01815D02*
D03*
D43*
X01498Y019479D02*
D03*
Y018809D02*
D03*
Y01814D02*
D03*
Y017471D02*
D03*
Y016801D02*
D03*
D44*
X011802Y021144D02*
D03*
Y02205D02*
D03*
Y022956D02*
D03*
D45*
X009498Y02205D02*
D03*
D46*
X012475Y0142D02*
D03*
X015025Y0219D02*
D03*
D47*
X009325Y0142D02*
D03*
X018175Y0219D02*
D03*
D48*
X0197Y0148D02*
D03*
X01975Y019711D02*
D03*
D49*
X0359Y019484D02*
D03*
Y021256D02*
D03*
D50*
X043199Y02345D02*
D03*
X044199Y02345D02*
D03*
X0178Y0282D02*
D03*
X0178Y0272D02*
D03*
X01775Y02555D02*
D03*
X01775Y02455D02*
D03*
D51*
X03835Y03105D02*
D03*
X04315Y03585D02*
D03*
X04075Y03005D02*
D03*
X03835Y03585D02*
D03*
X04315Y03105D02*
D03*
X029083D02*
D03*
X033883Y03585D02*
D03*
X031483Y03005D02*
D03*
X029083Y03585D02*
D03*
X033883Y03105D02*
D03*
X019817D02*
D03*
X024617Y03585D02*
D03*
X022217Y03005D02*
D03*
X019817Y03585D02*
D03*
X024617Y03105D02*
D03*
X0145Y0385D02*
D03*
X021617D02*
D03*
X028733D02*
D03*
X03585D02*
D03*
D52*
X0175D02*
D03*
X024617D02*
D03*
X031733D02*
D03*
X03885D02*
D03*
D53*
X04015Y02665D02*
D03*
X0312D02*
D03*
X02225Y026659D02*
D03*
D54*
X04015Y02765D02*
D03*
X0312D02*
D03*
X02225Y027659D02*
D03*
D55*
X04105Y0247D02*
D03*
X03175D02*
D03*
X02285D02*
D03*
D56*
X04105Y0257D02*
D03*
X03805D02*
D03*
Y0247D02*
D03*
X03175Y0257D02*
D03*
X02875D02*
D03*
Y0247D02*
D03*
X02285Y0257D02*
D03*
X01985D02*
D03*
Y0247D02*
D03*
D57*
X01705Y0134D02*
D03*
D58*
X01505Y0119D02*
D03*
Y0144D02*
D03*
D59*
X01385Y0364D02*
D03*
X011882D02*
D03*
D60*
X015897Y024825D02*
D03*
X009834D02*
D03*
D61*
X03499Y011375D02*
D03*
X03744Y009425D02*
D03*
X03747Y011345D02*
D03*
X03493Y009465D02*
D03*
X02109Y011375D02*
D03*
X02354Y009425D02*
D03*
X02357Y011345D02*
D03*
X02103Y009465D02*
D03*
X02804Y011375D02*
D03*
X03049Y009425D02*
D03*
X03052Y011345D02*
D03*
X02798Y009465D02*
D03*
D62*
X0422Y02215D02*
D03*
X0432D02*
D03*
D63*
X0442D02*
D03*
D64*
X0181Y01085D02*
D03*
D65*
X0191D02*
D03*
D66*
X040704Y016099D02*
D03*
X040704Y0181D02*
D03*
X0407Y020103D02*
D03*
D67*
X040704Y014099D02*
D03*
D68*
X043465Y041496D02*
D03*
Y01D02*
D03*
X01Y041496D02*
D03*
Y01D02*
D03*
D69*
X03335Y0232D02*
D03*
X0213Y0238D02*
D03*
X02215Y02295D02*
D03*
X03975Y0236D02*
D03*
X04205Y0285D02*
D03*
X033382Y02425D02*
D03*
X0373Y02255D02*
D03*
Y0209D02*
D03*
X02965Y0239D02*
D03*
X0254D02*
D03*
X03395Y012252D02*
D03*
X02695Y01225D02*
D03*
X025406Y014574D02*
D03*
X04065Y02325D02*
D03*
X0332Y02845D02*
D03*
X02465D02*
D03*
X02515Y0165D02*
D03*
X0247Y0173D02*
D03*
X0242Y01785D02*
D03*
X01985Y0219D02*
D03*
X0188Y02275D02*
D03*
M02*
