G04*
G04 #@! TF.GenerationSoftware,Altium Limited,Altium Designer,19.0.12 (326)*
G04*
G04 Layer_Color=8421504*
%FSTAX24Y24*%
%MOIN*%
G70*
G01*
G75*
%ADD22R,0.0787X0.0394*%
%ADD23R,0.0236X0.0315*%
%ADD24R,0.0315X0.0236*%
%ADD25R,0.0335X0.0472*%
%ADD26R,0.0700X0.0700*%
%ADD27R,0.0787X0.0512*%
%ADD28R,0.2752X0.4252*%
%ADD29R,0.0984X0.0421*%
%ADD30R,0.0846X0.0394*%
%ADD31R,0.0846X0.1299*%
%ADD32R,0.0787X0.0433*%
%ADD33R,0.0787X0.0394*%
%ADD34R,0.1969X0.0906*%
%ADD35R,0.0700X0.0700*%
D22*
X027447Y020086D02*
D03*
Y019299D02*
D03*
Y018511D02*
D03*
Y017724D02*
D03*
Y016937D02*
D03*
Y016149D02*
D03*
Y015362D02*
D03*
Y014574D02*
D03*
X033353D02*
D03*
Y015362D02*
D03*
Y016149D02*
D03*
Y016937D02*
D03*
Y017724D02*
D03*
Y018511D02*
D03*
Y019299D02*
D03*
Y020086D02*
D03*
D23*
X043976Y02435D02*
D03*
X043424D02*
D03*
X034776D02*
D03*
X034224D02*
D03*
X03825Y02755D02*
D03*
X037764D02*
D03*
X038326Y02685D02*
D03*
X037774D02*
D03*
X029476D02*
D03*
X028924D02*
D03*
X02945Y02755D02*
D03*
X028964D02*
D03*
X020074Y02685D02*
D03*
X020626D02*
D03*
X030538Y012252D02*
D03*
X03109D02*
D03*
X02855Y01225D02*
D03*
X028064D02*
D03*
X023624Y012252D02*
D03*
X024176D02*
D03*
X02155Y01225D02*
D03*
X021064D02*
D03*
X037674Y012252D02*
D03*
X038226D02*
D03*
X0354Y01225D02*
D03*
X034914D02*
D03*
X01876Y01235D02*
D03*
X018274D02*
D03*
X02613Y0246D02*
D03*
X025578D02*
D03*
X020586Y02755D02*
D03*
X0201D02*
D03*
X025725Y0201D02*
D03*
X026212D02*
D03*
X025728Y0185D02*
D03*
X026214D02*
D03*
X026251Y02135D02*
D03*
X0257D02*
D03*
D24*
X04215Y02425D02*
D03*
Y024736D02*
D03*
Y0255D02*
D03*
Y025986D02*
D03*
X0328Y02425D02*
D03*
Y024736D02*
D03*
Y0255D02*
D03*
Y025986D02*
D03*
X02405D02*
D03*
Y0255D02*
D03*
Y02425D02*
D03*
Y024736D02*
D03*
X01402Y023526D02*
D03*
Y022974D02*
D03*
X01322D02*
D03*
Y023526D02*
D03*
X01325Y021676D02*
D03*
Y021124D02*
D03*
X01405Y021676D02*
D03*
Y021124D02*
D03*
X0345Y018764D02*
D03*
Y01925D02*
D03*
X03475Y014714D02*
D03*
Y0152D02*
D03*
D25*
X0344Y026092D02*
D03*
X034028Y02511D02*
D03*
X034786Y025108D02*
D03*
X025854Y026392D02*
D03*
X025482Y02541D02*
D03*
X02624Y025408D02*
D03*
X044088Y025108D02*
D03*
X04333Y02511D02*
D03*
X043702Y026092D02*
D03*
D26*
X042094Y02715D02*
D03*
X043866D02*
D03*
X033044D02*
D03*
X034816D02*
D03*
X023994D02*
D03*
X025766D02*
D03*
D27*
X01655Y018716D02*
D03*
Y016984D02*
D03*
D28*
X0104Y01815D02*
D03*
D29*
X01498Y019479D02*
D03*
Y018809D02*
D03*
Y01814D02*
D03*
Y017471D02*
D03*
Y016801D02*
D03*
D30*
X011802Y021144D02*
D03*
Y02205D02*
D03*
Y022956D02*
D03*
D31*
X009498Y02205D02*
D03*
D32*
X012475Y0142D02*
D03*
X015025Y0219D02*
D03*
D33*
X009325Y0142D02*
D03*
X018175Y0219D02*
D03*
D34*
X0197Y0148D02*
D03*
X01975Y019711D02*
D03*
D35*
X0359Y019484D02*
D03*
Y021256D02*
D03*
M02*
