G04*
G04 #@! TF.GenerationSoftware,Altium Limited,Altium Designer,19.0.12 (326)*
G04*
G04 Layer_Color=128*
%FSTAX24Y24*%
%MOIN*%
G70*
G01*
G75*
%ADD100C,0.0020*%
D100*
X042999Y02345D02*
X043399D01*
X043199Y02325D02*
Y02365D01*
X043999Y02345D02*
X044399D01*
X044199Y02325D02*
Y02365D01*
X038125Y03105D02*
X038575D01*
X03835Y030825D02*
Y031275D01*
X042925Y03585D02*
X043375D01*
X04315Y035625D02*
Y036075D01*
X040525Y03005D02*
X040975D01*
X04075Y029825D02*
Y030275D01*
X038125Y03585D02*
X038575D01*
X03835Y035625D02*
Y036075D01*
X042925Y03105D02*
X043375D01*
X04315Y030825D02*
Y031275D01*
X028858Y03105D02*
X029308D01*
X029083Y030825D02*
Y031275D01*
X033658Y03585D02*
X034108D01*
X033883Y035625D02*
Y036075D01*
X031258Y03005D02*
X031708D01*
X031483Y029825D02*
Y030275D01*
X028858Y03585D02*
X029308D01*
X029083Y035625D02*
Y036075D01*
X033658Y03105D02*
X034108D01*
X033883Y030825D02*
Y031275D01*
X019592Y03105D02*
X020042D01*
X019817Y030825D02*
Y031275D01*
X024392Y03585D02*
X024842D01*
X024617Y035625D02*
Y036075D01*
X021992Y03005D02*
X022442D01*
X022217Y029825D02*
Y030275D01*
X019592Y03585D02*
X020042D01*
X019817Y035625D02*
Y036075D01*
X024392Y03105D02*
X024842D01*
X024617Y030825D02*
Y031275D01*
X014205Y0385D02*
X014795D01*
X0145Y038205D02*
Y038795D01*
X017205Y0385D02*
X017795D01*
X0175Y038205D02*
Y038795D01*
X03999Y02665D02*
X04031D01*
X04015Y02649D02*
Y02681D01*
X03999Y02765D02*
X04031D01*
X04015Y02749D02*
Y02781D01*
X03104Y02665D02*
X03136D01*
X0312Y02649D02*
Y02681D01*
X03104Y02765D02*
X03136D01*
X0312Y02749D02*
Y02781D01*
X040895Y0247D02*
X041205D01*
X04105Y024545D02*
Y024855D01*
X040895Y0257D02*
X041205D01*
X04105Y025545D02*
Y025855D01*
X037895Y0257D02*
X038205D01*
X03805Y025545D02*
Y025855D01*
X037895Y0247D02*
X038205D01*
X03805Y024545D02*
Y024855D01*
X031595Y0247D02*
X031905D01*
X03175Y024545D02*
Y024855D01*
X031595Y0257D02*
X031905D01*
X03175Y025545D02*
Y025855D01*
X028595Y0257D02*
X028905D01*
X02875Y025545D02*
Y025855D01*
X028595Y0247D02*
X028905D01*
X02875Y024545D02*
Y024855D01*
X02209Y026659D02*
X02241D01*
X02225Y026499D02*
Y026819D01*
X02209Y027659D02*
X02241D01*
X02225Y027499D02*
Y027819D01*
X0168Y0134D02*
X0173D01*
X01705Y01315D02*
Y01365D01*
X0148Y0119D02*
X0153D01*
X01505Y01165D02*
Y01215D01*
X0148Y0144D02*
X0153D01*
X01505Y01415D02*
Y01465D01*
X022695Y0247D02*
X023005D01*
X02285Y024545D02*
Y024855D01*
X022695Y0257D02*
X023005D01*
X02285Y025545D02*
Y025855D01*
X019695Y0257D02*
X020005D01*
X01985Y025545D02*
Y025855D01*
X019695Y0247D02*
X020005D01*
X01985Y024545D02*
Y024855D01*
X0176Y0282D02*
X018D01*
X0178Y028D02*
Y0284D01*
X0176Y0272D02*
X018D01*
X0178Y027D02*
Y0274D01*
X01755Y02555D02*
X01795D01*
X01775Y02535D02*
Y02575D01*
X01755Y02455D02*
X01795D01*
X01775Y02435D02*
Y02475D01*
X013633Y0364D02*
X014067D01*
X01385Y036183D02*
Y036617D01*
X011665Y0364D02*
X012098D01*
X011882Y036183D02*
Y036617D01*
X015681Y024825D02*
X016114D01*
X015897Y024609D02*
Y025042D01*
X009618Y024825D02*
X010051D01*
X009834Y024609D02*
Y025042D01*
X024321Y0385D02*
X024912D01*
X024617Y038205D02*
Y038795D01*
X021321Y0385D02*
X021912D01*
X021617Y038205D02*
Y038795D01*
X031438Y0385D02*
X032029D01*
X031733Y038205D02*
Y038795D01*
X028438Y0385D02*
X029029D01*
X028733Y038205D02*
Y038795D01*
X038555Y0385D02*
X039145D01*
X03885Y038205D02*
Y038795D01*
X035555Y0385D02*
X036145D01*
X03585Y038205D02*
Y038795D01*
X034835Y011375D02*
X035145D01*
X03499Y01122D02*
Y01153D01*
X037285Y009425D02*
X037595D01*
X03744Y00927D02*
Y00958D01*
X037315Y011345D02*
X037625D01*
X03747Y01119D02*
Y0115D01*
X034775Y009465D02*
X035085D01*
X03493Y00931D02*
Y00962D01*
X020935Y011375D02*
X021245D01*
X02109Y01122D02*
Y01153D01*
X023385Y009425D02*
X023695D01*
X02354Y00927D02*
Y00958D01*
X023415Y011345D02*
X023725D01*
X02357Y01119D02*
Y0115D01*
X020875Y009465D02*
X021185D01*
X02103Y00931D02*
Y00962D01*
X027885Y011375D02*
X028195D01*
X02804Y01122D02*
Y01153D01*
X030335Y009425D02*
X030645D01*
X03049Y00927D02*
Y00958D01*
X030365Y011345D02*
X030675D01*
X03052Y01119D02*
Y0115D01*
X027825Y009465D02*
X028135D01*
X02798Y00931D02*
Y00962D01*
X041983Y02215D02*
X042417D01*
X0422Y021933D02*
Y022367D01*
X042983Y02215D02*
X043417D01*
X0432Y021933D02*
Y022367D01*
X043983Y02215D02*
X044417D01*
X0442Y021933D02*
Y022367D01*
X01794Y01085D02*
X01826D01*
X0181Y01069D02*
Y01101D01*
X01894Y01085D02*
X01926D01*
X0191Y01069D02*
Y01101D01*
X040404Y016099D02*
X041004D01*
X040704Y015799D02*
Y016399D01*
X040404Y0181D02*
X041004D01*
X040704Y0178D02*
Y0184D01*
X0404Y020103D02*
X041D01*
X0407Y019803D02*
Y020403D01*
X040404Y014099D02*
X041004D01*
X040704Y013799D02*
Y014399D01*
X042776Y041496D02*
X044154D01*
X043465Y040807D02*
Y042185D01*
X042776Y01D02*
X044154D01*
X043465Y009311D02*
Y010689D01*
X009311Y041496D02*
X010689D01*
X01Y040807D02*
Y042185D01*
X009311Y01D02*
X010689D01*
X01Y009311D02*
Y010689D01*
X033291Y0232D02*
X033409D01*
X03335Y023141D02*
Y023259D01*
X021241Y0238D02*
X021359D01*
X0213Y023741D02*
Y023859D01*
X022091Y02295D02*
X022209D01*
X02215Y022891D02*
Y023009D01*
X039691Y0236D02*
X039809D01*
X03975Y023541D02*
Y023659D01*
X041991Y0285D02*
X042109D01*
X04205Y028441D02*
Y028559D01*
X033323Y02425D02*
X033441D01*
X033382Y024191D02*
Y024309D01*
X037241Y02255D02*
X037359D01*
X0373Y022491D02*
Y022609D01*
X037241Y0209D02*
X037359D01*
X0373Y020841D02*
Y020959D01*
X029591Y0239D02*
X029709D01*
X02965Y023841D02*
Y023959D01*
X025341Y0239D02*
X025459D01*
X0254Y023841D02*
Y023959D01*
X033891Y012252D02*
X034009D01*
X03395Y012193D02*
Y012311D01*
X026891Y01225D02*
X027009D01*
X02695Y012191D02*
Y012309D01*
X025347Y014574D02*
X025465D01*
X025406Y014515D02*
Y014633D01*
X040591Y02325D02*
X040709D01*
X04065Y023191D02*
Y023309D01*
X033141Y02845D02*
X033259D01*
X0332Y028391D02*
Y028509D01*
X024591Y02845D02*
X024709D01*
X02465Y028391D02*
Y028509D01*
X025091Y0165D02*
X025209D01*
X02515Y016441D02*
Y016559D01*
X024641Y0173D02*
X024759D01*
X0247Y017241D02*
Y017359D01*
X024141Y01785D02*
X024259D01*
X0242Y017791D02*
Y017909D01*
X019791Y0219D02*
X019909D01*
X01985Y021841D02*
Y021959D01*
X018741Y02275D02*
X018859D01*
X0188Y022691D02*
Y022809D01*
M02*
