G04*
G04 #@! TF.GenerationSoftware,Altium Limited,Altium Designer,19.0.12 (326)*
G04*
G04 Layer_Color=16711935*
%FSTAX24Y24*%
%MOIN*%
G70*
G01*
G75*
%ADD50C,0.0780*%
%ADD51C,0.1280*%
%ADD52R,0.1280X0.1280*%
%ADD53O,0.1080X0.0730*%
%ADD54R,0.1080X0.0730*%
%ADD55R,0.0980X0.0680*%
%ADD56O,0.0980X0.0680*%
%ADD57R,0.1080X0.1680*%
%ADD58R,0.1680X0.1080*%
%ADD59C,0.0680*%
%ADD60C,0.0749*%
%ADD61C,0.0830*%
%ADD62C,0.0710*%
%ADD63R,0.0710X0.0710*%
%ADD64R,0.0730X0.1080*%
%ADD65O,0.0730X0.1080*%
%ADD66O,0.1280X0.1180*%
%ADD67R,0.1280X0.1180*%
%ADD68C,0.1458*%
%ADD69C,0.0316*%
%ADD94C,0.1181*%
D50*
X043199Y02345D02*
D03*
X044199Y02345D02*
D03*
X0178Y0282D02*
D03*
X0178Y0272D02*
D03*
X01775Y02555D02*
D03*
X01775Y02455D02*
D03*
D51*
X03835Y03105D02*
D03*
X04315Y03585D02*
D03*
X04075Y03005D02*
D03*
X03835Y03585D02*
D03*
X04315Y03105D02*
D03*
X029083D02*
D03*
X033883Y03585D02*
D03*
X031483Y03005D02*
D03*
X029083Y03585D02*
D03*
X033883Y03105D02*
D03*
X019817D02*
D03*
X024617Y03585D02*
D03*
X022217Y03005D02*
D03*
X019817Y03585D02*
D03*
X024617Y03105D02*
D03*
X0145Y0385D02*
D03*
X021617D02*
D03*
X028733D02*
D03*
X03585D02*
D03*
D52*
X0175D02*
D03*
X024617D02*
D03*
X031733D02*
D03*
X03885D02*
D03*
D53*
X04015Y02665D02*
D03*
X0312D02*
D03*
X02225Y026659D02*
D03*
D54*
X04015Y02765D02*
D03*
X0312D02*
D03*
X02225Y027659D02*
D03*
D55*
X04105Y0247D02*
D03*
X03175D02*
D03*
X02285D02*
D03*
D56*
X04105Y0257D02*
D03*
X03805D02*
D03*
Y0247D02*
D03*
X03175Y0257D02*
D03*
X02875D02*
D03*
Y0247D02*
D03*
X02285Y0257D02*
D03*
X01985D02*
D03*
Y0247D02*
D03*
D57*
X01705Y0134D02*
D03*
D58*
X01505Y0119D02*
D03*
Y0144D02*
D03*
D59*
X01385Y0364D02*
D03*
X011882D02*
D03*
D60*
X015897Y024825D02*
D03*
X009834D02*
D03*
D61*
X03499Y011375D02*
D03*
X03744Y009425D02*
D03*
X03747Y011345D02*
D03*
X03493Y009465D02*
D03*
X02109Y011375D02*
D03*
X02354Y009425D02*
D03*
X02357Y011345D02*
D03*
X02103Y009465D02*
D03*
X02804Y011375D02*
D03*
X03049Y009425D02*
D03*
X03052Y011345D02*
D03*
X02798Y009465D02*
D03*
D62*
X0422Y02215D02*
D03*
X0432D02*
D03*
D63*
X0442D02*
D03*
D64*
X0181Y01085D02*
D03*
D65*
X0191D02*
D03*
D66*
X040704Y016099D02*
D03*
X040704Y0181D02*
D03*
X0407Y020103D02*
D03*
D67*
X040704Y014099D02*
D03*
D68*
X043465Y041496D02*
D03*
Y01D02*
D03*
X01Y041496D02*
D03*
Y01D02*
D03*
D69*
X03335Y0232D02*
D03*
X0213Y0238D02*
D03*
X02215Y02295D02*
D03*
X03975Y0236D02*
D03*
X04205Y0285D02*
D03*
X033382Y02425D02*
D03*
X0373Y02255D02*
D03*
Y0209D02*
D03*
X02965Y0239D02*
D03*
X0254D02*
D03*
X03395Y012252D02*
D03*
X02695Y01225D02*
D03*
X025406Y014574D02*
D03*
X04065Y02325D02*
D03*
X0332Y02845D02*
D03*
X02465D02*
D03*
X02515Y0165D02*
D03*
X0247Y0173D02*
D03*
X0242Y01785D02*
D03*
X01985Y0219D02*
D03*
X0188Y02275D02*
D03*
D94*
X03885Y0384D02*
X04245D01*
X04315Y0377D01*
Y03585D02*
Y0377D01*
X03815Y0335D02*
X0396D01*
X0397Y03335D02*
X04075Y0323D01*
Y03005D02*
Y0323D01*
X03735Y0335D02*
X0395D01*
X03585Y035D02*
X03735Y0335D01*
X03585Y035D02*
Y0384D01*
X033883Y03585D02*
Y036217D01*
X031733Y038367D02*
X033883Y036217D01*
X031733Y038367D02*
Y0384D01*
X028733D02*
X031483Y03565D01*
Y03005D02*
Y03565D01*
X0175Y03725D02*
Y0384D01*
X0174Y03715D02*
X0175Y03725D01*
X01665Y0364D02*
X0174Y03715D01*
X01385Y0364D02*
X01665D01*
X011882D02*
Y037782D01*
X01195Y03785D01*
X0126Y0385D01*
X0145D01*
X024617Y03585D02*
Y0384D01*
X0216Y03605D02*
Y038383D01*
Y03605D02*
X022217Y035433D01*
Y03005D02*
Y035433D01*
M02*
