G04*
G04 #@! TF.GenerationSoftware,Altium Limited,Altium Designer,19.0.12 (326)*
G04*
G04 Layer_Physical_Order=1*
G04 Layer_Color=255*
%FSTAX24Y24*%
%MOIN*%
G70*
G01*
G75*
%ADD18C,0.0080*%
%ADD22R,0.0787X0.0394*%
%ADD23R,0.0236X0.0315*%
%ADD24R,0.0315X0.0236*%
%ADD25R,0.0335X0.0472*%
%ADD26R,0.0700X0.0700*%
%ADD27R,0.0787X0.0512*%
%ADD28R,0.2752X0.4252*%
%ADD29R,0.0984X0.0421*%
%ADD30R,0.0846X0.0394*%
%ADD31R,0.0846X0.1299*%
%ADD32R,0.0787X0.0433*%
%ADD33R,0.0787X0.0394*%
%ADD34R,0.1969X0.0906*%
%ADD35R,0.0700X0.0700*%
%ADD70C,0.0276*%
%ADD71C,0.0394*%
%ADD72C,0.0118*%
%ADD73C,0.0787*%
%ADD74C,0.0700*%
%ADD75C,0.1200*%
%ADD76R,0.1200X0.1200*%
%ADD77O,0.1000X0.0650*%
%ADD78R,0.1000X0.0650*%
%ADD79R,0.0900X0.0600*%
%ADD80O,0.0900X0.0600*%
%ADD81R,0.1000X0.1600*%
%ADD82R,0.1600X0.1000*%
%ADD83C,0.0600*%
%ADD84C,0.0669*%
%ADD85C,0.0750*%
%ADD86C,0.0630*%
%ADD87R,0.0630X0.0630*%
%ADD88R,0.0650X0.1000*%
%ADD89O,0.0650X0.1000*%
%ADD90O,0.1200X0.1100*%
%ADD91R,0.1200X0.1100*%
%ADD92C,0.1378*%
%ADD93C,0.0236*%
G36*
X043528Y030577D02*
X04349Y030532D01*
X043456Y030485D01*
X043427Y030437D01*
X043403Y030388D01*
X043383Y030337D01*
X043367Y030285D01*
X043356Y030233D01*
X043349Y030179D01*
X043347Y030123D01*
X042953D01*
X042951Y030179D01*
X042944Y030233D01*
X042933Y030285D01*
X042917Y030337D01*
X042897Y030388D01*
X042873Y030437D01*
X042844Y030485D01*
X04281Y030532D01*
X042772Y030577D01*
X04273Y030622D01*
X04357D01*
X043528Y030577D01*
D02*
G37*
G36*
X034261D02*
X034223Y030532D01*
X03419Y030485D01*
X034161Y030437D01*
X034136Y030388D01*
X034116Y030337D01*
X0341Y030285D01*
X034089Y030233D01*
X034082Y030179D01*
X03408Y030123D01*
X033686D01*
X033684Y030179D01*
X033678Y030233D01*
X033666Y030285D01*
X033651Y030337D01*
X033631Y030388D01*
X033606Y030437D01*
X033577Y030485D01*
X033544Y030532D01*
X033506Y030577D01*
X033463Y030622D01*
X034303D01*
X034261Y030577D01*
D02*
G37*
G36*
X029461D02*
X029423Y030532D01*
X02939Y030485D01*
X029361Y030437D01*
X029336Y030388D01*
X029316Y030337D01*
X0293Y030285D01*
X029289Y030233D01*
X029282Y030179D01*
X02928Y030123D01*
X028886D01*
X028884Y030179D01*
X028878Y030233D01*
X028866Y030285D01*
X028851Y030337D01*
X028831Y030388D01*
X028806Y030437D01*
X028777Y030485D01*
X028744Y030532D01*
X028706Y030577D01*
X028663Y030622D01*
X029503D01*
X029461Y030577D01*
D02*
G37*
G36*
X024994D02*
X024956Y030532D01*
X024923Y030485D01*
X024894Y030437D01*
X024869Y030388D01*
X024849Y030337D01*
X024834Y030285D01*
X024822Y030233D01*
X024816Y030179D01*
X024814Y030123D01*
X02442D01*
X024418Y030179D01*
X024411Y030233D01*
X0244Y030285D01*
X024384Y030337D01*
X024364Y030388D01*
X024339Y030437D01*
X02431Y030485D01*
X024277Y030532D01*
X024239Y030577D01*
X024197Y030622D01*
X025037D01*
X024994Y030577D01*
D02*
G37*
G36*
X020225Y03061D02*
X020181Y030567D01*
X020143Y030523D01*
X020108Y030477D01*
X020079Y03043D01*
X020054Y030381D01*
X020033Y030331D01*
X020017Y03028D01*
X020006Y030227D01*
X019999Y030173D01*
X019997Y030118D01*
X019603Y030129D01*
X019601Y030184D01*
X019594Y030238D01*
X019584Y030291D01*
X019568Y030343D01*
X019549Y030394D01*
X019525Y030444D01*
X019496Y030493D01*
X019463Y030541D01*
X019426Y030588D01*
X019385Y030633D01*
X020225Y03061D01*
D02*
G37*
G36*
X038707Y03056D02*
X038661Y03051D01*
X03862Y030459D01*
X038585Y030409D01*
X038555Y030359D01*
X038531Y030308D01*
X038512Y030258D01*
X038499Y030207D01*
X038491Y030157D01*
X038488Y030106D01*
X038212D01*
X03821Y030157D01*
X038201Y030207D01*
X038188Y030258D01*
X038169Y030308D01*
X038145Y030359D01*
X038115Y030409D01*
X03808Y030459D01*
X038039Y03051D01*
X037993Y03056D01*
X037942Y03061D01*
X038758D01*
X038707Y03056D01*
D02*
G37*
G36*
X029284Y028966D02*
X029296Y028899D01*
X029316Y02884D01*
X029343Y028789D01*
X029379Y028745D01*
X029422Y02871D01*
X029473Y028682D01*
X029532Y028663D01*
X029599Y028651D01*
X029674Y028647D01*
Y028253D01*
X029599Y02825D01*
X029532Y028242D01*
X029473Y028228D01*
X029422Y028209D01*
X029379Y028184D01*
X029343Y028153D01*
X029316Y028117D01*
X029296Y028075D01*
X029284Y028028D01*
X02928Y027975D01*
X028886Y02845D01*
X02928Y029041D01*
X029284Y028966D01*
D02*
G37*
G36*
X0198Y028159D02*
X019939Y02802D01*
X019325Y027963D01*
X019378Y028019D01*
X019425Y028079D01*
X019467Y02814D01*
X019503Y028204D01*
X019534Y02827D01*
X019559Y028338D01*
X019578Y028409D01*
X019592Y028482D01*
X0196Y028557D01*
X019603Y028635D01*
X0198Y028159D01*
D02*
G37*
G36*
X017867Y027857D02*
X017858Y027854D01*
X017847Y027848D01*
X017834Y027839D01*
X017818Y027828D01*
X017781Y027797D01*
X017709Y027731D01*
X017681Y027703D01*
X017331Y02791D01*
X017358Y027938D01*
X017403Y027989D01*
X01742Y028013D01*
X017434Y028035D01*
X017445Y028056D01*
X017453Y028076D01*
X017458Y028094D01*
X01746Y02811D01*
X017458Y028126D01*
X017867Y027857D01*
D02*
G37*
G36*
X044681Y023534D02*
X044602Y023526D01*
X044586Y02361D01*
X044495Y023746D01*
X044423Y023794D01*
X044416Y023804D01*
X044396Y023818D01*
X04438Y023831D01*
X044367Y023845D01*
X044355Y023861D01*
X044345Y023879D01*
X044337Y0239D01*
X04433Y023922D01*
X044325Y023947D01*
X044322Y023975D01*
X044321Y024008D01*
X04432Y02401D01*
Y024207D01*
X044304Y024285D01*
X044261Y02435D01*
X044254Y024357D01*
X04427Y024381D01*
X044286Y024458D01*
Y024594D01*
X044287Y024596D01*
X044289Y024735D01*
X044294Y024797D01*
X044296Y024812D01*
X044315Y024812D01*
X044319Y024873D01*
X044315Y024882D01*
X044315Y02489D01*
Y025404D01*
X043861D01*
Y02489D01*
X043861Y024882D01*
X043857Y024873D01*
X043861Y024812D01*
X043871D01*
X043881Y024648D01*
X043881Y024646D01*
X043818Y024571D01*
X043808Y024567D01*
X043797D01*
Y024439D01*
X043789Y024427D01*
X043774Y02435D01*
X043789Y024273D01*
X043797Y024261D01*
Y024133D01*
X043908D01*
X043917Y024124D01*
Y023937D01*
X043915Y023934D01*
X043915Y023903D01*
X043909Y023842D01*
X043904Y023815D01*
X043898Y023788D01*
X043891Y023763D01*
X043882Y023738D01*
X043872Y023715D01*
X043861Y023692D01*
X043847Y023669D01*
X043846Y023658D01*
X043813Y02361D01*
X043781Y02345D01*
X043813Y02329D01*
X043904Y023154D01*
X044039Y023064D01*
X044199Y023032D01*
X044359Y023064D01*
X044495Y023154D01*
X044586Y02329D01*
X044602Y023374D01*
X044681Y023366D01*
Y01945D01*
X040973D01*
X040957Y019529D01*
X041058Y01957D01*
X041185Y019668D01*
X041283Y019796D01*
X041345Y019944D01*
X041366Y020103D01*
X041345Y020263D01*
X041283Y020411D01*
X041185Y020538D01*
X041058Y020636D01*
X04091Y020698D01*
X04075Y020719D01*
X04065D01*
X040491Y020698D01*
X040343Y020636D01*
X040215Y020538D01*
X040171Y02048D01*
X040167Y020479D01*
X040161Y020468D01*
X040118Y020411D01*
X040112Y020397D01*
X04009Y020386D01*
X040059Y020376D01*
X040021Y020368D01*
X039919Y020358D01*
X039857Y020357D01*
X039855Y020356D01*
X038904D01*
X038827Y02034D01*
X038761Y020297D01*
X037591Y019126D01*
X037589Y019125D01*
X037583Y01912D01*
X037583Y01912D01*
X037503Y019153D01*
X037503Y019153D01*
X037503Y019161D01*
X037502Y019163D01*
Y0209D01*
X037486Y020977D01*
X037443Y021043D01*
X037377Y021086D01*
X0373Y021102D01*
X037223Y021086D01*
X037157Y021043D01*
X037114Y020977D01*
X037098Y0209D01*
Y018975D01*
X037098Y018974D01*
X037098Y018974D01*
Y018969D01*
X037097Y018967D01*
X037095Y018918D01*
X037088Y01888D01*
X037078Y018849D01*
X037064Y018823D01*
X037047Y018803D01*
X037027Y018786D01*
X037001Y018772D01*
X03697Y018762D01*
X036932Y018755D01*
X036883Y018753D01*
X036881Y018752D01*
X034798D01*
X034717Y018832D01*
Y018942D01*
X034589D01*
X034577Y01895D01*
X0345Y018965D01*
X034423Y01895D01*
X034411Y018942D01*
X034283D01*
Y018586D01*
X034393D01*
X034445Y018534D01*
X03457Y018407D01*
X03457Y018407D01*
X03457Y018407D01*
X034575Y018405D01*
X034637Y018364D01*
X034714Y018348D01*
X0373D01*
X037377Y018364D01*
X037443Y018407D01*
X038987Y019952D01*
X039824D01*
X039825Y019952D01*
X039827Y019952D01*
X039828D01*
X03983Y019951D01*
X039892Y01995D01*
X039944Y019946D01*
X039989Y01994D01*
X040025Y019932D01*
X040052Y019922D01*
X040069Y019913D01*
X040118Y019796D01*
X040215Y019668D01*
X040343Y01957D01*
X040444Y019529D01*
X040428Y01945D01*
X0387D01*
X037189Y017939D01*
X0341D01*
X0341Y019068D01*
X034416D01*
X034423Y019064D01*
X0345Y019048D01*
X035273D01*
X035276Y019047D01*
X035276Y019047D01*
X035276Y019047D01*
X035328Y019047D01*
X035329Y019048D01*
X03533Y019048D01*
X035359Y019048D01*
X035666D01*
X035743Y019064D01*
X035759Y019074D01*
X03631D01*
Y019894D01*
X03549D01*
Y019539D01*
X035487Y019532D01*
X035485Y019514D01*
X035482Y019505D01*
X035477Y019498D01*
X035468Y019489D01*
X035453Y01948D01*
X035431Y019471D01*
X035402Y019464D01*
X035367Y019458D01*
X035324Y019454D01*
X035274Y019453D01*
X035272Y019452D01*
X034564D01*
X034557Y019456D01*
X03448Y019471D01*
X0341D01*
Y019885D01*
X034486D01*
X034563Y0199D01*
X034629Y019944D01*
X034843Y020157D01*
X034886Y020223D01*
X034902Y0203D01*
Y021616D01*
X035234Y021948D01*
X041724D01*
X041726Y021947D01*
X041757Y021946D01*
X041784Y021944D01*
X041809Y021941D01*
X041831Y021936D01*
X041852Y02193D01*
X041871Y021923D01*
X041888Y021915D01*
X041903Y021905D01*
X041916Y021895D01*
X041924Y021888D01*
X04193Y02188D01*
X042054Y021797D01*
X0422Y021768D01*
X042346Y021797D01*
X04247Y02188D01*
X042553Y022004D01*
X042582Y02215D01*
X042553Y022296D01*
X04247Y02242D01*
X042346Y022503D01*
X0422Y022532D01*
X042054Y022503D01*
X04193Y02242D01*
X041924Y022412D01*
X041916Y022405D01*
X041903Y022395D01*
X041888Y022385D01*
X041871Y022377D01*
X041852Y02237D01*
X041831Y022364D01*
X041809Y022359D01*
X041784Y022356D01*
X041757Y022353D01*
X041726Y022353D01*
X041724Y022352D01*
X037493D01*
X037488Y022357D01*
X037458Y02243D01*
X037486Y022473D01*
X037502Y02255D01*
Y023143D01*
X037486Y02322D01*
X037443Y023286D01*
X037386Y023343D01*
X03732Y023386D01*
X03729Y023392D01*
X037298Y023471D01*
X039622D01*
X039681Y023432D01*
X03975Y023418D01*
X03982Y023432D01*
X039878Y023472D01*
X039918Y02353D01*
X039932Y0236D01*
X039918Y02367D01*
X039878Y023728D01*
X03982Y023768D01*
X03975Y023782D01*
X039681Y023768D01*
X039622Y023729D01*
X034904D01*
Y024055D01*
X034954Y024133D01*
X034957Y024194D01*
X034957Y024195D01*
X034957Y024201D01*
X034954Y024207D01*
X034954Y024211D01*
Y024489D01*
X034954Y024493D01*
X034957Y024499D01*
X034957Y024505D01*
X034957Y024506D01*
X034954Y024567D01*
X03491Y024646D01*
Y024805D01*
X034911Y02481D01*
X034912Y024812D01*
X034912Y024812D01*
X035013D01*
Y025404D01*
X034559D01*
Y024812D01*
X03465D01*
X03465Y024812D01*
X034651Y02481D01*
X034652Y024805D01*
Y024574D01*
X034651Y02457D01*
X03465Y024568D01*
X03465Y024567D01*
X034597D01*
Y024211D01*
X034597Y024207D01*
X034594Y024201D01*
X034594Y024195D01*
X034594Y024194D01*
X034597Y024133D01*
X034647Y024055D01*
Y023779D01*
X032906D01*
X032889Y023786D01*
X032889Y023786D01*
X03259D01*
X032557Y023864D01*
X032751Y024058D01*
X0328Y024048D01*
X033382D01*
X033459Y024064D01*
X033524Y024107D01*
X033568Y024173D01*
X033584Y02425D01*
X033568Y024327D01*
X033524Y024393D01*
X033459Y024436D01*
X033382Y024452D01*
X0328D01*
X032723Y024436D01*
X032711Y024428D01*
X032583D01*
Y024313D01*
X032581Y02431D01*
X032582Y024305D01*
X03258Y0243D01*
X032583Y024294D01*
Y024261D01*
X032579Y024255D01*
X03257Y024241D01*
X032357Y024029D01*
X029781D01*
X029779Y02403D01*
X029779Y02403D01*
X029777Y024031D01*
X029776Y024032D01*
X029776Y024032D01*
X029775Y024032D01*
X029771Y024034D01*
X02972Y024068D01*
X02965Y024082D01*
X029581Y024068D01*
X029522Y024028D01*
X029482Y02397D01*
X029468Y0239D01*
X029475Y023864D01*
X029425Y023786D01*
X026258D01*
Y024383D01*
X026308D01*
X026308Y024817D01*
X026331Y024887D01*
X026369Y024978D01*
X026369Y024978D01*
Y025105D01*
X02637Y02511D01*
X026371Y025112D01*
X026371Y025112D01*
X026467D01*
Y025704D01*
X026013D01*
Y025112D01*
X026109D01*
X026109Y025112D01*
X02611Y02511D01*
X026111Y025105D01*
Y025032D01*
X026038Y024959D01*
X026003Y024875D01*
X025951Y024817D01*
X025951Y024817D01*
X025951Y024817D01*
Y024383D01*
X026001D01*
Y023754D01*
X025986Y023748D01*
X025986Y023748D01*
X025609Y023371D01*
X025571Y023279D01*
X025571Y023279D01*
Y023079D01*
X023467D01*
X023443Y023157D01*
X023443Y023158D01*
X023634Y023349D01*
X023637Y02335D01*
X023675Y023385D01*
X023712Y023416D01*
X023751Y023442D01*
X023791Y023465D01*
X023832Y023484D01*
X023875Y023499D01*
X02392Y023512D01*
X023966Y02352D01*
X024013Y023526D01*
X024065Y023528D01*
X024068Y023529D01*
X02523D01*
X025307Y023544D01*
X025373Y023588D01*
X025543Y023757D01*
X025586Y023823D01*
X025602Y0239D01*
X025586Y023977D01*
X025543Y024043D01*
X025477Y024086D01*
X0254Y024102D01*
X025323Y024086D01*
X025257Y024043D01*
X025147Y023932D01*
X024149D01*
X024147Y023933D01*
X024099Y023936D01*
X024092Y023937D01*
X024078Y023958D01*
X024107Y024044D01*
X024149Y024072D01*
X024267D01*
Y024428D01*
X024139D01*
X024127Y024436D01*
X02405Y024452D01*
X023973Y024436D01*
X023966Y024432D01*
X02373D01*
X023653Y024417D01*
X023588Y024373D01*
X023544Y024307D01*
X023529Y02423D01*
Y024068D01*
X023528Y024065D01*
X023526Y024013D01*
X02352Y023966D01*
X023512Y02392D01*
X023499Y023875D01*
X023484Y023832D01*
X023465Y023791D01*
X023442Y023751D01*
X023416Y023712D01*
X023385Y023675D01*
X02335Y023637D01*
X023349Y023634D01*
X023216Y023502D01*
X021008D01*
X021006Y023502D01*
X021004Y023502D01*
X0193D01*
Y023671D01*
X021172D01*
X02123Y023632D01*
X0213Y023618D01*
X02137Y023632D01*
X021428Y023672D01*
X021468Y02373D01*
X021482Y0238D01*
X021468Y02387D01*
X021428Y023928D01*
X02137Y023968D01*
X0213Y023982D01*
X02123Y023968D01*
X021172Y023929D01*
X0193D01*
Y024509D01*
X019379Y024533D01*
X01944Y02444D01*
X01956Y024361D01*
X0197Y024333D01*
X02D01*
X02014Y024361D01*
X02026Y02444D01*
X020339Y02456D01*
X020367Y0247D01*
X020339Y02484D01*
X02026Y02496D01*
X02014Y025039D01*
X02Y025067D01*
X0197D01*
X01956Y025039D01*
X01944Y02496D01*
X019379Y024867D01*
X0193Y024891D01*
Y025509D01*
X019379Y025533D01*
X01944Y02544D01*
X01956Y025361D01*
X0197Y025333D01*
X02D01*
X02014Y025361D01*
X02026Y02544D01*
X020339Y02556D01*
X020341Y025569D01*
X020342Y025569D01*
X020351Y025571D01*
X021622D01*
X022084Y025109D01*
X022084Y025109D01*
X022175Y025071D01*
X022175Y025071D01*
X022266D01*
X02234Y02506D01*
X02234Y024992D01*
Y02434D01*
X02336D01*
Y024606D01*
X023361Y024606D01*
X023366Y024607D01*
X023755D01*
X023833Y024558D01*
X023894Y024554D01*
X023895Y024555D01*
X023901Y024555D01*
X023907Y024558D01*
X023911Y024558D01*
X024267D01*
Y024914D01*
X023911D01*
X023907Y024914D01*
X023901Y024918D01*
X023895Y024917D01*
X023894Y024918D01*
X023833Y024914D01*
X023755Y024865D01*
X023438D01*
X02336Y024941D01*
Y024998D01*
X023369Y025065D01*
X023425Y025094D01*
X023461Y025109D01*
X023661Y025309D01*
X023661Y025309D01*
X023699Y0254D01*
X023699Y0254D01*
Y02581D01*
X023777Y025843D01*
X023833Y025808D01*
X023894Y025804D01*
X023895Y025805D01*
X023901Y025805D01*
X023907Y025808D01*
X023911Y025808D01*
X024267D01*
X024267Y026164D01*
X024335Y02619D01*
X025409D01*
X025411Y026189D01*
X025462Y026188D01*
X025506Y026186D01*
X025543Y026181D01*
X025574Y026176D01*
X025597Y026169D01*
X025613Y026162D01*
X025621Y026157D01*
X025623Y026155D01*
X025624Y026148D01*
X025627Y026142D01*
X025627Y026096D01*
X025688Y026092D01*
X02569Y026093D01*
X025697Y026093D01*
X025703Y026096D01*
X025705Y026096D01*
X026081D01*
Y026609D01*
X026083Y026611D01*
X026082Y02662D01*
X026085Y026627D01*
X026081Y026688D01*
X026139Y02674D01*
X026176D01*
Y027481D01*
X026176Y027485D01*
X026179Y02749D01*
X026179Y027497D01*
X02618Y027499D01*
X026176Y02756D01*
X026129Y02756D01*
X026124Y027563D01*
X026104Y027566D01*
X026096Y02757D01*
X026086Y027578D01*
X026074Y027595D01*
X026062Y027621D01*
X02605Y027657D01*
X026041Y027701D01*
X026029Y027821D01*
X026028Y027889D01*
Y0286D01*
X028821D01*
Y028083D01*
X028739Y028001D01*
X028682Y027916D01*
X028663Y027816D01*
X028663Y027816D01*
Y027058D01*
X028591Y027053D01*
X02839Y027053D01*
X028387Y027052D01*
X027911D01*
X027834Y027036D01*
X027769Y026993D01*
X027607Y026831D01*
X027564Y026766D01*
X027548Y026689D01*
Y02515D01*
X027564Y025073D01*
X027607Y025007D01*
X027995Y024619D01*
X028061Y024576D01*
X028131Y024562D01*
X028137Y024559D01*
X028204Y024558D01*
X028253Y024555D01*
X028265Y024553D01*
X02834Y02444D01*
X02846Y024361D01*
X0286Y024333D01*
X0289D01*
X02904Y024361D01*
X02916Y02444D01*
X029239Y02456D01*
X029267Y0247D01*
X029239Y02484D01*
X02916Y02496D01*
X02904Y025039D01*
X0289Y025067D01*
X0286D01*
X02846Y025039D01*
X02838Y024986D01*
X028378Y024986D01*
X028377Y024984D01*
X028368Y024978D01*
X028367Y024978D01*
X028355Y024975D01*
X028218Y024967D01*
X027952Y025234D01*
Y026605D01*
X027995Y026648D01*
X028387D01*
X02839Y026647D01*
X028546Y026647D01*
X028706Y026644D01*
X028746Y026642D01*
Y026633D01*
X028788D01*
X028824Y026608D01*
X028924Y026588D01*
X029025Y026608D01*
X029061Y026633D01*
X029103D01*
Y02666D01*
X02911Y026665D01*
X029166Y02675D01*
X029186Y02685D01*
Y027363D01*
X029265Y0274D01*
X029272Y027394D01*
Y027333D01*
X029549D01*
X029558Y027333D01*
X029567Y027329D01*
X029628Y027333D01*
Y027354D01*
X029793Y027367D01*
X029843Y027367D01*
X029845Y027368D01*
X030422D01*
X030424Y027367D01*
X030475Y027366D01*
X030519Y027363D01*
X030555Y027358D01*
X030586Y027352D01*
X030609Y027345D01*
X030624Y027338D01*
X030632Y027332D01*
X030635Y027329D01*
X030635Y027328D01*
X030637Y027317D01*
X03064Y027312D01*
X03064Y027265D01*
X030701Y027261D01*
X030703Y027262D01*
X03071Y027262D01*
X030715Y027265D01*
X030719Y027265D01*
X03176D01*
Y028035D01*
X03064D01*
Y027856D01*
X030638Y027852D01*
X030636Y027834D01*
X030633Y027825D01*
X030628Y027818D01*
X030619Y027809D01*
X030604Y0278D01*
X030582Y027791D01*
X030553Y027783D01*
X030517Y027777D01*
X030474Y027774D01*
X030424Y027772D01*
X030422Y027771D01*
X029845D01*
X029843Y027772D01*
X029842Y027772D01*
X029842Y027772D01*
X029597Y027771D01*
X02947D01*
X02945Y027767D01*
X029349D01*
X029306Y027846D01*
X029325Y027874D01*
X029344Y027966D01*
X029345Y027969D01*
X029345Y027969D01*
X029345Y02797D01*
X029348Y028017D01*
X029357Y028053D01*
X029371Y028083D01*
X029391Y028108D01*
X029416Y02813D01*
X02945Y02815D01*
X029492Y028166D01*
X029544Y028178D01*
X029604Y028186D01*
X029673Y028188D01*
X032783D01*
Y027889D01*
X032781Y027821D01*
X032777Y027757D01*
X03277Y027702D01*
X03276Y027657D01*
X032749Y027621D01*
X032737Y027595D01*
X032725Y027578D01*
X032715Y02757D01*
X032706Y027566D01*
X032687Y027563D01*
X032682Y02756D01*
X032634Y02756D01*
X032631Y027499D01*
X032632Y027497D01*
X032631Y02749D01*
X032634Y027485D01*
X032634Y027481D01*
Y02674D01*
X033454D01*
Y027481D01*
X033454Y027485D01*
X033458Y02749D01*
X033457Y027497D01*
X033458Y027499D01*
X033454Y02756D01*
X033407Y02756D01*
X033402Y027563D01*
X033383Y027566D01*
X033374Y02757D01*
X033364Y027578D01*
X033352Y027595D01*
X03334Y027621D01*
X033329Y027657D01*
X033319Y027701D01*
X033308Y027821D01*
X033306Y027889D01*
Y028186D01*
X033385Y028265D01*
X033385Y028265D01*
X033442Y02835D01*
X033462Y02845D01*
X033448Y028521D01*
X033466Y028561D01*
X033496Y0286D01*
X034554D01*
Y027889D01*
X034553Y027821D01*
X034549Y027757D01*
X034542Y027702D01*
X034532Y027657D01*
X034521Y027621D01*
X034508Y027595D01*
X034497Y027578D01*
X034487Y02757D01*
X034478Y027566D01*
X034459Y027563D01*
X034453Y02756D01*
X034406Y02756D01*
X034402Y027499D01*
X034403Y027497D01*
X034403Y02749D01*
X034406Y027485D01*
X034406Y027481D01*
Y02674D01*
X034561D01*
X034568Y026737D01*
X034586Y026735D01*
X034595Y026732D01*
X034602Y026727D01*
X034611Y026718D01*
X03462Y026703D01*
X034629Y026681D01*
X034636Y026652D01*
X034642Y026617D01*
X034646Y026574D01*
X034647Y026524D01*
X034648Y026522D01*
Y026458D01*
X034627Y026388D01*
X034566Y026392D01*
X034564Y026391D01*
X034557Y026391D01*
X034551Y026388D01*
X034458D01*
X034304Y026543D01*
X034238Y026586D01*
X034161Y026602D01*
X032434D01*
X032256Y026779D01*
X032191Y026823D01*
X032113Y026838D01*
X031957D01*
X031955Y026839D01*
X031953Y026839D01*
X031952Y026839D01*
X03188Y026841D01*
X031817Y026845D01*
X031763Y026851D01*
X031718Y02686D01*
X031693Y026867D01*
X031653Y026928D01*
X031613Y026954D01*
X031612Y026956D01*
X031607Y026958D01*
X031605Y026963D01*
X031597Y026965D01*
X031525Y027013D01*
X031375Y027043D01*
X031025D01*
X030875Y027013D01*
X03082Y026976D01*
X030805Y026972D01*
X030774Y026948D01*
X030743Y026928D01*
X030712Y026911D01*
X030679Y026895D01*
X030645Y026882D01*
X03061Y026872D01*
X030574Y026864D01*
X030536Y026858D01*
X030497Y026854D01*
X030454Y026853D01*
X030452Y026852D01*
X03037D01*
X030229Y026993D01*
X030164Y027036D01*
X030087Y027052D01*
X029872D01*
X029869Y027053D01*
X029694Y027056D01*
X029654Y027058D01*
X029654Y027067D01*
X0296Y027071D01*
X0296Y027071D01*
X029592Y027071D01*
X029583Y027067D01*
X029297D01*
Y026939D01*
X029289Y026927D01*
X029274Y02685D01*
X029289Y026773D01*
X029297Y026761D01*
Y026633D01*
X029575D01*
X029583Y026633D01*
X029592Y026629D01*
X0296Y026629D01*
X0296Y026629D01*
X029654Y026633D01*
Y026636D01*
X029818Y026647D01*
X029868Y026647D01*
X029871Y026648D01*
X030003D01*
X030144Y026507D01*
X030209Y026464D01*
X030287Y026448D01*
X030452D01*
X030454Y026447D01*
X030497Y026446D01*
X030536Y026442D01*
X030574Y026436D01*
X03061Y026428D01*
X030645Y026418D01*
X030679Y026405D01*
X030712Y026389D01*
X030743Y026372D01*
X030774Y026352D01*
X030805Y026328D01*
X03082Y026324D01*
X030875Y026287D01*
X031025Y026257D01*
X031375D01*
X031525Y026287D01*
X03158Y026324D01*
X031595Y026328D01*
X031623Y026349D01*
X03165Y026366D01*
X031679Y026382D01*
X03171Y026395D01*
X031743Y026407D01*
X031778Y026417D01*
X031815Y026424D01*
X031853Y026429D01*
X031894Y026433D01*
X031939Y026434D01*
X031941Y026435D01*
X03203D01*
X032207Y026257D01*
X032273Y026214D01*
X03235Y026198D01*
X032484D01*
X032518Y026166D01*
X032518Y026109D01*
X032505Y026098D01*
X032469D01*
X032469Y026098D01*
X032378Y02606D01*
X032378Y02606D01*
X032309Y025991D01*
X03228Y025921D01*
X032213Y025905D01*
X032195Y025906D01*
X03216Y02596D01*
X03204Y026039D01*
X0319Y026067D01*
X0316D01*
X03146Y026039D01*
X03134Y02596D01*
X031261Y02584D01*
X031233Y0257D01*
X031261Y02556D01*
X03134Y02544D01*
X03139Y025408D01*
X031366Y025329D01*
X030853D01*
X030391Y025791D01*
X0303Y025829D01*
X0303Y025829D01*
X029251D01*
X029242Y025831D01*
X029241Y025831D01*
X029239Y02584D01*
X02916Y02596D01*
X02904Y026039D01*
X0289Y026067D01*
X0286D01*
X02846Y026039D01*
X02834Y02596D01*
X028261Y02584D01*
X028233Y0257D01*
X028261Y02556D01*
X02834Y02544D01*
X02846Y025361D01*
X0286Y025333D01*
X0289D01*
X02904Y025361D01*
X02916Y02544D01*
X029239Y02556D01*
X029241Y025569D01*
X029242Y025569D01*
X029251Y025571D01*
X030247D01*
X030709Y025109D01*
X030709Y025109D01*
X0308Y025071D01*
X0308Y025071D01*
X031166D01*
X03124Y02506D01*
X03124Y024992D01*
Y02434D01*
X03226D01*
Y024606D01*
X032261Y024606D01*
X032266Y024607D01*
X032505D01*
X032583Y024558D01*
X032644Y024554D01*
X032645Y024555D01*
X032651Y024555D01*
X032657Y024558D01*
X032661Y024558D01*
X033017D01*
Y024914D01*
X032661D01*
X032657Y024914D01*
X032651Y024918D01*
X032645Y024917D01*
X032644Y024918D01*
X032583Y024914D01*
X032505Y024865D01*
X032338D01*
X03226Y024941D01*
X03226Y025043D01*
X032284Y025094D01*
X032303Y025121D01*
X032491Y025309D01*
X032491Y025309D01*
X032504Y025339D01*
X032583Y025324D01*
Y025322D01*
X032939D01*
X032943Y025322D01*
X032949Y025319D01*
X032955Y025319D01*
X032956Y025318D01*
X033017Y025322D01*
X033095Y025371D01*
X033247D01*
X033599Y025019D01*
X033599Y025019D01*
X03369Y024981D01*
X033794D01*
X033799Y02498D01*
X033801Y024979D01*
Y024814D01*
X033897D01*
X033897Y024814D01*
X033898Y024812D01*
X033899Y024807D01*
Y024586D01*
X033899Y024586D01*
X033937Y024495D01*
X034033Y024399D01*
X034041Y024387D01*
X034046Y024378D01*
Y024356D01*
X034043Y024347D01*
X034045Y024342D01*
X034043Y024336D01*
X034046Y024332D01*
Y024133D01*
X034403D01*
Y024567D01*
X034282D01*
X034277Y02457D01*
X034272Y024569D01*
X034267Y024571D01*
X034257Y024567D01*
X034235D01*
X034227Y024573D01*
X034215Y024581D01*
X034157Y024639D01*
Y024807D01*
X034158Y024812D01*
X034159Y024814D01*
X034159Y024814D01*
X034255D01*
Y025406D01*
X033801D01*
Y025291D01*
X033722Y02526D01*
X033391Y025591D01*
X0333Y025629D01*
X0333Y025629D01*
X033095D01*
X033017Y025678D01*
X032956Y025682D01*
X032955Y025681D01*
X032949Y025681D01*
X032943Y025678D01*
X032939Y025678D01*
X032608D01*
X032583Y025678D01*
X032529Y025735D01*
Y025752D01*
X032583Y025808D01*
X032643Y025804D01*
X032646Y025805D01*
X032654Y025805D01*
X032658Y025808D01*
X033017D01*
X033017Y026164D01*
X033082Y026198D01*
X034077D01*
X034173Y026103D01*
Y025796D01*
X034549D01*
X034551Y025796D01*
X034557Y025793D01*
X034564Y025793D01*
X034566Y025792D01*
X034627Y025796D01*
X034627Y025842D01*
X03463Y025848D01*
X034631Y025855D01*
X034633Y025857D01*
X034641Y025862D01*
X034657Y025869D01*
X03468Y025876D01*
X03471Y025881D01*
X034793Y025888D01*
X034843Y025889D01*
X034845Y02589D01*
X03485D01*
X034927Y025906D01*
X034993Y02595D01*
X035036Y026015D01*
X035052Y026092D01*
Y026522D01*
X035053Y026524D01*
X035054Y026574D01*
X035058Y026617D01*
X035064Y026652D01*
X035071Y026681D01*
X03508Y026703D01*
X035089Y026718D01*
X035098Y026727D01*
X035105Y026732D01*
X035114Y026735D01*
X035132Y026737D01*
X035139Y02674D01*
X035226D01*
Y027481D01*
X035226Y027485D01*
X035229Y02749D01*
X035229Y027497D01*
X03523Y027499D01*
X035226Y02756D01*
X035179Y02756D01*
X035174Y027563D01*
X035154Y027566D01*
X035146Y02757D01*
X035136Y027578D01*
X035124Y027595D01*
X035112Y027621D01*
X0351Y027657D01*
X035091Y027701D01*
X035079Y027821D01*
X035078Y027889D01*
Y0286D01*
X037582D01*
Y02845D01*
Y027634D01*
X037577Y027627D01*
X037562Y02755D01*
X037573Y027497D01*
Y027062D01*
X037432Y027053D01*
X037382Y027053D01*
X037379Y027052D01*
X0369D01*
X036823Y027036D01*
X036757Y026993D01*
X036507Y026743D01*
X036464Y026677D01*
X036448Y0266D01*
Y025179D01*
X036464Y025102D01*
X036507Y025036D01*
X036986Y024557D01*
X037052Y024514D01*
X037129Y024498D01*
X037355D01*
X037358Y024497D01*
X037403Y024496D01*
X037444Y024493D01*
X037482Y024488D01*
X037519Y024481D01*
X037553Y024472D01*
X037585Y024461D01*
X037615Y024449D01*
X037642Y024434D01*
X037668Y024418D01*
X037694Y024398D01*
X037709Y024395D01*
X03776Y024361D01*
X0379Y024333D01*
X0382D01*
X03834Y024361D01*
X03846Y02444D01*
X038539Y02456D01*
X038567Y0247D01*
X038539Y02484D01*
X03846Y02496D01*
X03834Y025039D01*
X0382Y025067D01*
X0379D01*
X03776Y025039D01*
X037709Y025005D01*
X037694Y025002D01*
X037668Y024982D01*
X037642Y024966D01*
X037615Y024951D01*
X037585Y024939D01*
X037553Y024928D01*
X037519Y024919D01*
X037483Y024912D01*
X037402Y024904D01*
X037358Y024903D01*
X037355Y024902D01*
X037212D01*
X036852Y025262D01*
Y026516D01*
X036984Y026648D01*
X037378D01*
X037381Y026647D01*
X037556Y026644D01*
X037596Y026642D01*
X037596Y026633D01*
X03765Y026629D01*
X03765Y026629D01*
X037657Y026629D01*
X037667Y026633D01*
X037953D01*
Y026761D01*
X037961Y026773D01*
X037976Y02685D01*
Y027437D01*
X038055Y027466D01*
X038072Y027445D01*
Y027333D01*
X038349D01*
X038358Y027333D01*
X038367Y027329D01*
X038428Y027333D01*
Y027354D01*
X038593Y027367D01*
X038643Y027367D01*
X038646Y027368D01*
X039372D01*
X039374Y027367D01*
X039425Y027366D01*
X039469Y027363D01*
X039505Y027358D01*
X039536Y027352D01*
X039559Y027345D01*
X039574Y027338D01*
X039582Y027332D01*
X039585Y027329D01*
X039585Y027328D01*
X039587Y027317D01*
X03959Y027312D01*
X03959Y027265D01*
X039651Y027261D01*
X039653Y027262D01*
X03966Y027262D01*
X039665Y027265D01*
X039669Y027265D01*
X04071D01*
Y028035D01*
X03959D01*
Y027856D01*
X039588Y027852D01*
X039586Y027834D01*
X039583Y027825D01*
X039578Y027818D01*
X039569Y027809D01*
X039554Y0278D01*
X039532Y027791D01*
X039503Y027783D01*
X039467Y027777D01*
X039424Y027774D01*
X039374Y027772D01*
X039372Y027771D01*
X038645D01*
X038642Y027772D01*
X038642Y027772D01*
X038642Y027772D01*
X038397Y027771D01*
X03827D01*
X03825Y027767D01*
X038072D01*
Y027705D01*
X038064Y027698D01*
X037985Y027733D01*
Y028298D01*
X041848D01*
Y027778D01*
X041847Y027776D01*
X041846Y027725D01*
X041842Y027683D01*
X041836Y027647D01*
X041828Y027618D01*
X04182Y027596D01*
X04181Y027581D01*
X041802Y027572D01*
X041795Y027567D01*
X041786Y027564D01*
X041768Y027562D01*
X041764Y02756D01*
X041684D01*
Y02674D01*
X042504D01*
Y02756D01*
X042336D01*
X042332Y027562D01*
X042314Y027564D01*
X042305Y027567D01*
X042298Y027572D01*
X04229Y027581D01*
X04228Y027596D01*
X042272Y027618D01*
X042264Y027647D01*
X042258Y027683D01*
X042254Y027726D01*
X042253Y027776D01*
X042252Y027778D01*
Y0285D01*
X042247Y028521D01*
X042309Y0286D01*
X04348D01*
X043604Y028475D01*
Y027889D01*
X043603Y027821D01*
X043599Y027757D01*
X043592Y027702D01*
X043582Y027657D01*
X043571Y027621D01*
X043558Y027595D01*
X043547Y027578D01*
X043537Y02757D01*
X043528Y027566D01*
X043509Y027563D01*
X043503Y02756D01*
X043456Y02756D01*
X043452Y027499D01*
X043453Y027497D01*
X043453Y02749D01*
X043456Y027485D01*
X043456Y027481D01*
Y026819D01*
X043456Y026815D01*
X043453Y02681D01*
X043453Y026803D01*
X043452Y026801D01*
X043456Y02674D01*
X043474D01*
X043524Y026686D01*
X043459Y026643D01*
X043413Y026652D01*
X04157D01*
X041429Y026793D01*
X041364Y026836D01*
X041287Y026852D01*
X040898D01*
X040896Y026853D01*
X040853Y026854D01*
X040814Y026858D01*
X040776Y026864D01*
X04074Y026872D01*
X040705Y026882D01*
X040671Y026895D01*
X040638Y026911D01*
X040607Y026928D01*
X040576Y026948D01*
X040545Y026972D01*
X04053Y026976D01*
X040475Y027013D01*
X040325Y027043D01*
X039975D01*
X039825Y027013D01*
X039697Y026928D01*
X039631Y026829D01*
X039612Y026823D01*
X039571Y026814D01*
X039457Y026804D01*
X039386Y026803D01*
X039384Y026802D01*
X039377D01*
X039377Y026802D01*
X039377Y026802D01*
X039334D01*
X039143Y026993D01*
X039077Y027036D01*
X039Y027052D01*
X038722D01*
X038719Y027053D01*
X038544Y027056D01*
X038504Y027058D01*
X038504Y027067D01*
X03845Y027071D01*
X03845Y027071D01*
X038442Y027071D01*
X038433Y027067D01*
X038147D01*
Y026939D01*
X038139Y026927D01*
X038124Y02685D01*
X038139Y026773D01*
X038147Y026761D01*
Y026633D01*
X038425D01*
X038433Y026633D01*
X038442Y026629D01*
X03845Y026629D01*
X03845Y026629D01*
X038504Y026633D01*
Y026636D01*
X038668Y026647D01*
X038718Y026647D01*
X038721Y026648D01*
X038916D01*
X039107Y026457D01*
X039173Y026414D01*
X03925Y026398D01*
X039431D01*
X039433Y026397D01*
X039472Y026396D01*
X03951Y026393D01*
X039548Y026388D01*
X039585Y026381D01*
X039663Y02636D01*
X039701Y026346D01*
X039781Y026312D01*
X039811Y026297D01*
X039825Y026287D01*
X039975Y026257D01*
X040325D01*
X040475Y026287D01*
X04053Y026324D01*
X040545Y026328D01*
X040576Y026352D01*
X040607Y026372D01*
X040638Y026389D01*
X040671Y026405D01*
X040705Y026418D01*
X04074Y026428D01*
X040776Y026436D01*
X040814Y026442D01*
X040853Y026446D01*
X040896Y026447D01*
X040898Y026448D01*
X041203D01*
X041344Y026307D01*
X041409Y026264D01*
X041487Y026248D01*
X043327D01*
X043403Y026169D01*
X04345Y026114D01*
X043465Y026095D01*
X043473Y026083D01*
X043472Y026081D01*
X043475Y026075D01*
Y025796D01*
X043929D01*
Y025843D01*
X043966Y02585D01*
X044051Y025907D01*
X044108Y025992D01*
X044128Y026092D01*
Y026411D01*
X044129Y026479D01*
X044134Y026543D01*
X044141Y026598D01*
X04415Y026643D01*
X044162Y026679D01*
X044174Y026705D01*
X044186Y026722D01*
X044196Y02673D01*
X044204Y026734D01*
X044224Y026737D01*
X044229Y02674D01*
X044276Y02674D01*
X04428Y026801D01*
X044279Y026803D01*
X044279Y02681D01*
X044276Y026815D01*
X044276Y026819D01*
Y027481D01*
X044276Y027485D01*
X044279Y02749D01*
X044279Y027497D01*
X04428Y027499D01*
X044276Y02756D01*
X044229Y02756D01*
X044224Y027563D01*
X044204Y027566D01*
X044196Y02757D01*
X044186Y027578D01*
X044174Y027595D01*
X044162Y027621D01*
X04415Y027657D01*
X044141Y027701D01*
X044129Y027821D01*
X044128Y027889D01*
Y028584D01*
X044128Y028584D01*
X044141Y0286D01*
X044681D01*
Y023534D01*
D02*
G37*
G36*
X025504Y027889D02*
X025503Y027821D01*
X025499Y027757D01*
X025492Y027702D01*
X025482Y027657D01*
X025471Y027621D01*
X025458Y027595D01*
X025447Y027578D01*
X025437Y02757D01*
X025428Y027566D01*
X025409Y027563D01*
X025403Y02756D01*
X025356Y02756D01*
X025352Y027499D01*
X025353Y027497D01*
X025353Y02749D01*
X025356Y027485D01*
X025356Y027481D01*
Y02674D01*
X025536D01*
X025542Y026737D01*
X025545Y026736D01*
X02558Y026688D01*
X025583Y026667D01*
X025531Y026602D01*
X025461Y026596D01*
X025411Y026595D01*
X025409Y026594D01*
X022877D01*
X022817Y026654D01*
X022818Y026659D01*
X022788Y02681D01*
X022703Y026937D01*
X022575Y027022D01*
X022425Y027052D01*
X022075D01*
X021925Y027022D01*
X02187Y026986D01*
X021855Y026982D01*
X021824Y026958D01*
X021793Y026938D01*
X021762Y02692D01*
X021729Y026905D01*
X021695Y026892D01*
X02166Y026881D01*
X021624Y026873D01*
X021586Y026867D01*
X021547Y026863D01*
X021504Y026862D01*
X021502Y026861D01*
X0209D01*
X020804Y026957D01*
Y027067D01*
X020447D01*
Y026939D01*
X020439Y026927D01*
X020424Y02685D01*
X020439Y026773D01*
X020447Y026761D01*
Y026633D01*
X020558D01*
X020674Y026517D01*
X020739Y026473D01*
X020816Y026458D01*
X021502D01*
X021504Y026457D01*
X021547Y026455D01*
X021586Y026452D01*
X021624Y026446D01*
X02166Y026438D01*
X021695Y026427D01*
X021729Y026414D01*
X021762Y026399D01*
X021793Y026381D01*
X021824Y026361D01*
X021855Y026337D01*
X02187Y026333D01*
X021925Y026297D01*
X022075Y026267D01*
X022425D01*
X022575Y026297D01*
X022592Y026308D01*
X022651Y02625D01*
X022716Y026206D01*
X022794Y02619D01*
X023653D01*
X023661Y026115D01*
X023661Y026115D01*
X02357Y026077D01*
X02357Y026077D01*
X023479Y025987D01*
X023441Y025896D01*
X023441Y025896D01*
Y025731D01*
X023362Y025723D01*
X023339Y02584D01*
X02326Y02596D01*
X02314Y026039D01*
X023Y026067D01*
X0227D01*
X02256Y026039D01*
X02244Y02596D01*
X022361Y02584D01*
X022333Y0257D01*
X022361Y02556D01*
X02244Y02544D01*
X02249Y025408D01*
X022466Y025329D01*
X022228D01*
X021766Y025791D01*
X021675Y025829D01*
X021675Y025829D01*
X020351D01*
X020342Y025831D01*
X020341Y025831D01*
X020339Y02584D01*
X02026Y02596D01*
X02014Y026039D01*
X02Y026067D01*
X0197D01*
X01956Y026039D01*
X01944Y02596D01*
X019379Y025867D01*
X0193Y025891D01*
Y027289D01*
X019366Y027355D01*
X019712Y027357D01*
X019845Y027354D01*
X019885Y027352D01*
Y026914D01*
X019873Y02685D01*
X019888Y026773D01*
X019896Y026761D01*
Y026633D01*
X020253D01*
Y026754D01*
X020273Y026786D01*
X020289Y026863D01*
Y027486D01*
X020301Y02755D01*
X020286Y027627D01*
X020278Y027639D01*
Y027767D01*
X019992D01*
X019983Y027771D01*
X019982Y027771D01*
X019981Y027771D01*
X019907Y027769D01*
X019872Y027816D01*
X019865Y027846D01*
X019893Y02788D01*
X019939Y027928D01*
X019985Y027974D01*
X019985Y027974D01*
X020199Y028188D01*
X023409D01*
X023477Y028185D01*
X023535Y028174D01*
X023584Y028158D01*
X023625Y028136D01*
X023659Y028109D01*
X023686Y028075D01*
X023708Y028034D01*
X023724Y027985D01*
X023735Y027927D01*
X023738Y027868D01*
X023737Y027821D01*
X023732Y027757D01*
X023725Y027703D01*
X023715Y027658D01*
X023703Y027622D01*
X023691Y027596D01*
X023678Y027579D01*
X023668Y02757D01*
X023658Y027566D01*
X023637Y027563D01*
X023632Y02756D01*
X023584Y02756D01*
X023581Y027499D01*
X023582Y027497D01*
X023581Y02749D01*
X023584Y027485D01*
X023584Y027481D01*
Y02674D01*
X024404D01*
Y027481D01*
X024404Y027484D01*
X024408Y02749D01*
X024407Y027497D01*
X024408Y027499D01*
X024404Y02756D01*
X024358Y02756D01*
X024352Y027563D01*
X024334Y027566D01*
X024327Y027569D01*
X024318Y027577D01*
X024306Y027594D01*
X024294Y02762D01*
X024283Y027656D01*
X024274Y027701D01*
X024263Y027821D01*
X024262Y027867D01*
X024265Y027927D01*
X024276Y027985D01*
X024292Y028034D01*
X024314Y028075D01*
X024341Y028109D01*
X024375Y028136D01*
X024416Y028158D01*
X024465Y028174D01*
X024523Y028185D01*
X024591Y028188D01*
X02465D01*
X02475Y028208D01*
X024835Y028265D01*
X024892Y02835D01*
X024912Y02845D01*
X024898Y028521D01*
X024946Y0286D01*
X025504D01*
Y027889D01*
D02*
G37*
G36*
X044065Y027818D02*
X044077Y027692D01*
X044087Y027641D01*
X044101Y027597D01*
X044118Y027562D01*
X044137Y027534D01*
X04416Y027515D01*
X044186Y027503D01*
X044215Y027499D01*
X043517D01*
X043546Y027503D01*
X043572Y027515D01*
X043595Y027534D01*
X043615Y027562D01*
X043631Y027597D01*
X043645Y027641D01*
X043656Y027692D01*
X043663Y027751D01*
X043668Y027818D01*
X043669Y027892D01*
X044063D01*
X044065Y027818D01*
D02*
G37*
G36*
X035015D02*
X035027Y027692D01*
X035037Y027641D01*
X035051Y027597D01*
X035068Y027562D01*
X035087Y027534D01*
X03511Y027515D01*
X035136Y027503D01*
X035165Y027499D01*
X034467D01*
X034496Y027503D01*
X034522Y027515D01*
X034545Y027534D01*
X034565Y027562D01*
X034581Y027597D01*
X034595Y027641D01*
X034606Y027692D01*
X034613Y027751D01*
X034618Y027818D01*
X034619Y027892D01*
X035013D01*
X035015Y027818D01*
D02*
G37*
G36*
X033243D02*
X033255Y027692D01*
X033266Y027641D01*
X033279Y027597D01*
X033296Y027562D01*
X033316Y027534D01*
X033339Y027515D01*
X033364Y027503D01*
X033393Y027499D01*
X032696D01*
X032725Y027503D01*
X03275Y027515D01*
X032773Y027534D01*
X032793Y027562D01*
X03281Y027597D01*
X032823Y027641D01*
X032834Y027692D01*
X032842Y027751D01*
X032846Y027818D01*
X032848Y027892D01*
X033241D01*
X033243Y027818D01*
D02*
G37*
G36*
X025965D02*
X025977Y027692D01*
X025987Y027641D01*
X026001Y027597D01*
X026018Y027562D01*
X026037Y027534D01*
X02606Y027515D01*
X026086Y027503D01*
X026115Y027499D01*
X025417D01*
X025446Y027503D01*
X025472Y027515D01*
X025495Y027534D01*
X025515Y027562D01*
X025531Y027597D01*
X025545Y027641D01*
X025556Y027692D01*
X025563Y027751D01*
X025568Y027818D01*
X025569Y027892D01*
X025963D01*
X025965Y027818D01*
D02*
G37*
G36*
X024591Y028253D02*
X024516Y028249D01*
X024449Y028237D01*
X02439Y028218D01*
X024339Y02819D01*
X024295Y028155D01*
X02426Y028111D01*
X024232Y02806D01*
X024213Y028001D01*
X024201Y027934D01*
X024197Y027868D01*
X024198Y027818D01*
X02421Y027692D01*
X02422Y027641D01*
X024233Y027597D01*
X02425Y027562D01*
X024269Y027534D01*
X024291Y027515D01*
X024315Y027503D01*
X024343Y027499D01*
X023646D01*
X023676Y027503D01*
X023702Y027515D01*
X023726Y027534D01*
X023746Y027562D01*
X023764Y027597D01*
X023778Y027641D01*
X023789Y027692D01*
X023797Y027751D01*
X023802Y027818D01*
X023803Y027869D01*
X023799Y027934D01*
X023787Y028001D01*
X023768Y02806D01*
X02374Y028111D01*
X023705Y028155D01*
X023661Y02819D01*
X02361Y028218D01*
X023551Y028237D01*
X023484Y028249D01*
X023409Y028253D01*
X024Y028647D01*
X024591Y028253D01*
D02*
G37*
G36*
X042189Y027722D02*
X042193Y027675D01*
X0422Y027633D01*
X04221Y027597D01*
X042222Y027567D01*
X042237Y027542D01*
X042255Y027523D01*
X042276Y027509D01*
X042299Y0275D01*
X042326Y027498D01*
X041774D01*
X041801Y0275D01*
X041824Y027509D01*
X041845Y027523D01*
X041863Y027542D01*
X041878Y027567D01*
X04189Y027597D01*
X0419Y027633D01*
X041907Y027675D01*
X041911Y027722D01*
X041912Y027774D01*
X042188D01*
X042189Y027722D01*
D02*
G37*
G36*
X038642Y027432D02*
X03859Y027432D01*
X038411Y027418D01*
X038392Y027413D01*
X038378Y027407D01*
X03837Y027401D01*
X038367Y027394D01*
Y027706D01*
X038642Y027707D01*
Y027432D01*
D02*
G37*
G36*
X029843D02*
X02979Y027432D01*
X029611Y027418D01*
X029592Y027413D01*
X029578Y027407D01*
X02957Y027401D01*
X029567Y027394D01*
Y027706D01*
X029843Y027707D01*
Y027432D01*
D02*
G37*
G36*
X019844Y027923D02*
X019805Y027875D01*
X019777Y027834D01*
X019761Y027797D01*
X019755Y027767D01*
X01976Y027742D01*
X019776Y027722D01*
X019804Y027708D01*
X019836Y027701D01*
X019983Y027706D01*
Y027394D01*
X01998Y027399D01*
X019972Y027404D01*
X019958Y027408D01*
X019939Y027412D01*
X019914Y027415D01*
X019848Y027419D01*
X019712Y027422D01*
X019339Y02742D01*
Y027587D01*
X0192Y027559D01*
X019061Y027699D01*
X019895Y027976D01*
X019844Y027923D01*
D02*
G37*
G36*
X039651Y027326D02*
X039648Y027346D01*
X03964Y027364D01*
X039626Y02738D01*
X039607Y027394D01*
X039582Y027405D01*
X039552Y027415D01*
X039516Y027422D01*
X039475Y027428D01*
X039428Y027431D01*
X039376Y027432D01*
Y027707D01*
X039428Y027709D01*
X039475Y027713D01*
X039517Y02772D01*
X039553Y02773D01*
X039583Y027742D01*
X039608Y027757D01*
X039627Y027775D01*
X039641Y027796D01*
X03965Y027819D01*
X039652Y027845D01*
X039651Y027326D01*
D02*
G37*
G36*
X030701D02*
X030698Y027346D01*
X03069Y027364D01*
X030676Y02738D01*
X030657Y027394D01*
X030632Y027405D01*
X030602Y027415D01*
X030566Y027422D01*
X030525Y027428D01*
X030478Y027431D01*
X030426Y027432D01*
Y027707D01*
X030478Y027709D01*
X030525Y027713D01*
X030567Y02772D01*
X030603Y02773D01*
X030633Y027742D01*
X030658Y027757D01*
X030677Y027775D01*
X030691Y027796D01*
X0307Y027819D01*
X030702Y027845D01*
X030701Y027326D01*
D02*
G37*
G36*
X018087Y027403D02*
X018101Y027393D01*
X018118Y027385D01*
X018138Y027377D01*
X018161Y027371D01*
X018187Y027366D01*
X018216Y027362D01*
X018284Y027357D01*
X018323Y027356D01*
X018267Y026963D01*
X018228Y026962D01*
X018103Y026954D01*
X01808Y02695D01*
X01806Y026945D01*
X018044Y02694D01*
X01803Y026934D01*
X01802Y026928D01*
X018077Y027414D01*
X018087Y027403D01*
D02*
G37*
G36*
X038445Y027003D02*
X038454Y027D01*
X038467Y026997D01*
X038487Y026994D01*
X038542Y026991D01*
X038718Y026988D01*
Y026712D01*
X038666Y026712D01*
X038445Y026697D01*
X038442Y026694D01*
Y027006D01*
X038445Y027003D01*
D02*
G37*
G36*
X037657Y026694D02*
X037655Y026697D01*
X037646Y0267D01*
X037633Y026703D01*
X037613Y026706D01*
X037558Y026709D01*
X037382Y026712D01*
Y026988D01*
X037434Y026988D01*
X037655Y027003D01*
X037657Y027006D01*
Y026694D01*
D02*
G37*
G36*
X029595Y027003D02*
X029604Y027D01*
X029617Y026997D01*
X029637Y026994D01*
X029692Y026991D01*
X029868Y026988D01*
Y026712D01*
X029816Y026712D01*
X029595Y026697D01*
X029592Y026694D01*
Y027006D01*
X029595Y027003D01*
D02*
G37*
G36*
X028807Y026694D02*
X028805Y026697D01*
X028796Y0267D01*
X028783Y026703D01*
X028763Y026706D01*
X028708Y026709D01*
X028547Y026712D01*
X02839Y026712D01*
Y026988D01*
X028593Y026989D01*
X028805Y027003D01*
X028807Y027006D01*
Y026694D01*
D02*
G37*
G36*
X035099Y026798D02*
X035076Y02679D01*
X035055Y026776D01*
X035037Y026757D01*
X035022Y026732D01*
X03501Y026702D01*
X035Y026666D01*
X034993Y026625D01*
X034989Y026578D01*
X034988Y026526D01*
X034712D01*
X034711Y026578D01*
X034707Y026625D01*
X0347Y026666D01*
X03469Y026702D01*
X034678Y026732D01*
X034663Y026757D01*
X034645Y026776D01*
X034624Y02679D01*
X034601Y026798D01*
X034574Y026801D01*
X035126D01*
X035099Y026798D01*
D02*
G37*
G36*
X044186Y026797D02*
X04416Y026785D01*
X044137Y026766D01*
X044118Y026738D01*
X044101Y026703D01*
X044087Y026659D01*
X044077Y026608D01*
X044069Y026549D01*
X044065Y026482D01*
X044063Y026407D01*
X043669D01*
X043668Y026482D01*
X043656Y026608D01*
X043645Y026659D01*
X043631Y026703D01*
X043615Y026738D01*
X043595Y026766D01*
X043572Y026785D01*
X043546Y026797D01*
X043517Y026801D01*
X044215D01*
X044186Y026797D01*
D02*
G37*
G36*
X021894Y026389D02*
X021861Y026414D01*
X021827Y026437D01*
X021791Y026457D01*
X021754Y026474D01*
X021716Y026488D01*
X021677Y0265D01*
X021636Y02651D01*
X021594Y026516D01*
X021551Y02652D01*
X021506Y026522D01*
Y026797D01*
X021551Y026799D01*
X021594Y026803D01*
X021636Y026809D01*
X021677Y026818D01*
X021716Y02683D01*
X021754Y026845D01*
X021791Y026862D01*
X021827Y026882D01*
X021861Y026905D01*
X021894Y02693D01*
Y026389D01*
D02*
G37*
G36*
X040539Y026895D02*
X040573Y026873D01*
X040609Y026853D01*
X040646Y026836D01*
X040684Y026821D01*
X040723Y026809D01*
X040764Y0268D01*
X040806Y026793D01*
X040849Y026789D01*
X040894Y026788D01*
Y026512D01*
X040849Y026511D01*
X040806Y026507D01*
X040764Y0265D01*
X040723Y026491D01*
X040684Y026479D01*
X040646Y026464D01*
X040609Y026447D01*
X040573Y026427D01*
X040539Y026405D01*
X040506Y026379D01*
Y026921D01*
X040539Y026895D01*
D02*
G37*
G36*
X031569Y026885D02*
X03158Y026862D01*
X031599Y026841D01*
X031626Y026824D01*
X03166Y026809D01*
X031703Y026796D01*
X031753Y026787D01*
X031811Y02678D01*
X031877Y026776D01*
X031951Y026774D01*
X031937Y026499D01*
X031891Y026498D01*
X031846Y026494D01*
X031804Y026488D01*
X031763Y02648D01*
X031724Y026469D01*
X031687Y026456D01*
X031651Y02644D01*
X031618Y026422D01*
X031586Y026402D01*
X031556Y026379D01*
X031565Y026911D01*
X031569Y026885D01*
D02*
G37*
G36*
X030844Y026379D02*
X030811Y026405D01*
X030777Y026427D01*
X030741Y026447D01*
X030704Y026464D01*
X030666Y026479D01*
X030627Y026491D01*
X030586Y0265D01*
X030544Y026507D01*
X030501Y026511D01*
X030456Y026512D01*
Y026788D01*
X030501Y026789D01*
X030544Y026793D01*
X030586Y0268D01*
X030627Y026809D01*
X030666Y026821D01*
X030704Y026836D01*
X030741Y026853D01*
X030777Y026873D01*
X030811Y026895D01*
X030844Y026921D01*
Y026379D01*
D02*
G37*
G36*
X03985Y026349D02*
X039808Y026371D01*
X039724Y026407D01*
X039683Y026422D01*
X039599Y026444D01*
X039558Y026452D01*
X039517Y026458D01*
X039476Y026461D01*
X039435Y026462D01*
X039388Y026738D01*
X03946Y026739D01*
X03958Y02675D01*
X039628Y02676D01*
X039668Y026772D01*
X039699Y026787D01*
X039722Y026805D01*
X039737Y026825D01*
X039744Y026849D01*
X039742Y026875D01*
X03985Y026349D01*
D02*
G37*
G36*
X025963Y02685D02*
X025966Y026801D01*
X0261D01*
X026074Y026798D01*
X02605Y02679D01*
X02603Y026776D01*
X026012Y026757D01*
X025997Y026732D01*
X025984Y026702D01*
X02598Y026685D01*
X025983Y026671D01*
X025991Y026652D01*
X025999Y026638D01*
X026009Y02663D01*
X02602Y026627D01*
X025968D01*
X025968Y026625D01*
X025964Y026578D01*
X025962Y026526D01*
X025688D01*
Y026157D01*
X025685Y026176D01*
X025677Y026192D01*
X025663Y026207D01*
X025644Y026219D01*
X025619Y02623D01*
X025589Y026239D01*
X025553Y026246D01*
X025512Y02625D01*
X025465Y026253D01*
X025412Y026254D01*
Y02653D01*
X025465Y026531D01*
X025553Y026539D01*
X025589Y026545D01*
X025619Y026554D01*
X025644Y026565D01*
X025663Y026578D01*
X025677Y026592D01*
X025683Y026604D01*
X025681Y026625D01*
X025674Y026666D01*
X025665Y026702D01*
X025652Y026732D01*
X025637Y026757D01*
X025619Y026776D01*
X025599Y02679D01*
X025575Y026798D01*
X025549Y026801D01*
X025687D01*
X025687Y026903D01*
X025962D01*
X025963Y02685D01*
D02*
G37*
G36*
X043578Y02648D02*
X04373Y026345D01*
X043749Y026333D01*
X043764Y026326D01*
X043775Y026323D01*
X043782Y026326D01*
X043537Y026081D01*
X04354Y026088D01*
X043537Y026099D01*
X04353Y026114D01*
X043518Y026133D01*
X0435Y026155D01*
X043451Y026212D01*
X043341Y026327D01*
X043536Y026522D01*
X043578Y02648D01*
D02*
G37*
G36*
X032644Y025869D02*
X032643Y025877D01*
X032639Y025884D01*
X032633Y02589D01*
X032625Y025895D01*
X032614Y0259D01*
X032601Y025904D01*
X032586Y025906D01*
X032568Y025909D01*
X032548Y02591D01*
X032526Y02591D01*
Y026028D01*
X032548Y026029D01*
X032568Y026031D01*
X032586Y026034D01*
X032602Y026038D01*
X032615Y026043D01*
X032626Y026049D01*
X032634Y026057D01*
X03264Y026066D01*
X032644Y026076D01*
X032645Y026087D01*
X032644Y025869D01*
D02*
G37*
G36*
X023894D02*
X023893Y02588D01*
X023889Y02589D01*
X023883Y025899D01*
X023875Y025906D01*
X023864Y025913D01*
X023851Y025918D01*
X023836Y025922D01*
X023818Y025925D01*
X023798Y025927D01*
X023776Y025927D01*
Y026045D01*
X023798Y026046D01*
X023818Y026048D01*
X023836Y02605D01*
X023851Y026055D01*
X023864Y02606D01*
X023875Y026066D01*
X023883Y026074D01*
X023889Y026082D01*
X023893Y026092D01*
X023894Y026103D01*
Y025869D01*
D02*
G37*
G36*
X034569Y026309D02*
X034577Y026292D01*
X034591Y026278D01*
X03461Y026265D01*
X034635Y026254D01*
X034665Y026245D01*
X034701Y026239D01*
X034743Y026234D01*
X034789Y026231D01*
X034842Y02623D01*
Y025954D01*
X034789Y025953D01*
X034701Y025946D01*
X034665Y025939D01*
X034635Y02593D01*
X03461Y025919D01*
X034591Y025907D01*
X034577Y025892D01*
X034569Y025876D01*
X034566Y025857D01*
Y026327D01*
X034569Y026309D01*
D02*
G37*
G36*
X029176Y025806D02*
X02918Y025796D01*
X029187Y025788D01*
X029197Y02578D01*
X029209Y025774D01*
X029224Y025768D01*
X029242Y025764D01*
X029263Y025761D01*
X029286Y02576D01*
X029312Y025759D01*
Y025641D01*
X029286Y02564D01*
X029263Y025639D01*
X029242Y025636D01*
X029224Y025632D01*
X029209Y025626D01*
X029197Y02562D01*
X029187Y025612D01*
X02918Y025604D01*
X029176Y025594D01*
X029175Y025582D01*
Y025818D01*
X029176Y025806D01*
D02*
G37*
G36*
X020276D02*
X02028Y025796D01*
X020287Y025788D01*
X020297Y02578D01*
X020309Y025774D01*
X020324Y025768D01*
X020342Y025764D01*
X020363Y025761D01*
X020386Y02576D01*
X020412Y025759D01*
Y025641D01*
X020386Y02564D01*
X020363Y025639D01*
X020342Y025636D01*
X020324Y025632D01*
X020309Y025626D01*
X020297Y02562D01*
X020287Y025612D01*
X02028Y025604D01*
X020276Y025594D01*
X020275Y025582D01*
Y025818D01*
X020276Y025806D01*
D02*
G37*
G36*
X032957Y025606D02*
X032961Y025596D01*
X032967Y025587D01*
X032975Y02558D01*
X032986Y025574D01*
X032999Y025568D01*
X033014Y025564D01*
X033032Y025561D01*
X033052Y02556D01*
X033074Y025559D01*
Y025441D01*
X033052Y02544D01*
X033032Y025439D01*
X033014Y025436D01*
X032999Y025432D01*
X032986Y025426D01*
X032975Y02542D01*
X032967Y025413D01*
X032961Y025404D01*
X032957Y025394D01*
X032956Y025383D01*
Y025617D01*
X032957Y025606D01*
D02*
G37*
G36*
X0175Y025305D02*
X017489Y025314D01*
X017475Y025322D01*
X017458Y02533D01*
X017437Y025336D01*
X017414Y025341D01*
X017388Y025345D01*
X017325Y025351D01*
X017251Y025353D01*
Y025747D01*
X01729Y025747D01*
X017388Y025755D01*
X017414Y025759D01*
X017437Y025764D01*
X017458Y02577D01*
X017475Y025778D01*
X017489Y025786D01*
X0175Y025795D01*
Y025305D01*
D02*
G37*
G36*
X026347Y025172D02*
X026337Y025168D01*
X026328Y025162D01*
X02632Y025154D01*
X026314Y025143D01*
X026309Y02513D01*
X026304Y025115D01*
X026301Y025097D01*
X0263Y025077D01*
X026299Y025055D01*
X026181D01*
X02618Y025077D01*
X026179Y025097D01*
X026176Y025115D01*
X026172Y02513D01*
X026166Y025143D01*
X02616Y025154D01*
X026152Y025162D01*
X026143Y025168D01*
X026133Y025172D01*
X026122Y025173D01*
X026358D01*
X026347Y025172D01*
D02*
G37*
G36*
X033863Y024992D02*
X033862Y025003D01*
X033858Y025013D01*
X033852Y025022D01*
X033844Y02503D01*
X033833Y025036D01*
X03382Y025041D01*
X033805Y025046D01*
X033787Y025049D01*
X033766Y02505D01*
X033744Y025051D01*
Y025169D01*
X033766Y02517D01*
X033787Y025171D01*
X033805Y025174D01*
X03382Y025178D01*
X033833Y025184D01*
X033844Y02519D01*
X033852Y025198D01*
X033858Y025207D01*
X033862Y025217D01*
X033863Y025228D01*
Y024992D01*
D02*
G37*
G36*
X01637Y025019D02*
X016343Y024993D01*
X016266Y024902D01*
X016254Y024884D01*
X016244Y024868D01*
X016237Y024853D01*
X016233Y02484D01*
X016232Y024829D01*
X015901Y02516D01*
X015912Y025161D01*
X015925Y025165D01*
X01594Y025172D01*
X015956Y025182D01*
X015974Y025194D01*
X015994Y025209D01*
X016039Y025248D01*
X016091Y025298D01*
X01637Y025019D01*
D02*
G37*
G36*
X034135Y024874D02*
X034125Y02487D01*
X034116Y024864D01*
X034108Y024856D01*
X034102Y024845D01*
X034096Y024832D01*
X034092Y024817D01*
X034089Y024799D01*
X034088Y024779D01*
X034087Y024757D01*
X033969D01*
X033968Y024779D01*
X033967Y024799D01*
X033964Y024817D01*
X033959Y024832D01*
X033954Y024845D01*
X033948Y024856D01*
X03394Y024864D01*
X033931Y02487D01*
X033921Y024874D01*
X03391Y024875D01*
X034146D01*
X034135Y024874D01*
D02*
G37*
G36*
X026189Y024847D02*
X026191Y024828D01*
X026193Y024811D01*
X026197Y024797D01*
X026202Y024784D01*
X026208Y024774D01*
X026214Y024766D01*
X026222Y024761D01*
X026231Y024757D01*
X026241Y024756D01*
X026018D01*
X026028Y024757D01*
X026037Y024761D01*
X026045Y024766D01*
X026052Y024774D01*
X026057Y024784D01*
X026062Y024797D01*
X026066Y024811D01*
X026068Y024828D01*
X02607Y024847D01*
X026071Y024868D01*
X026189D01*
X026189Y024847D01*
D02*
G37*
G36*
X034888Y024872D02*
X034878Y024868D01*
X034869Y024862D01*
X034861Y024854D01*
X034855Y024843D01*
X034849Y02483D01*
X034845Y024815D01*
X034842Y024797D01*
X03484Y024777D01*
X03484Y024755D01*
X034722D01*
X034721Y024777D01*
X034719Y024797D01*
X034716Y024815D01*
X034712Y02483D01*
X034707Y024843D01*
X0347Y024854D01*
X034693Y024862D01*
X034684Y024868D01*
X034674Y024872D01*
X034663Y024873D01*
X034899D01*
X034888Y024872D01*
D02*
G37*
G36*
X032644Y024619D02*
X032643Y02463D01*
X032639Y02464D01*
X032633Y024649D01*
X032625Y024656D01*
X032614Y024663D01*
X032601Y024668D01*
X032586Y024672D01*
X032568Y024675D01*
X032548Y024677D01*
X032526Y024677D01*
Y024795D01*
X032548Y024796D01*
X032568Y024798D01*
X032586Y0248D01*
X032601Y024805D01*
X032614Y02481D01*
X032625Y024816D01*
X032633Y024824D01*
X032639Y024832D01*
X032643Y024842D01*
X032644Y024853D01*
Y024619D01*
D02*
G37*
G36*
X023894D02*
X023893Y02463D01*
X023889Y02464D01*
X023883Y024649D01*
X023875Y024656D01*
X023864Y024663D01*
X023851Y024668D01*
X023836Y024672D01*
X023818Y024675D01*
X023798Y024677D01*
X023776Y024677D01*
Y024795D01*
X023798Y024796D01*
X023818Y024798D01*
X023836Y0248D01*
X023851Y024805D01*
X023864Y02481D01*
X023875Y024816D01*
X023883Y024824D01*
X023889Y024832D01*
X023893Y024842D01*
X023894Y024853D01*
Y024619D01*
D02*
G37*
G36*
X032199Y024843D02*
X032202Y024833D01*
X032208Y024824D01*
X032217Y024817D01*
X032227Y02481D01*
X032241Y024805D01*
X032256Y024801D01*
X032274Y024798D01*
X032294Y024796D01*
X032317Y024795D01*
Y024677D01*
X032294Y024677D01*
X032274Y024675D01*
X032256Y024672D01*
X032241Y024668D01*
X032227Y024662D01*
X032217Y024656D01*
X032208Y024648D01*
X032202Y024639D01*
X032199Y024629D01*
X032198Y024618D01*
Y024854D01*
X032199Y024843D01*
D02*
G37*
G36*
X023299D02*
X023302Y024833D01*
X023308Y024824D01*
X023317Y024817D01*
X023327Y02481D01*
X023341Y024805D01*
X023356Y024801D01*
X023374Y024798D01*
X023394Y024796D01*
X023417Y024795D01*
Y024677D01*
X023394Y024677D01*
X023374Y024675D01*
X023356Y024672D01*
X023341Y024668D01*
X023327Y024662D01*
X023317Y024656D01*
X023308Y024648D01*
X023302Y024639D01*
X023299Y024629D01*
X023298Y024618D01*
Y024854D01*
X023299Y024843D01*
D02*
G37*
G36*
X044248Y02487D02*
X044242Y024862D01*
X044238Y024848D01*
X044233Y024829D01*
X04423Y024804D01*
X044225Y024738D01*
X044222Y024597D01*
X043946D01*
X043946Y02465D01*
X043934Y024848D01*
X043931Y024862D01*
X043926Y02487D01*
X043922Y024873D01*
X044254D01*
X044248Y02487D01*
D02*
G37*
G36*
X028321Y024594D02*
X028321Y0246D01*
X028317Y024605D01*
X028308Y024609D01*
X028296Y024613D01*
X028279Y024617D01*
X028259Y024619D01*
X028207Y024623D01*
X028138Y024624D01*
Y0249D01*
X028188Y0249D01*
X028363Y024911D01*
X028383Y024915D01*
X028397Y024919D01*
X028407Y024924D01*
X028411Y02493D01*
X028321Y024594D01*
D02*
G37*
G36*
X010082Y025052D02*
X010094Y025046D01*
X01011Y02504D01*
X010128Y025036D01*
X01015Y025031D01*
X010175Y025028D01*
X010234Y025024D01*
X010306Y025022D01*
Y024628D01*
X010268Y024628D01*
X01015Y024619D01*
X010128Y024615D01*
X01011Y02461D01*
X010094Y024604D01*
X010082Y024598D01*
X010073Y024591D01*
Y025059D01*
X010082Y025052D01*
D02*
G37*
G36*
X03484Y024602D02*
X034842Y024582D01*
X034845Y024564D01*
X034848Y024549D01*
X034853Y024536D01*
X034859Y024525D01*
X034866Y024517D01*
X034874Y024511D01*
X034882Y024507D01*
X034892Y024506D01*
X034663D01*
X034674Y024507D01*
X034684Y024511D01*
X034693Y024517D01*
X0347Y024525D01*
X034707Y024536D01*
X034712Y024549D01*
X034716Y024564D01*
X034719Y024582D01*
X034721Y024602D01*
X034722Y024624D01*
X03484D01*
X03484Y024602D01*
D02*
G37*
G36*
X037733Y02445D02*
X037705Y024472D01*
X037675Y024491D01*
X037642Y024507D01*
X037608Y024522D01*
X037572Y024534D01*
X037533Y024544D01*
X037493Y024552D01*
X03745Y024558D01*
X037406Y024561D01*
X037359Y024562D01*
Y024838D01*
X037406Y024839D01*
X037493Y024848D01*
X037533Y024856D01*
X037572Y024866D01*
X037608Y024878D01*
X037642Y024893D01*
X037675Y024909D01*
X037705Y024928D01*
X037733Y02495D01*
Y02445D01*
D02*
G37*
G36*
X034131Y024567D02*
X034173Y024531D01*
X034191Y024518D01*
X034208Y024508D01*
X034223Y024502D01*
X034236Y024498D01*
X034248Y024498D01*
X034258Y0245D01*
X034267Y024506D01*
X034107Y024347D01*
X034113Y024356D01*
X034116Y024366D01*
X034116Y024377D01*
X034112Y024391D01*
X034106Y024406D01*
X034096Y024423D01*
X034082Y024441D01*
X034066Y024461D01*
X034024Y024506D01*
X034107Y02459D01*
X034131Y024567D01*
D02*
G37*
G36*
X0175Y024305D02*
X017478Y024325D01*
X017455Y024344D01*
X017431Y02436D01*
X017405Y024374D01*
X017377Y024385D01*
X017348Y024395D01*
X017318Y024403D01*
X017286Y024408D01*
X017253Y024411D01*
X017218Y024412D01*
Y024688D01*
X017253Y024689D01*
X017286Y024692D01*
X017318Y024697D01*
X017348Y024705D01*
X017377Y024715D01*
X017405Y024726D01*
X017431Y02474D01*
X017455Y024756D01*
X017478Y024775D01*
X0175Y024795D01*
Y024305D01*
D02*
G37*
G36*
X032811Y024134D02*
X032802Y024141D01*
X032791Y024144D01*
X032778Y024144D01*
X032764Y02414D01*
X032748Y024134D01*
X032731Y024124D01*
X032712Y02411D01*
X032691Y024093D01*
X032644Y02405D01*
X03256Y024133D01*
X032584Y024157D01*
X032621Y024201D01*
X032634Y02422D01*
X032644Y024238D01*
X032651Y024254D01*
X032655Y024268D01*
X032655Y02428D01*
X032651Y024291D01*
X032645Y0243D01*
X032811Y024134D01*
D02*
G37*
G36*
X034882Y024193D02*
X034872Y024189D01*
X034863Y024183D01*
X034855Y024175D01*
X034849Y024164D01*
X034844Y024151D01*
X03484Y024136D01*
X034837Y024118D01*
X034835Y024098D01*
X034835Y024076D01*
X034717D01*
X034716Y024098D01*
X034714Y024118D01*
X034711Y024136D01*
X034707Y024151D01*
X034702Y024164D01*
X034696Y024175D01*
X034688Y024183D01*
X03468Y024189D01*
X03467Y024193D01*
X034659Y024194D01*
X034892D01*
X034882Y024193D01*
D02*
G37*
G36*
X029739Y023978D02*
X029745Y023974D01*
X029752Y023971D01*
X02976Y023968D01*
X029768Y023965D01*
X029777Y023963D01*
X029788Y023961D01*
X029799Y02396D01*
X029823Y023959D01*
Y023841D01*
X02981Y023841D01*
X029788Y023839D01*
X029777Y023837D01*
X029768Y023835D01*
X02976Y023832D01*
X029752Y023829D01*
X029745Y023826D01*
X029739Y023822D01*
X029734Y023817D01*
Y023983D01*
X029739Y023978D01*
D02*
G37*
G36*
X044257Y02397D02*
X044261Y023937D01*
X044267Y023906D01*
X044276Y023878D01*
X044287Y023851D01*
X044301Y023827D01*
X044317Y023804D01*
X044335Y023784D01*
X044356Y023766D01*
X04438Y02375D01*
X043903Y023636D01*
X043918Y023661D01*
X043931Y023688D01*
X043942Y023715D01*
X043953Y023743D01*
X043961Y023772D01*
X043968Y023802D01*
X043973Y023833D01*
X04398Y023899D01*
X04398Y023933D01*
X044256Y024005D01*
X044257Y02397D01*
D02*
G37*
G36*
X023871Y024091D02*
X023879Y024044D01*
X023893Y024003D01*
X023912Y023967D01*
X023937Y023937D01*
X023967Y023912D01*
X024003Y023893D01*
X024044Y023879D01*
X024091Y023871D01*
X024144Y023868D01*
X024063Y023593D01*
X024009Y023591D01*
X023956Y023585D01*
X023905Y023575D01*
X023855Y023561D01*
X023808Y023544D01*
X023761Y023522D01*
X023717Y023497D01*
X023674Y023468D01*
X023632Y023435D01*
X023593Y023398D01*
X023398Y023593D01*
X023435Y023632D01*
X023468Y023674D01*
X023497Y023717D01*
X023522Y023761D01*
X023544Y023808D01*
X023561Y023855D01*
X023575Y023905D01*
X023585Y023956D01*
X023591Y024009D01*
X023593Y024063D01*
X023868Y024144D01*
X023871Y024091D01*
D02*
G37*
G36*
X01376Y023887D02*
X013768Y02384D01*
X013781Y023798D01*
X0138Y023763D01*
X013823Y023732D01*
X013852Y023707D01*
X013886Y023688D01*
X013926Y023674D01*
X01397Y023666D01*
X01402Y023663D01*
X01362Y023388D01*
X01322Y023663D01*
X01327Y023666D01*
X013314Y023674D01*
X013354Y023688D01*
X013388Y023707D01*
X013417Y023732D01*
X01344Y023763D01*
X013459Y023798D01*
X013472Y02384D01*
X01348Y023887D01*
X013482Y023939D01*
X013758D01*
X01376Y023887D01*
D02*
G37*
G36*
X021608Y023162D02*
X021558Y02316D01*
X021517Y023154D01*
X021485Y023145D01*
X021463Y023131D01*
X02145Y023113D01*
X021447Y023092D01*
X021453Y023067D01*
X021468Y023037D01*
X021493Y023004D01*
X021528Y022967D01*
X021138D01*
X021098Y023004D01*
X021057Y023037D01*
X021014Y023067D01*
X020969Y023092D01*
X020923Y023113D01*
X020875Y023131D01*
X020825Y023145D01*
X020774Y023154D01*
X020722Y02316D01*
X020667Y023162D01*
X021Y023438D01*
X021608Y023162D01*
D02*
G37*
G36*
X012225Y023109D02*
X012232Y023093D01*
X012243Y023079D01*
X01226Y023067D01*
X01228Y023057D01*
X012306Y023049D01*
X012336Y023043D01*
X01237Y023038D01*
X01241Y023035D01*
X012454Y023034D01*
Y022759D01*
X012224Y02276D01*
X012222Y023126D01*
X012225Y023109D01*
D02*
G37*
G36*
X020661Y023098D02*
X020663Y023098D01*
X020665Y023097D01*
X020717Y023095D01*
X020765Y02309D01*
X020811Y023081D01*
X020855Y023069D01*
X020898Y023053D01*
X020939Y023034D01*
X020979Y023012D01*
X021018Y022985D01*
X021056Y022955D01*
X021094Y02292D01*
X021096Y022919D01*
X021242Y022773D01*
X021212Y0227D01*
X020094D01*
X019769Y023026D01*
X019799Y023098D01*
X02066D01*
X020661Y023098D01*
D02*
G37*
G36*
X018372Y022281D02*
X01838Y022152D01*
X018383Y022131D01*
X018387Y022115D01*
X018392Y022104D01*
X018398Y022097D01*
X018404Y022094D01*
X017946D01*
X017952Y022097D01*
X017957Y022104D01*
X017962Y022115D01*
X017966Y022131D01*
X01797Y022152D01*
X017973Y022177D01*
X017977Y022242D01*
X017978Y022325D01*
X018372D01*
X018372Y022281D01*
D02*
G37*
G36*
X041975Y02193D02*
X041958Y021945D01*
X041939Y021959D01*
X041919Y021972D01*
X041897Y021982D01*
X041873Y021992D01*
X041847Y021999D01*
X04182Y022005D01*
X041791Y022009D01*
X04176Y022011D01*
X041728Y022012D01*
Y022288D01*
X04176Y022289D01*
X041791Y022291D01*
X04182Y022295D01*
X041847Y022301D01*
X041873Y022308D01*
X041897Y022318D01*
X041919Y022328D01*
X041939Y022341D01*
X041958Y022355D01*
X041975Y02237D01*
Y02193D01*
D02*
G37*
G36*
X011436Y022386D02*
X011537Y0223D01*
X011582Y022269D01*
X011623Y022246D01*
X01166Y02223D01*
X011693Y022222D01*
X011723D01*
X011748Y02223D01*
X011769Y022246D01*
X01138Y021856D01*
X011395Y021877D01*
X011403Y021903D01*
Y021932D01*
X011395Y021965D01*
X01138Y022002D01*
X011356Y022043D01*
X011325Y022088D01*
X011286Y022137D01*
X011185Y022246D01*
X01138Y022441D01*
X011436Y022386D01*
D02*
G37*
G36*
X013038Y021934D02*
X013137Y02185D01*
X013182Y02182D01*
X013223Y021796D01*
X01326Y02178D01*
X013293Y021772D01*
X013323Y021771D01*
X01335Y021777D01*
X013373Y021791D01*
X013094Y021559D01*
X013091Y021548D01*
X013082Y021545D01*
X013067Y021548D01*
X013047Y02156D01*
X013021Y021578D01*
X012988Y021604D01*
X012907Y021677D01*
X012801Y021779D01*
X012983Y021987D01*
X013038Y021934D01*
D02*
G37*
G36*
X013911Y021536D02*
X013907Y021537D01*
X013847Y021537D01*
X013516Y021538D01*
Y021813D01*
X013911Y021815D01*
Y021536D01*
D02*
G37*
G36*
X015275Y021683D02*
X015251Y021675D01*
X015231Y021661D01*
X015213Y021642D01*
X015197Y021617D01*
X015185Y021586D01*
X015175Y02155D01*
X015168Y021509D01*
X015164Y021462D01*
X015163Y021409D01*
X014887D01*
X014886Y021462D01*
X014882Y021509D01*
X014875Y02155D01*
X014865Y021586D01*
X014853Y021617D01*
X014838Y021642D01*
X01482Y021661D01*
X014799Y021675D01*
X014776Y021683D01*
X01475Y021686D01*
X015301D01*
X015275Y021683D01*
D02*
G37*
G36*
X018373Y021825D02*
X018379Y021753D01*
X018385Y021706D01*
X018449D01*
X018434Y021703D01*
X018421Y021695D01*
X018409Y021681D01*
X018399Y021662D01*
X018395Y021648D01*
X018399Y021624D01*
X018415Y021566D01*
X018434Y021512D01*
X018456Y021462D01*
X018482Y021417D01*
X018512Y021376D01*
X018545Y021339D01*
X018175Y021431D01*
X017978D01*
X017977Y021483D01*
X017971Y021571D01*
X017966Y021607D01*
X017959Y021637D01*
X01795Y021662D01*
X01794Y021681D01*
X017929Y021695D01*
X017916Y021703D01*
X017901Y021706D01*
X018209D01*
X018372Y0219D01*
X018373Y021825D01*
D02*
G37*
G36*
X026779Y023143D02*
X026636D01*
X02661Y023117D01*
Y020373D01*
X026531Y020297D01*
X026507Y020297D01*
X026453Y0203D01*
Y02135D01*
X026437Y021427D01*
X026429Y021439D01*
Y021567D01*
X026073D01*
Y021439D01*
X026065Y021427D01*
X02605Y02135D01*
Y020317D01*
X026033D01*
Y020189D01*
X026025Y020177D01*
X02601Y0201D01*
X026025Y020023D01*
X026033Y020011D01*
Y019883D01*
X026319D01*
X026328Y019879D01*
X02633Y019879D01*
X026331Y019879D01*
X026531Y019887D01*
X02661Y019812D01*
Y018787D01*
X026531Y01871D01*
X026403Y018712D01*
X026392Y018712D01*
X026392Y018717D01*
X026331Y018721D01*
X02633Y018721D01*
X026327Y018721D01*
X026319Y018717D01*
X026036D01*
Y018589D01*
X026028Y018577D01*
X026012Y0185D01*
X026028Y018423D01*
X026036Y018411D01*
Y018283D01*
X026313D01*
X026322Y018283D01*
X026331Y018279D01*
X026392Y018283D01*
Y018293D01*
X026531Y018301D01*
X02658Y018268D01*
X02661Y018225D01*
Y017853D01*
X024381D01*
X024368Y017919D01*
X024328Y017978D01*
X024269Y018018D01*
X0242Y018032D01*
X02413Y018018D01*
X024072Y017978D01*
X024032Y017919D01*
X024018Y01785D01*
X024032Y017781D01*
X024072Y017722D01*
X02413Y017682D01*
X024199Y017669D01*
X024235Y017633D01*
X024326Y017595D01*
X02661D01*
Y017065D01*
X025117D01*
X024884Y017298D01*
X024883Y0173D01*
X024883Y0173D01*
X024883Y017303D01*
X024882Y017304D01*
X024882Y017304D01*
X024882Y017305D01*
X02488Y017309D01*
X024868Y017369D01*
X024828Y017428D01*
X024769Y017468D01*
X0247Y017482D01*
X02463Y017468D01*
X024572Y017428D01*
X024532Y017369D01*
X024518Y0173D01*
X024532Y017231D01*
X024572Y017172D01*
X02463Y017132D01*
X024691Y01712D01*
X024695Y017118D01*
X024696Y017118D01*
X024696Y017118D01*
X024697Y017117D01*
X0247Y017117D01*
X0247Y017117D01*
X024702Y017116D01*
X024972Y016845D01*
X024972Y016845D01*
X025063Y016808D01*
X025063Y016808D01*
X02661D01*
Y016278D01*
X025554D01*
X025334Y016498D01*
X025333Y0165D01*
X025333Y0165D01*
X025333Y016503D01*
X025332Y016504D01*
X025332Y016504D01*
X025332Y016505D01*
X02533Y016509D01*
X025318Y016569D01*
X025278Y016628D01*
X02522Y016668D01*
X02515Y016682D01*
X02508Y016668D01*
X025022Y016628D01*
X024982Y016569D01*
X024968Y0165D01*
X024982Y016431D01*
X025022Y016372D01*
X02508Y016332D01*
X025141Y01632D01*
X025145Y016318D01*
X025146Y016318D01*
X025146Y016318D01*
X025147Y016317D01*
X02515Y016317D01*
X02515Y016317D01*
X025152Y016316D01*
X02541Y016058D01*
X025501Y01602D01*
X02661D01*
Y014776D01*
X023492D01*
Y01811D01*
X023493Y018111D01*
X023492Y018113D01*
X023493Y018115D01*
X023499Y018298D01*
X025332D01*
X025334Y018297D01*
X025509Y018294D01*
X02555Y018292D01*
X02555Y018283D01*
X025603Y018279D01*
X025603Y018279D01*
X025611Y018279D01*
X02562Y018283D01*
X025906D01*
Y018411D01*
X025914Y018423D01*
X025929Y0185D01*
X025928Y018506D01*
Y020099D01*
X025913Y020176D01*
X025903Y02019D01*
Y020317D01*
X025547D01*
Y020189D01*
X025539Y020177D01*
X025524Y0201D01*
X025525Y020094D01*
Y018712D01*
X025385Y018703D01*
X025335Y018703D01*
X025333Y018702D01*
X023492D01*
Y02101D01*
X023477Y021087D01*
X023433Y021152D01*
X021576Y023009D01*
X021575Y023011D01*
X02157Y023017D01*
X02157Y023017D01*
X021603Y023097D01*
X021603Y023097D01*
X021611Y023097D01*
X021613Y023098D01*
X02194D01*
X021982Y02302D01*
X021982Y023019D01*
X021968Y02295D01*
X021982Y02288D01*
X022022Y022822D01*
X022081Y022782D01*
X02215Y022768D01*
X02222Y022782D01*
X022278Y022821D01*
X025571D01*
Y021567D01*
X025522D01*
Y021133D01*
X025878D01*
Y021567D01*
X025829D01*
Y02295D01*
Y023226D01*
X026131Y023528D01*
X026779D01*
Y023143D01*
D02*
G37*
G36*
X011436Y02148D02*
X011537Y021395D01*
X011582Y021364D01*
X011623Y02134D01*
X01166Y021325D01*
X011693Y021317D01*
X011723D01*
X011748Y021325D01*
X011769Y02134D01*
X01138Y02095D01*
X011395Y020972D01*
X011403Y020997D01*
Y021026D01*
X011395Y02106D01*
X01138Y021097D01*
X011356Y021137D01*
X011325Y021182D01*
X011286Y021231D01*
X011185Y02134D01*
X01138Y021535D01*
X011436Y02148D01*
D02*
G37*
G36*
X012226Y021327D02*
X012235Y021316D01*
X012248Y021306D01*
X012268Y021297D01*
X012292Y021289D01*
X012323Y021283D01*
X012359Y021278D01*
X012447Y021273D01*
X012499Y021272D01*
Y020997D01*
X012447Y020996D01*
X012292Y020985D01*
X012268Y020979D01*
X012248Y020973D01*
X012235Y020966D01*
X012226Y020958D01*
X012224Y020949D01*
Y02134D01*
X012226Y021327D01*
D02*
G37*
G36*
X037098Y02255D02*
X037114Y022473D01*
X037142Y02243D01*
X037112Y022357D01*
X037107Y022352D01*
X03515D01*
X035073Y022336D01*
X035007Y022293D01*
X034557Y021843D01*
X034514Y021777D01*
X034498Y0217D01*
Y020384D01*
X034403Y020288D01*
X0341D01*
X0341Y022998D01*
X037098D01*
Y02255D01*
D02*
G37*
G36*
X019949Y020481D02*
X019955Y020414D01*
X019965Y020354D01*
X019978Y020303D01*
X019996Y02026D01*
X020018Y020224D01*
X020043Y020197D01*
X020073Y020177D01*
X020106Y020165D01*
X020144Y020161D01*
X019356D01*
X019394Y020165D01*
X019427Y020177D01*
X019457Y020197D01*
X019482Y020224D01*
X019504Y02026D01*
X019522Y020303D01*
X019535Y020354D01*
X019545Y020414D01*
X019551Y020481D01*
X019553Y020556D01*
X019947D01*
X019949Y020481D01*
D02*
G37*
G36*
X026331Y020251D02*
X02634Y020247D01*
X026353Y020243D01*
X026373Y02024D01*
X026397Y020237D01*
X026505Y020232D01*
X026604Y020231D01*
Y019955D01*
X026328Y019944D01*
Y020256D01*
X026331Y020251D01*
D02*
G37*
G36*
X033748Y020271D02*
X033756Y020261D01*
X03377Y020252D01*
X033789Y020245D01*
X033814Y020238D01*
X033844Y020233D01*
X03388Y020229D01*
X033968Y020225D01*
X034021Y020224D01*
Y019948D01*
X033968Y019948D01*
X033844Y019939D01*
X033814Y019934D01*
X033789Y019928D01*
X03377Y01992D01*
X033756Y019911D01*
X033748Y019902D01*
X033745Y019891D01*
Y020282D01*
X033748Y020271D01*
D02*
G37*
G36*
X027055Y019891D02*
X027052Y019903D01*
X027044Y019914D01*
X02703Y019924D01*
X027011Y019932D01*
X026986Y019939D01*
X026956Y019945D01*
X02692Y019949D01*
X026832Y019955D01*
X026779Y019955D01*
Y020231D01*
X026832Y020231D01*
X026986Y020244D01*
X027011Y020249D01*
X02703Y020256D01*
X027044Y020264D01*
X027052Y020272D01*
X027055Y020282D01*
Y019891D01*
D02*
G37*
G36*
X040151Y019879D02*
X04015Y019905D01*
X040143Y019928D01*
X040128Y019949D01*
X040107Y019967D01*
X040078Y019982D01*
X040043Y019994D01*
X04Y020004D01*
X039951Y020011D01*
X039895Y020015D01*
X039831Y020016D01*
X039859Y020292D01*
X039923Y020293D01*
X040031Y020304D01*
X040076Y020314D01*
X040114Y020326D01*
X040145Y020341D01*
X040171Y020359D01*
X04019Y020379D01*
X040202Y020403D01*
X040208Y020429D01*
X040151Y019879D01*
D02*
G37*
G36*
X015475Y019686D02*
X015487Y019683D01*
X015506Y019682D01*
X015613Y019677D01*
X015865Y019675D01*
Y019282D01*
X015471Y019269D01*
Y019688D01*
X015475Y019686D01*
D02*
G37*
G36*
X035551Y019135D02*
X035548Y019131D01*
X03554Y019127D01*
X035526Y019123D01*
X035507Y01912D01*
X035452Y019116D01*
X035328Y019112D01*
X035276Y019112D01*
Y019388D01*
X035328Y019389D01*
X035375Y019393D01*
X035416Y0194D01*
X035452Y01941D01*
X035482Y019422D01*
X035507Y019437D01*
X035526Y019455D01*
X03554Y019476D01*
X035548Y019499D01*
X035551Y019526D01*
Y019135D01*
D02*
G37*
G36*
X033748Y019478D02*
X033756Y019463D01*
X03377Y01945D01*
X033789Y019439D01*
X033814Y019429D01*
X033844Y019421D01*
X03388Y019415D01*
X033922Y019411D01*
X034021Y019407D01*
Y019132D01*
X033968Y019132D01*
X03377Y019118D01*
X033756Y019114D01*
X033748Y019109D01*
X033745Y019103D01*
Y019494D01*
X033748Y019478D01*
D02*
G37*
G36*
X016659Y01927D02*
X016664Y019207D01*
X016672Y019152D01*
X016684Y019104D01*
X0167Y019063D01*
X016719Y01903D01*
X016741Y019004D01*
X016767Y018986D01*
X016796Y018975D01*
X016829Y018971D01*
X016157D01*
X016178Y018975D01*
X016196Y018986D01*
X016211Y019004D01*
X016225Y01903D01*
X016237Y019063D01*
X016246Y019104D01*
X016254Y019152D01*
X016259Y019207D01*
X016263Y01934D01*
X016657D01*
X016659Y01927D01*
D02*
G37*
G36*
X014489Y019019D02*
Y0186D01*
X014486Y018605D01*
X014477Y018609D01*
X014461Y018613D01*
X01444Y018617D01*
X014412Y01862D01*
X014292Y018625D01*
X014181Y018626D01*
Y01902D01*
X014489Y019019D01*
D02*
G37*
G36*
X03744Y019108D02*
X037446Y019067D01*
X037455Y019035D01*
X037469Y019013D01*
X037487Y019D01*
X037508Y018997D01*
X037533Y019003D01*
X037563Y019018D01*
X037596Y019043D01*
X037633Y019078D01*
X0373Y01855D01*
X036887Y018688D01*
X036939Y018691D01*
X036986Y018699D01*
X037027Y018713D01*
X037063Y018732D01*
X037093Y018757D01*
X037118Y018787D01*
X037137Y018823D01*
X037151Y018864D01*
X037159Y018911D01*
X037162Y018963D01*
X037438Y019158D01*
X03744Y019108D01*
D02*
G37*
G36*
X034657Y0188D02*
X034662Y018795D01*
X034811Y018647D01*
X034616Y018453D01*
X034423Y018648D01*
X034655Y018801D01*
X034657Y0188D01*
D02*
G37*
G36*
X032961Y018393D02*
X03296Y018405D01*
X032957Y018415D01*
X032951Y018423D01*
X032942Y018431D01*
X032932Y018438D01*
X032919Y018443D01*
X032903Y018447D01*
X032885Y01845D01*
X032865Y018452D01*
X032842Y018452D01*
Y01857D01*
X032865Y018571D01*
X032885Y018573D01*
X032903Y018576D01*
X032919Y01858D01*
X032932Y018585D01*
X032942Y018592D01*
X032951Y018599D01*
X032957Y018608D01*
X03296Y018618D01*
X032961Y01863D01*
Y018393D01*
D02*
G37*
G36*
X026334Y018654D02*
X026342Y018652D01*
X026356Y01865D01*
X0264Y018647D01*
X026607Y018643D01*
Y018368D01*
X026554Y018368D01*
X026356Y018356D01*
X026342Y018352D01*
X026334Y018348D01*
X026331Y018344D01*
Y018656D01*
X026334Y018654D01*
D02*
G37*
G36*
X025611Y018344D02*
X025608Y018347D01*
X0256Y01835D01*
X025586Y018353D01*
X025567Y018356D01*
X025512Y018359D01*
X025335Y018362D01*
Y018638D01*
X025388Y018638D01*
X025608Y018653D01*
X025611Y018656D01*
Y018344D01*
D02*
G37*
G36*
X027055Y018316D02*
X027052Y018326D01*
X027044Y018335D01*
X02703Y018342D01*
X027011Y018349D01*
X026986Y018355D01*
X026956Y01836D01*
X026878Y018366D01*
X026779Y018368D01*
Y018643D01*
X026832Y018644D01*
X026956Y018654D01*
X026986Y018659D01*
X027011Y018666D01*
X02703Y018675D01*
X027044Y018684D01*
X027052Y018695D01*
X027055Y018707D01*
Y018316D01*
D02*
G37*
G36*
X016758Y018459D02*
X016737Y01845D01*
X016718Y018434D01*
X016702Y018411D01*
X016688Y018382D01*
X016677Y018346D01*
X016668Y018304D01*
X016662Y018256D01*
X016658Y018201D01*
X016657Y01814D01*
X016263D01*
X016262Y018201D01*
X016254Y018304D01*
X016246Y018346D01*
X016237Y018381D01*
X016225Y01841D01*
X016211Y018433D01*
X016196Y018449D01*
X016178Y018458D01*
X016157Y018461D01*
X016781Y018463D01*
X016758Y018459D01*
D02*
G37*
G36*
X023438Y018403D02*
X023428Y018117D01*
X023152Y01845D01*
X02329D01*
X023438Y018403D01*
D02*
G37*
G36*
X014489Y018278D02*
X014841Y018279D01*
Y018001D01*
X014837Y018001D01*
X014777Y018002D01*
X014489Y018002D01*
Y017931D01*
X014486Y017944D01*
X014478Y017956D01*
X014464Y017967D01*
X014445Y017976D01*
X01442Y017984D01*
X01439Y017991D01*
X014354Y017996D01*
X014313Y017999D01*
X014213Y018002D01*
Y018278D01*
X014266Y018279D01*
X01439Y018289D01*
X01442Y018296D01*
X014445Y018304D01*
X014464Y018313D01*
X014478Y018324D01*
X014486Y018336D01*
X014489Y018349D01*
Y018278D01*
D02*
G37*
G36*
X015475Y018347D02*
X015487Y018345D01*
X015506Y018343D01*
X015613Y018339D01*
X015865Y018337D01*
Y017943D01*
X015471Y017931D01*
Y018349D01*
X015475Y018347D01*
D02*
G37*
G36*
X040154Y017875D02*
X040153Y017902D01*
X040146Y017925D01*
X040131Y017946D01*
X04011Y017963D01*
X040081Y017978D01*
X040046Y017991D01*
X040004Y018D01*
X039954Y018007D01*
X039898Y018011D01*
X039835Y018013D01*
X039862Y018288D01*
X039926Y01829D01*
X040034Y018301D01*
X040079Y01831D01*
X040117Y018323D01*
X040149Y018338D01*
X040174Y018356D01*
X040193Y018376D01*
X040205Y018399D01*
X040212Y018425D01*
X040154Y017875D01*
D02*
G37*
G36*
X024317Y017829D02*
X024318Y017825D01*
X02432Y017821D01*
X024323Y017816D01*
X024328Y01781D01*
X024339Y017796D01*
X024355Y017779D01*
X024364Y017769D01*
X024281Y017686D01*
X024271Y017695D01*
X02424Y017722D01*
X024234Y017727D01*
X024229Y01773D01*
X024225Y017732D01*
X024221Y017733D01*
X024218Y017733D01*
X024317Y017832D01*
X024317Y017829D01*
D02*
G37*
G36*
X032961Y017606D02*
X03296Y017617D01*
X032957Y017627D01*
X032951Y017636D01*
X032942Y017644D01*
X032932Y01765D01*
X032919Y017656D01*
X032903Y01766D01*
X032885Y017663D01*
X032865Y017664D01*
X032842Y017665D01*
Y017783D01*
X032865Y017784D01*
X032885Y017785D01*
X032903Y017788D01*
X032919Y017793D01*
X032932Y017798D01*
X032942Y017804D01*
X032951Y017812D01*
X032957Y017821D01*
X03296Y017831D01*
X032961Y017842D01*
Y017606D01*
D02*
G37*
G36*
X027056D02*
X027055Y017617D01*
X027051Y017627D01*
X027045Y017636D01*
X027037Y017644D01*
X027026Y01765D01*
X027013Y017656D01*
X026997Y01766D01*
X02698Y017663D01*
X026959Y017664D01*
X026937Y017665D01*
Y017783D01*
X026959Y017784D01*
X02698Y017785D01*
X026997Y017788D01*
X027013Y017793D01*
X027026Y017798D01*
X027037Y017804D01*
X027045Y017812D01*
X027051Y017821D01*
X027055Y017831D01*
X027056Y017842D01*
Y017606D01*
D02*
G37*
G36*
X015475Y017675D02*
X015487Y017671D01*
X015506Y017667D01*
X015534Y017663D01*
X015613Y017658D01*
X015865Y017654D01*
Y01726D01*
X015471Y017261D01*
Y01768D01*
X015475Y017675D01*
D02*
G37*
G36*
X024819Y017292D02*
X02482Y017285D01*
X024822Y017278D01*
X024825Y01727D01*
X024829Y017262D01*
X024835Y017254D01*
X024841Y017246D01*
X024848Y017237D01*
X024864Y017219D01*
X024781Y017136D01*
X024772Y017145D01*
X024754Y017159D01*
X024746Y017165D01*
X024738Y017171D01*
X02473Y017175D01*
X024722Y017178D01*
X024715Y01718D01*
X024708Y017181D01*
X024701Y017182D01*
X024818Y017299D01*
X024819Y017292D01*
D02*
G37*
G36*
X027056Y016818D02*
X027055Y01683D01*
X027051Y01684D01*
X027045Y016849D01*
X027037Y016856D01*
X027026Y016863D01*
X027013Y016868D01*
X026997Y016872D01*
X02698Y016875D01*
X026959Y016877D01*
X026937Y016878D01*
Y016996D01*
X026959Y016996D01*
X02698Y016998D01*
X026997Y017001D01*
X027013Y017005D01*
X027026Y01701D01*
X027037Y017017D01*
X027045Y017025D01*
X027051Y017033D01*
X027055Y017043D01*
X027056Y017055D01*
Y016818D01*
D02*
G37*
G36*
X016226Y01745D02*
X016399Y017301D01*
X016445Y017269D01*
X016486Y017245D01*
X016522Y01723D01*
X016551Y017224D01*
X016576Y017227D01*
X016594Y017239D01*
X016157Y016802D01*
X016169Y01682D01*
X016172Y016845D01*
X016166Y016874D01*
X016151Y01691D01*
X016127Y016951D01*
X016095Y016997D01*
X016054Y017049D01*
X015946Y01717D01*
X015879Y017239D01*
X016157Y017517D01*
X016226Y01745D01*
D02*
G37*
G36*
X033748Y017121D02*
X033756Y017111D01*
X03377Y017103D01*
X033789Y017095D01*
X033814Y017089D01*
X033844Y017084D01*
X03388Y01708D01*
X033968Y017075D01*
X034021Y017074D01*
Y016799D01*
X033968Y016798D01*
X033844Y01679D01*
X033814Y016784D01*
X033789Y016778D01*
X03377Y01677D01*
X033756Y016762D01*
X033748Y016752D01*
X033745Y016741D01*
Y017132D01*
X033748Y017121D01*
D02*
G37*
G36*
X025269Y016492D02*
X02527Y016485D01*
X025272Y016478D01*
X025275Y01647D01*
X025279Y016462D01*
X025285Y016454D01*
X025291Y016446D01*
X025298Y016437D01*
X025314Y016419D01*
X025231Y016336D01*
X025222Y016345D01*
X025204Y016359D01*
X025196Y016365D01*
X025188Y016371D01*
X02518Y016375D01*
X025172Y016378D01*
X025165Y01638D01*
X025158Y016381D01*
X025151Y016382D01*
X025268Y016499D01*
X025269Y016492D01*
D02*
G37*
G36*
X016905Y016725D02*
X016872Y016713D01*
X016843Y016694D01*
X016817Y016666D01*
X016796Y016631D01*
X016778Y016587D01*
X016764Y016536D01*
X016755Y016477D01*
X016749Y01641D01*
X016747Y016335D01*
X016353D01*
X016351Y01641D01*
X016345Y016477D01*
X016336Y016536D01*
X016322Y016587D01*
X016304Y016631D01*
X016283Y016666D01*
X016257Y016694D01*
X016228Y016713D01*
X016195Y016725D01*
X016157Y016729D01*
X016942D01*
X016905Y016725D01*
D02*
G37*
G36*
X014451Y016696D02*
X014464Y016689D01*
X014475Y016675D01*
X014483Y016654D01*
X014488Y016627D01*
X014489Y016592D01*
X015339D01*
X015348Y016587D01*
X015345Y016571D01*
X015329Y016545D01*
X015303Y016509D01*
X015264Y016462D01*
X015076Y016259D01*
X014892Y016072D01*
X014335Y016628D01*
X014364Y016656D01*
X01439Y016676D01*
X014413Y01669D01*
X014434Y016697D01*
X014451Y016696D01*
D02*
G37*
G36*
X027056Y016031D02*
X027055Y016042D01*
X027051Y016052D01*
X027045Y016061D01*
X027037Y016069D01*
X027026Y016075D01*
X027013Y016081D01*
X026997Y016085D01*
X02698Y016088D01*
X026959Y01609D01*
X026937Y01609D01*
Y016208D01*
X026959Y016209D01*
X02698Y016211D01*
X026997Y016214D01*
X027013Y016218D01*
X027026Y016223D01*
X027037Y01623D01*
X027045Y016237D01*
X027051Y016246D01*
X027055Y016256D01*
X027056Y016267D01*
Y016031D01*
D02*
G37*
G36*
X033748Y016334D02*
X033756Y016324D01*
X03377Y016316D01*
X033789Y016308D01*
X033814Y016302D01*
X033844Y016297D01*
X03388Y016293D01*
X033968Y016288D01*
X034021Y016287D01*
Y016012D01*
X033968Y016011D01*
X033844Y016002D01*
X033814Y015997D01*
X033789Y015991D01*
X03377Y015983D01*
X033756Y015975D01*
X033748Y015965D01*
X033745Y015954D01*
Y016345D01*
X033748Y016334D01*
D02*
G37*
G36*
X040155Y015874D02*
X040154Y015901D01*
X040147Y015924D01*
X040132Y015945D01*
X040111Y015962D01*
X040082Y015977D01*
X040047Y01599D01*
X040004Y015999D01*
X039955Y016006D01*
X039899Y01601D01*
X039835Y016012D01*
X039863Y016287D01*
X039926Y016289D01*
X040035Y0163D01*
X040079Y016309D01*
X040117Y016322D01*
X040149Y016337D01*
X040174Y016355D01*
X040193Y016375D01*
X040206Y016398D01*
X040212Y016424D01*
X040155Y015874D01*
D02*
G37*
G36*
X02784Y015418D02*
X027843Y015408D01*
X027849Y015399D01*
X027858Y015391D01*
X027868Y015385D01*
X027882Y01538D01*
X027897Y015375D01*
X027915Y015372D01*
X027935Y015371D01*
X027958Y01537D01*
Y015252D01*
X027935Y015251D01*
X027915Y01525D01*
X027897Y015247D01*
X027882Y015242D01*
X027868Y015237D01*
X027858Y015231D01*
X027849Y015223D01*
X027843Y015214D01*
X02784Y015204D01*
X027839Y015193D01*
Y015429D01*
X02784Y015418D01*
D02*
G37*
G36*
X033748Y015546D02*
X033756Y015537D01*
X03377Y015528D01*
X033789Y01552D01*
X033814Y015514D01*
X033844Y015509D01*
X03388Y015505D01*
X033968Y0155D01*
X034021Y0155D01*
Y015224D01*
X033968Y015223D01*
X033844Y015215D01*
X033814Y01521D01*
X033789Y015203D01*
X03377Y015196D01*
X033756Y015187D01*
X033748Y015177D01*
X033745Y015166D01*
Y015557D01*
X033748Y015546D01*
D02*
G37*
G36*
X037503Y014915D02*
X037473Y014843D01*
X035045D01*
X034967Y014892D01*
X034906Y014896D01*
X034905Y014895D01*
X034899Y014895D01*
X034893Y014892D01*
X034889Y014892D01*
X034839D01*
X034827Y0149D01*
X03475Y014915D01*
X034673Y0149D01*
X034661Y014892D01*
X034533D01*
Y014782D01*
X034527Y014776D01*
X0341D01*
Y01516D01*
X034505D01*
X034533Y015132D01*
Y015022D01*
X034661D01*
X034673Y015014D01*
X03475Y014998D01*
X034827Y015014D01*
X034839Y015022D01*
X034967D01*
Y015311D01*
X037092D01*
X0371Y015319D01*
X037503Y014915D01*
D02*
G37*
G36*
X034907Y01482D02*
X034911Y01481D01*
X034917Y014801D01*
X034925Y014794D01*
X034936Y014787D01*
X034949Y014782D01*
X03495Y014782D01*
X035012Y014776D01*
X035099Y014773D01*
X03515Y014773D01*
Y014655D01*
X035099Y014654D01*
X034942Y014643D01*
X034936Y01464D01*
X034925Y014634D01*
X034917Y014626D01*
X034911Y014618D01*
X034907Y014608D01*
X034906Y014597D01*
Y014639D01*
X034891Y014636D01*
X034872Y01463D01*
X034857Y014624D01*
X034847Y014616D01*
Y014811D01*
X034857Y014804D01*
X034872Y014797D01*
X034891Y014792D01*
X034906Y014788D01*
Y014831D01*
X034907Y01482D01*
D02*
G37*
G36*
X038097Y014271D02*
Y012548D01*
X038047Y01247D01*
X038044Y012408D01*
X038044Y012407D01*
X038044Y012402D01*
X038047Y012395D01*
X038047Y012391D01*
Y012113D01*
X038047Y012109D01*
X038044Y012103D01*
X038044Y012097D01*
X038044Y012096D01*
X038047Y012035D01*
X038097Y011957D01*
Y010264D01*
X037747Y009914D01*
X037743Y009912D01*
X037722Y009902D01*
X037696Y009892D01*
X037665Y009884D01*
X03763Y009877D01*
X037591Y009871D01*
X037496Y009865D01*
X037458Y009865D01*
X03744Y009869D01*
X03727Y009835D01*
X037126Y009739D01*
X03703Y009595D01*
X036996Y009425D01*
X03703Y009255D01*
X037126Y009111D01*
X037205Y009059D01*
X037181Y00898D01*
X035153D01*
X035105Y009053D01*
X035106Y009059D01*
X035244Y009151D01*
X03534Y009295D01*
X035374Y009465D01*
X03534Y009635D01*
X035244Y009779D01*
X0351Y009875D01*
X03493Y009909D01*
X03476Y009875D01*
X034616Y009779D01*
X03452Y009635D01*
X034486Y009465D01*
X03452Y009295D01*
X034616Y009151D01*
X034754Y009059D01*
X034755Y009053D01*
X034707Y00898D01*
X030749D01*
X030725Y009059D01*
X030804Y009111D01*
X0309Y009255D01*
X030934Y009425D01*
X03093Y009443D01*
X03093Y009481D01*
X030936Y009576D01*
X030942Y009615D01*
X030949Y00965D01*
X030957Y009681D01*
X030967Y009707D01*
X030977Y009728D01*
X030979Y009732D01*
X031181Y009933D01*
X031181Y009933D01*
X031218Y010025D01*
Y011957D01*
X031268Y012035D01*
X031271Y012096D01*
X031271Y012097D01*
X031271Y012103D01*
X031268Y012109D01*
X031268Y012113D01*
Y01247D01*
X030912D01*
Y012113D01*
X030912Y012109D01*
X030908Y012103D01*
X030908Y012097D01*
X030908Y012096D01*
X030912Y012035D01*
X030961Y011957D01*
Y01161D01*
X030882Y011586D01*
X030834Y011659D01*
X030821Y011667D01*
X030799Y01169D01*
X030738Y011763D01*
X030714Y011796D01*
X030694Y011826D01*
X030678Y011854D01*
X030667Y01188D01*
X030659Y011903D01*
X030658Y011907D01*
Y012028D01*
X030659Y012033D01*
X03066Y012035D01*
X03066Y012035D01*
X030717D01*
Y01247D01*
X03036D01*
Y012382D01*
X030359Y012381D01*
X030354Y01238D01*
X028805D01*
X028732Y012406D01*
X028728Y012467D01*
X028728Y012546D01*
X028803Y012621D01*
X0314D01*
X0314Y012621D01*
X031491Y012659D01*
X032141Y013309D01*
X032141Y013309D01*
X032179Y0134D01*
X032179Y0134D01*
Y0137D01*
X032321D01*
Y01355D01*
X032321Y01355D01*
X032359Y013459D01*
X033009Y012809D01*
X033009Y012809D01*
X0331Y012771D01*
X0331Y012771D01*
X035148D01*
X035271Y012648D01*
Y012545D01*
X035222Y012467D01*
X035218Y012406D01*
X035219Y012405D01*
X035219Y012399D01*
X035222Y012393D01*
X035222Y012389D01*
Y012111D01*
X035222Y012107D01*
X035219Y012101D01*
X035219Y012095D01*
X035218Y012094D01*
X035222Y012033D01*
X035235D01*
X035256Y011954D01*
X035214Y011912D01*
X035193Y0119D01*
X035168Y011889D01*
X034944Y011817D01*
X034886Y011802D01*
X034886Y011802D01*
X034885Y011802D01*
X034877Y011796D01*
X03482Y011785D01*
X034676Y011689D01*
X03458Y011545D01*
X034546Y011375D01*
X03458Y011205D01*
X034676Y011061D01*
X03482Y010965D01*
X03499Y010931D01*
X03516Y010965D01*
X035304Y011061D01*
X035314Y011076D01*
X035341Y011104D01*
X035412Y011166D01*
X035444Y01119D01*
X035474Y01121D01*
X035501Y011226D01*
X035526Y011237D01*
X035549Y011245D01*
X035553Y011246D01*
X036904D01*
X036908Y011245D01*
X03693Y011237D01*
X036954Y011225D01*
X03698Y011209D01*
X037007Y011189D01*
X037036Y011165D01*
X0371Y011101D01*
X037133Y011062D01*
X037137Y01106D01*
X037156Y011031D01*
X0373Y010935D01*
X03747Y010901D01*
X03764Y010935D01*
X037784Y011031D01*
X03788Y011175D01*
X037914Y011345D01*
X03788Y011515D01*
X037784Y011659D01*
X037769Y011669D01*
X037741Y011696D01*
X037679Y011767D01*
X037655Y011799D01*
X037635Y011829D01*
X037619Y011856D01*
X037608Y011881D01*
X0376Y011904D01*
X037599Y011908D01*
Y011955D01*
X037665Y012021D01*
X037679Y012031D01*
X037686Y012035D01*
X037715D01*
X037725Y012031D01*
X037729Y012033D01*
X037735Y012032D01*
X037739Y012035D01*
X037853D01*
Y01247D01*
X037496D01*
Y012382D01*
X037495Y012381D01*
X03749Y01238D01*
X035655D01*
X035602Y012399D01*
X035578Y012467D01*
X035578D01*
X035529Y012545D01*
Y012701D01*
X035529Y012701D01*
X035491Y012792D01*
X035491Y012792D01*
X035292Y012991D01*
X035201Y013029D01*
X035201Y013029D01*
X033153D01*
X032579Y013603D01*
Y0137D01*
X0337D01*
X03375Y01375D01*
X0341D01*
Y014373D01*
X034611D01*
X034688Y014388D01*
X034753Y014432D01*
X034857Y014536D01*
X034889D01*
X034893Y014536D01*
X034899Y014532D01*
X034905Y014533D01*
X034906Y014532D01*
X034967Y014536D01*
X034967Y01457D01*
X035044Y014585D01*
X037783D01*
X038097Y014271D01*
D02*
G37*
G36*
X018718Y014406D02*
X018714Y014444D01*
X018702Y014477D01*
X018683Y014507D01*
X018655Y014532D01*
X018619Y014554D01*
X018576Y014572D01*
X018525Y014585D01*
X018465Y014595D01*
X018398Y014601D01*
X018323Y014603D01*
Y014997D01*
X018398Y014999D01*
X018465Y015005D01*
X018525Y015015D01*
X018576Y015028D01*
X018619Y015046D01*
X018655Y015068D01*
X018683Y015093D01*
X018702Y015123D01*
X018714Y015156D01*
X018718Y015194D01*
Y014406D01*
D02*
G37*
G36*
X033748Y014759D02*
X033756Y014749D01*
X03377Y014741D01*
X033789Y014733D01*
X033814Y014727D01*
X033844Y014721D01*
X03388Y014717D01*
X033968Y014713D01*
X034021Y014712D01*
Y014437D01*
X033968Y014436D01*
X033844Y014427D01*
X033814Y014422D01*
X033789Y014416D01*
X03377Y014408D01*
X033756Y0144D01*
X033748Y01439D01*
X033745Y014379D01*
Y01477D01*
X033748Y014759D01*
D02*
G37*
G36*
X027055Y014379D02*
X027052Y01439D01*
X027044Y0144D01*
X02703Y014408D01*
X027011Y014416D01*
X026986Y014422D01*
X026956Y014427D01*
X02692Y014431D01*
X026832Y014436D01*
X026779Y014437D01*
Y014712D01*
X026832Y014713D01*
X026956Y014721D01*
X026986Y014727D01*
X027011Y014733D01*
X02703Y014741D01*
X027044Y014749D01*
X027052Y014759D01*
X027055Y01477D01*
Y014379D01*
D02*
G37*
G36*
X023462Y014477D02*
X023456Y014468D01*
X02345Y014454D01*
X023445Y014435D01*
X02344Y014411D01*
X023428Y01422D01*
X023428Y014167D01*
X023152Y0145D01*
X02329D01*
X023462Y014477D01*
D02*
G37*
G36*
X014251Y013901D02*
X014243Y013921D01*
X01422Y013939D01*
X01418Y013955D01*
X014125Y013968D01*
X014054Y01398D01*
X013968Y013989D01*
X013613Y014005D01*
X013464Y014006D01*
Y014794D01*
X013613Y014795D01*
X014125Y014832D01*
X01418Y014845D01*
X01422Y014861D01*
X014243Y014879D01*
X014251Y014899D01*
Y013901D01*
D02*
G37*
G36*
X02661Y013829D02*
X0237D01*
X0237Y013829D01*
X023609Y013791D01*
X022509Y012691D01*
X022471Y0126D01*
X022471Y0126D01*
Y012396D01*
X02247Y012394D01*
X022468Y012389D01*
X022465Y012386D01*
X022462Y012383D01*
X022457Y012381D01*
X022455Y01238D01*
X021734D01*
X021729Y012381D01*
X021728Y012382D01*
Y012467D01*
X021372D01*
Y012111D01*
X021372Y012107D01*
X021369Y012101D01*
X021369Y012095D01*
X021368Y012094D01*
X021372Y012033D01*
X021421Y011955D01*
Y011888D01*
X021397Y011864D01*
X021393Y011862D01*
X021372Y011852D01*
X021346Y011842D01*
X021315Y011834D01*
X02128Y011827D01*
X021241Y011821D01*
X021146Y011815D01*
X021108Y011815D01*
X02109Y011819D01*
X02092Y011785D01*
X020776Y011689D01*
X02068Y011545D01*
X020646Y011375D01*
X02068Y011205D01*
X020776Y011061D01*
X02092Y010965D01*
X02109Y010931D01*
X02126Y010965D01*
X021404Y011061D01*
X021411Y011072D01*
X021431Y011091D01*
X021506Y011152D01*
X021539Y011175D01*
X02157Y011195D01*
X021598Y011211D01*
X021624Y011223D01*
X021647Y01123D01*
X021651Y011231D01*
X023005D01*
X023009Y01123D01*
X023032Y011222D01*
X023056Y01121D01*
X023083Y011195D01*
X023112Y011174D01*
X023142Y01115D01*
X023209Y011087D01*
X023245Y011049D01*
X023245Y011049D01*
X023256Y011031D01*
X0234Y010935D01*
X02357Y010901D01*
X02374Y010935D01*
X023884Y011031D01*
X023968Y011158D01*
X024047Y011139D01*
Y010114D01*
X023847Y009914D01*
X023843Y009912D01*
X023822Y009902D01*
X023796Y009892D01*
X023765Y009884D01*
X02373Y009877D01*
X023691Y009871D01*
X023596Y009865D01*
X023558Y009865D01*
X02354Y009869D01*
X02337Y009835D01*
X023226Y009739D01*
X02313Y009595D01*
X023096Y009425D01*
X02313Y009255D01*
X023226Y009111D01*
X023305Y009059D01*
X023281Y00898D01*
X021253D01*
X021205Y009053D01*
X021206Y009059D01*
X021344Y009151D01*
X02144Y009295D01*
X021474Y009465D01*
X02144Y009635D01*
X021344Y009779D01*
X0212Y009875D01*
X02103Y009909D01*
X02086Y009875D01*
X020716Y009779D01*
X02062Y009635D01*
X020586Y009465D01*
X02062Y009295D01*
X020716Y009151D01*
X020854Y009059D01*
X020855Y009053D01*
X020807Y00898D01*
X0177D01*
Y010217D01*
X017715Y01029D01*
X018485D01*
Y01141D01*
X018386D01*
X018382Y011412D01*
X018364Y011414D01*
X018355Y011417D01*
X018348Y011422D01*
X01834Y011431D01*
X01833Y011446D01*
X018322Y011468D01*
X018314Y011497D01*
X018308Y011533D01*
X018304Y011575D01*
X018303Y011626D01*
X018302Y011628D01*
Y012102D01*
X018333Y012133D01*
X018452D01*
Y012193D01*
X018523Y012228D01*
X018535Y012224D01*
X018575Y012165D01*
X018582Y01216D01*
Y012133D01*
X018623D01*
X01866Y012108D01*
X01876Y012088D01*
X01886Y012108D01*
X018897Y012133D01*
X018938D01*
Y01216D01*
X018945Y012165D01*
X019002Y01225D01*
X019022Y01235D01*
Y012822D01*
X019274Y013074D01*
Y013292D01*
X019274Y013292D01*
X021128D01*
X021152Y013213D01*
X021121Y013193D01*
X020921Y012993D01*
X020877Y012927D01*
X020862Y01285D01*
Y01225D01*
X020877Y012173D01*
X020886Y012161D01*
Y012033D01*
X021242D01*
Y012161D01*
X02125Y012173D01*
X021265Y01225D01*
Y012766D01*
X021347Y012848D01*
X0223D01*
X022377Y012864D01*
X022443Y012907D01*
X023433Y013898D01*
X023477Y013963D01*
X023492Y01404D01*
Y01416D01*
X023493Y014161D01*
X023492Y014164D01*
Y014164D01*
X023493Y014167D01*
X023493Y014218D01*
X023503Y014373D01*
X02661D01*
Y013829D01*
D02*
G37*
G36*
X031921Y013453D02*
X031347Y012879D01*
X02875D01*
X02875Y012879D01*
X028659Y012841D01*
X028659Y012841D01*
X02846Y012642D01*
X028422Y012551D01*
X028422Y012551D01*
Y012545D01*
X028372Y012467D01*
X028368Y012406D01*
X028369Y012405D01*
X028368Y012399D01*
X028372Y012393D01*
X028372Y012389D01*
Y012111D01*
X028372Y012107D01*
X028369Y012101D01*
X028369Y012095D01*
X028368Y012094D01*
X028372Y012033D01*
X028421Y011955D01*
Y011908D01*
X028364Y011851D01*
X02836Y011849D01*
X028339Y011839D01*
X028313Y01183D01*
X028283Y011822D01*
X028249Y011817D01*
X028211Y011813D01*
X02812Y011812D01*
X028068Y011814D01*
X028066Y011813D01*
X02804Y011819D01*
X02787Y011785D01*
X027726Y011689D01*
X02763Y011545D01*
X027596Y011375D01*
X02763Y011205D01*
X027726Y011061D01*
X02787Y010965D01*
X02804Y010931D01*
X02821Y010965D01*
X028354Y011061D01*
X028361Y011072D01*
X028381Y011091D01*
X028456Y011152D01*
X028489Y011175D01*
X02852Y011195D01*
X028548Y011211D01*
X028574Y011223D01*
X028597Y01123D01*
X028601Y011231D01*
X029955D01*
X029959Y01123D01*
X029982Y011222D01*
X030006Y01121D01*
X030033Y011195D01*
X030062Y011174D01*
X030092Y01115D01*
X030159Y011087D01*
X030195Y011049D01*
X030195Y011049D01*
X030206Y011031D01*
X03035Y010935D01*
X03052Y010901D01*
X03069Y010935D01*
X030834Y011031D01*
X030882Y011104D01*
X030961Y01108D01*
Y010078D01*
X030797Y009914D01*
X030793Y009912D01*
X030772Y009902D01*
X030746Y009892D01*
X030715Y009884D01*
X03068Y009877D01*
X030641Y009871D01*
X030546Y009865D01*
X030508Y009865D01*
X03049Y009869D01*
X03032Y009835D01*
X030176Y009739D01*
X03008Y009595D01*
X030046Y009425D01*
X03008Y009255D01*
X030176Y009111D01*
X030255Y009059D01*
X030231Y00898D01*
X028203D01*
X028155Y009053D01*
X028156Y009059D01*
X028294Y009151D01*
X02839Y009295D01*
X028424Y009465D01*
X02839Y009635D01*
X028294Y009779D01*
X02815Y009875D01*
X02798Y009909D01*
X02781Y009875D01*
X027666Y009779D01*
X02757Y009635D01*
X027536Y009465D01*
X02757Y009295D01*
X027666Y009151D01*
X027804Y009059D01*
X027805Y009053D01*
X027757Y00898D01*
X023799D01*
X023775Y009059D01*
X023854Y009111D01*
X02395Y009255D01*
X023984Y009425D01*
X02398Y009443D01*
X02398Y009481D01*
X023986Y009576D01*
X023992Y009615D01*
X023999Y00965D01*
X024007Y009681D01*
X024017Y009707D01*
X024027Y009728D01*
X024029Y009732D01*
X024267Y009969D01*
X024267Y009969D01*
X024304Y010061D01*
Y011957D01*
X024354Y012035D01*
X024357Y012096D01*
X024357Y012097D01*
X024357Y012103D01*
X024354Y012109D01*
X024354Y012113D01*
Y01247D01*
X023997D01*
Y012113D01*
X023997Y012109D01*
X023994Y012103D01*
X023994Y012097D01*
X023994Y012096D01*
X023997Y012035D01*
X024047Y011957D01*
Y011551D01*
X023968Y011532D01*
X023924Y011598D01*
X023921Y01161D01*
X023855Y011701D01*
X023829Y01174D01*
X023787Y011813D01*
X023772Y011843D01*
X023761Y011871D01*
X023754Y011894D01*
X023753Y011896D01*
Y011957D01*
X023803Y012035D01*
X023806Y012096D01*
X023806Y012097D01*
X023806Y012103D01*
X023803Y012109D01*
X023803Y012113D01*
Y01247D01*
X023446D01*
Y012382D01*
X023445Y012381D01*
X02344Y01238D01*
X022745D01*
X022743Y012381D01*
X022738Y012383D01*
X022735Y012386D01*
X022732Y012389D01*
X02273Y012394D01*
X022729Y012396D01*
Y012547D01*
X023753Y013571D01*
X02785D01*
X02785Y013571D01*
X027941Y013609D01*
X028032Y0137D01*
X031921D01*
Y013453D01*
D02*
G37*
G36*
X044681Y00898D02*
X037699D01*
X037675Y009059D01*
X037754Y009111D01*
X03785Y009255D01*
X037884Y009425D01*
X03788Y009443D01*
X03788Y009481D01*
X037886Y009576D01*
X037892Y009615D01*
X037899Y00965D01*
X037907Y009681D01*
X037917Y009707D01*
X037927Y009728D01*
X037929Y009732D01*
X038317Y010119D01*
X038317Y010119D01*
X038354Y010211D01*
Y011957D01*
X038404Y012035D01*
X038407Y012096D01*
X038407Y012097D01*
X038407Y012103D01*
X038404Y012109D01*
X038404Y012113D01*
Y012391D01*
X038404Y012395D01*
X038407Y012402D01*
X038407Y012407D01*
X038407Y012408D01*
X038404Y01247D01*
X038354Y012548D01*
Y014324D01*
X038354Y014324D01*
X038317Y014416D01*
X038317Y014416D01*
X038155Y014577D01*
X038185Y01465D01*
X040044D01*
Y013489D01*
X041364D01*
Y01465D01*
X044681D01*
Y00898D01*
D02*
G37*
G36*
X038285Y012504D02*
X038287Y012484D01*
X03829Y012466D01*
X038294Y012451D01*
X038299Y012438D01*
X038305Y012427D01*
X038313Y012419D01*
X038322Y012413D01*
X038332Y01241D01*
X038342Y012408D01*
X038109D01*
X03812Y01241D01*
X03813Y012413D01*
X038138Y012419D01*
X038146Y012427D01*
X038152Y012438D01*
X038157Y012451D01*
X038161Y012466D01*
X038164Y012484D01*
X038166Y012504D01*
X038167Y012527D01*
X038285D01*
X038285Y012504D01*
D02*
G37*
G36*
X03546Y012502D02*
X035461Y012482D01*
X035464Y012464D01*
X035468Y012449D01*
X035474Y012436D01*
X03548Y012425D01*
X035487Y012417D01*
X035496Y012411D01*
X035506Y012407D01*
X035517Y012406D01*
X035283D01*
X035294Y012407D01*
X035304Y012411D01*
X035313Y012417D01*
X03532Y012425D01*
X035326Y012436D01*
X035332Y012449D01*
X035336Y012464D01*
X035339Y012482D01*
X03534Y012502D01*
X035341Y012524D01*
X035459D01*
X03546Y012502D01*
D02*
G37*
G36*
X028611D02*
X028612Y012482D01*
X028615Y012464D01*
X028619Y012449D01*
X028624Y012436D01*
X028631Y012425D01*
X028638Y012417D01*
X028646Y012411D01*
X028656Y012407D01*
X028667Y012406D01*
X028433D01*
X028444Y012407D01*
X028454Y012411D01*
X028463Y012417D01*
X028471Y012425D01*
X028477Y012436D01*
X028483Y012449D01*
X028487Y012464D01*
X02849Y012482D01*
X028491Y012502D01*
X028492Y012524D01*
X02861D01*
X028611Y012502D01*
D02*
G37*
G36*
X02266Y012406D02*
X022664Y012386D01*
X02267Y012368D01*
X022678Y012353D01*
X022689Y01234D01*
X022702Y012329D01*
X022717Y012321D01*
X022735Y012315D01*
X022755Y012311D01*
X022777Y01231D01*
X0226Y012192D01*
X022423Y01231D01*
X022445Y012311D01*
X022465Y012315D01*
X022483Y012321D01*
X022498Y012329D01*
X022511Y01234D01*
X022522Y012353D01*
X02253Y012368D01*
X022536Y012386D01*
X02254Y012406D01*
X022541Y012428D01*
X022659D01*
X02266Y012406D01*
D02*
G37*
G36*
X035517Y012358D02*
X03552Y012348D01*
X035526Y012339D01*
X035535Y012331D01*
X035546Y012325D01*
X035559Y01232D01*
X035574Y012315D01*
X035592Y012313D01*
X035612Y012311D01*
X035635Y01231D01*
Y012192D01*
X035612Y012191D01*
X035592Y01219D01*
X035574Y012187D01*
X035559Y012183D01*
X035546Y012177D01*
X035535Y012171D01*
X035526Y012163D01*
X03552Y012154D01*
X035517Y012144D01*
X035516Y012133D01*
Y012369D01*
X035517Y012358D01*
D02*
G37*
G36*
X030423Y012133D02*
X030422Y012144D01*
X030418Y012154D01*
X030412Y012163D01*
X030404Y012171D01*
X030393Y012177D01*
X03038Y012183D01*
X030364Y012187D01*
X030346Y01219D01*
X030326Y012191D01*
X030303Y012192D01*
Y01231D01*
X030326Y012311D01*
X030346Y012313D01*
X030364Y012315D01*
X03038Y01232D01*
X030393Y012325D01*
X030404Y012331D01*
X030412Y012339D01*
X030418Y012348D01*
X030422Y012358D01*
X030423Y012369D01*
Y012133D01*
D02*
G37*
G36*
X028667Y012358D02*
X02867Y012348D01*
X028676Y012339D01*
X028685Y012331D01*
X028696Y012325D01*
X028709Y01232D01*
X028724Y012315D01*
X028742Y012313D01*
X028762Y012311D01*
X028785Y01231D01*
Y012192D01*
X028762Y012191D01*
X028742Y01219D01*
X028724Y012187D01*
X028709Y012183D01*
X028696Y012177D01*
X028685Y012171D01*
X028676Y012163D01*
X02867Y012154D01*
X028667Y012144D01*
X028666Y012133D01*
Y012369D01*
X028667Y012358D01*
D02*
G37*
G36*
X023509Y012133D02*
X023508Y012144D01*
X023504Y012154D01*
X023498Y012163D01*
X02349Y012171D01*
X023479Y012177D01*
X023466Y012183D01*
X02345Y012187D01*
X023432Y01219D01*
X023412Y012191D01*
X023389Y012192D01*
Y01231D01*
X023412Y012311D01*
X023432Y012313D01*
X02345Y012315D01*
X023466Y01232D01*
X023479Y012325D01*
X02349Y012331D01*
X023498Y012339D01*
X023504Y012348D01*
X023508Y012358D01*
X023509Y012369D01*
Y012133D01*
D02*
G37*
G36*
X021667Y012358D02*
X02167Y012348D01*
X021676Y012339D01*
X021685Y012331D01*
X021696Y012325D01*
X021709Y01232D01*
X021724Y012315D01*
X021742Y012313D01*
X021762Y012311D01*
X021785Y01231D01*
Y012192D01*
X021762Y012191D01*
X021742Y01219D01*
X021724Y012187D01*
X021709Y012183D01*
X021696Y012177D01*
X021685Y012171D01*
X021676Y012163D01*
X02167Y012154D01*
X021667Y012144D01*
X021666Y012133D01*
Y012369D01*
X021667Y012358D01*
D02*
G37*
G36*
X037559Y012262D02*
X037725Y012096D01*
X037715Y012103D01*
X037704Y012106D01*
X037692D01*
X037678Y012103D01*
X037662Y012096D01*
X037644Y012086D01*
X037625Y012073D01*
X037604Y012056D01*
X037557Y012012D01*
X037474Y012096D01*
X037497Y01212D01*
X037534Y012164D01*
X037539Y012171D01*
X037529Y012177D01*
X037516Y012183D01*
X0375Y012187D01*
X037482Y01219D01*
X037462Y012191D01*
X037439Y012192D01*
Y01231D01*
X037462Y012311D01*
X037482Y012313D01*
X0375Y012315D01*
X037516Y01232D01*
X037529Y012325D01*
X03754Y012331D01*
X037548Y012339D01*
X037554Y012348D01*
X037558Y012358D01*
X037559Y012369D01*
Y012262D01*
D02*
G37*
G36*
X030336Y012103D02*
X03036Y012035D01*
X03036D01*
X0304Y011956D01*
Y011909D01*
X030399Y011905D01*
X030392Y011883D01*
X03038Y011858D01*
X030364Y011831D01*
X030344Y011802D01*
X03032Y011771D01*
X030257Y011702D01*
X030223Y01167D01*
X030206Y011659D01*
X030199Y011648D01*
X030179Y011629D01*
X030104Y011568D01*
X030071Y011545D01*
X03004Y011525D01*
X030012Y011509D01*
X029986Y011497D01*
X029963Y01149D01*
X029959Y011489D01*
X028605D01*
X028601Y01149D01*
X028578Y011498D01*
X028554Y01151D01*
X028527Y011525D01*
X028501Y011544D01*
X028501Y011545D01*
X028509Y011582D01*
X028519Y011613D01*
X028529Y01164D01*
X02854Y011661D01*
X028542Y011664D01*
X028641Y011764D01*
X028641Y011764D01*
X028679Y011855D01*
X028679Y011855D01*
Y011955D01*
X028728Y012033D01*
X028728D01*
X028752Y012101D01*
X028805Y012122D01*
X030284D01*
X030336Y012103D01*
D02*
G37*
G36*
X023422D02*
X023446Y012035D01*
X023446D01*
X023496Y011957D01*
Y011912D01*
X023494Y011907D01*
X023486Y011886D01*
X023475Y011864D01*
X023459Y011839D01*
X023438Y011814D01*
X023414Y011787D01*
X023349Y01173D01*
X02331Y0117D01*
X023305Y011691D01*
X023256Y011659D01*
X023249Y011648D01*
X023229Y011629D01*
X023154Y011568D01*
X023121Y011545D01*
X02309Y011525D01*
X023062Y011509D01*
X023036Y011497D01*
X023013Y01149D01*
X023009Y011489D01*
X021655D01*
X021651Y01149D01*
X021628Y011498D01*
X021604Y01151D01*
X021577Y011525D01*
X021548Y011546D01*
X02154Y011552D01*
X021542Y011565D01*
X021549Y0116D01*
X021557Y011631D01*
X021567Y011657D01*
X021577Y011678D01*
X021579Y011682D01*
X021641Y011744D01*
X021641Y011744D01*
X021679Y011835D01*
Y011955D01*
X021728Y012033D01*
X021728D01*
X021752Y012101D01*
X021805Y012122D01*
X02337D01*
X023422Y012103D01*
D02*
G37*
G36*
X037356Y012043D02*
X037341Y012008D01*
X037341Y012008D01*
Y011908D01*
X03734Y011904D01*
X037332Y011881D01*
X037321Y011856D01*
X037305Y011829D01*
X037285Y011799D01*
X037261Y011767D01*
X037199Y011696D01*
X037171Y011669D01*
X037156Y011659D01*
X037152Y011652D01*
X037139Y011641D01*
X0371Y01161D01*
X037026Y011558D01*
X036995Y011539D01*
X036965Y011524D01*
X036939Y011512D01*
X036916Y011505D01*
X036912Y011504D01*
X035553D01*
X035549Y011505D01*
X035526Y011513D01*
X035501Y011524D01*
X035474Y01154D01*
X035444Y01156D01*
X035412Y011584D01*
X035394Y0116D01*
X035393Y011611D01*
X035392Y011645D01*
X035394Y011676D01*
X035398Y011702D01*
X035405Y011725D01*
X035413Y011744D01*
X035416Y011749D01*
X035491Y011824D01*
X035491Y011824D01*
X035529Y011915D01*
X035529Y011915D01*
Y011955D01*
X035578Y012033D01*
X035578D01*
X035602Y012101D01*
X035655Y012122D01*
X037303D01*
X037356Y012043D01*
D02*
G37*
G36*
X038332Y012095D02*
X038322Y012091D01*
X038313Y012085D01*
X038305Y012077D01*
X038299Y012066D01*
X038294Y012053D01*
X03829Y012038D01*
X038287Y01202D01*
X038285Y012D01*
X038285Y011978D01*
X038167D01*
X038166Y012D01*
X038164Y01202D01*
X038161Y012038D01*
X038157Y012053D01*
X038152Y012066D01*
X038146Y012077D01*
X038138Y012085D01*
X03813Y012091D01*
X03812Y012095D01*
X038109Y012096D01*
X038342D01*
X038332Y012095D01*
D02*
G37*
G36*
X031196D02*
X031186Y012091D01*
X031177Y012085D01*
X031169Y012077D01*
X031163Y012066D01*
X031158Y012053D01*
X031154Y012038D01*
X031151Y01202D01*
X031149Y012D01*
X031149Y011978D01*
X031031D01*
X03103Y012D01*
X031028Y01202D01*
X031025Y012038D01*
X031021Y012053D01*
X031016Y012066D01*
X03101Y012077D01*
X031002Y012085D01*
X030994Y012091D01*
X030984Y012095D01*
X030973Y012096D01*
X031207D01*
X031196Y012095D01*
D02*
G37*
G36*
X030636D02*
X030626Y012091D01*
X030617Y012085D01*
X03061Y012077D01*
X030603Y012066D01*
X030598Y012053D01*
X030594Y012038D01*
X030591Y01202D01*
X030589Y012D01*
X030588Y011978D01*
X03047D01*
X03047Y012D01*
X030466Y012038D01*
X030462Y012053D01*
X030458Y012066D01*
X030453Y012077D01*
X030446Y012085D01*
X030439Y012091D01*
X030431Y012095D01*
X030422Y012096D01*
X030647D01*
X030636Y012095D01*
D02*
G37*
G36*
X024282D02*
X024272Y012091D01*
X024263Y012085D01*
X024255Y012077D01*
X024249Y012066D01*
X024244Y012053D01*
X02424Y012038D01*
X024237Y01202D01*
X024235Y012D01*
X024235Y011978D01*
X024117D01*
X024116Y012D01*
X024114Y01202D01*
X024111Y012038D01*
X024107Y012053D01*
X024102Y012066D01*
X024096Y012077D01*
X024088Y012085D01*
X02408Y012091D01*
X02407Y012095D01*
X024059Y012096D01*
X024293D01*
X024282Y012095D01*
D02*
G37*
G36*
X02373D02*
X02372Y012091D01*
X023712Y012085D01*
X023704Y012077D01*
X023698Y012066D01*
X023693Y012053D01*
X023689Y012038D01*
X023686Y01202D01*
X023684Y012D01*
X023683Y011978D01*
X023565D01*
X023565Y012D01*
X023563Y01202D01*
X02356Y012038D01*
X023556Y012053D01*
X023551Y012066D01*
X023545Y012077D01*
X023537Y012085D01*
X023528Y012091D01*
X023518Y012095D01*
X023507Y012096D01*
X023741D01*
X02373Y012095D01*
D02*
G37*
G36*
X035506Y012093D02*
X035496Y012089D01*
X035487Y012083D01*
X03548Y012075D01*
X035474Y012064D01*
X035468Y012051D01*
X035464Y012036D01*
X035461Y012018D01*
X03546Y011998D01*
X035459Y011976D01*
X035341D01*
X03534Y011998D01*
X035339Y012018D01*
X035336Y012036D01*
X035332Y012051D01*
X035326Y012064D01*
X03532Y012075D01*
X035313Y012083D01*
X035304Y012089D01*
X035294Y012093D01*
X035283Y012094D01*
X035517D01*
X035506Y012093D01*
D02*
G37*
G36*
X028656D02*
X028646Y012089D01*
X028637Y012083D01*
X02863Y012075D01*
X028624Y012064D01*
X028618Y012051D01*
X028614Y012036D01*
X028611Y012018D01*
X02861Y011998D01*
X028609Y011976D01*
X028491D01*
X02849Y011998D01*
X028489Y012018D01*
X028486Y012036D01*
X028482Y012051D01*
X028476Y012064D01*
X02847Y012075D01*
X028463Y012083D01*
X028454Y012089D01*
X028444Y012093D01*
X028433Y012094D01*
X028667D01*
X028656Y012093D01*
D02*
G37*
G36*
X021656D02*
X021646Y012089D01*
X021637Y012083D01*
X02163Y012075D01*
X021624Y012064D01*
X021618Y012051D01*
X021614Y012036D01*
X021611Y012018D01*
X02161Y011998D01*
X021609Y011976D01*
X021491D01*
X02149Y011998D01*
X021489Y012018D01*
X021486Y012036D01*
X021482Y012051D01*
X021476Y012064D01*
X02147Y012075D01*
X021463Y012083D01*
X021454Y012089D01*
X021444Y012093D01*
X021433Y012094D01*
X021667D01*
X021656Y012093D01*
D02*
G37*
G36*
X028515Y011736D02*
X028498Y011717D01*
X028483Y011693D01*
X028469Y011666D01*
X028457Y011634D01*
X028446Y011598D01*
X028437Y011558D01*
X02843Y011517D01*
X028459Y011494D01*
X028492Y011471D01*
X028523Y011452D01*
X028553Y011438D01*
X028583Y011427D01*
X028611Y011421D01*
X028637Y011419D01*
X028633Y011301D01*
X028607Y011299D01*
X028579Y011293D01*
X02855Y011283D01*
X028519Y011269D01*
X028487Y011251D01*
X028452Y011229D01*
X028416Y011203D01*
X028338Y01114D01*
X028297Y011102D01*
X028312Y011473D01*
X028065Y011749D01*
X028119Y011747D01*
X028215Y011748D01*
X028257Y011752D01*
X028296Y011759D01*
X028332Y011767D01*
X028363Y011778D01*
X028391Y011792D01*
X028416Y011807D01*
X028436Y011825D01*
X028515Y011736D01*
D02*
G37*
G36*
X030588Y011939D02*
X03059Y011913D01*
X030596Y011885D01*
X030606Y011856D01*
X03062Y011825D01*
X030638Y011793D01*
X030661Y011759D01*
X030687Y011723D01*
X030751Y011647D01*
X030789Y011606D01*
X030264Y011619D01*
X030303Y011657D01*
X030369Y011729D01*
X030396Y011763D01*
X030419Y011796D01*
X030437Y011828D01*
X030452Y011858D01*
X030462Y011887D01*
X030468Y011915D01*
X03047Y011942D01*
X030588Y011939D01*
D02*
G37*
G36*
X023683Y011927D02*
X023685Y011904D01*
X023691Y011877D01*
X0237Y011848D01*
X023713Y011817D01*
X02373Y011783D01*
X023774Y011706D01*
X023802Y011664D01*
X023869Y011572D01*
X023349Y011648D01*
X02339Y011679D01*
X023459Y011741D01*
X023488Y011771D01*
X023511Y011801D01*
X023531Y011831D01*
X023546Y01186D01*
X023557Y011889D01*
X023563Y011917D01*
X023565Y011945D01*
X023683Y011927D01*
D02*
G37*
G36*
X014251Y011401D02*
X014243Y011421D01*
X01422Y011439D01*
X01418Y011455D01*
X014125Y011468D01*
X014054Y01148D01*
X013968Y011489D01*
X013613Y011505D01*
X013464Y011506D01*
Y012294D01*
X013613Y012295D01*
X014125Y012332D01*
X01418Y012345D01*
X01422Y012361D01*
X014243Y012379D01*
X014251Y012399D01*
Y011401D01*
D02*
G37*
G36*
X018239Y011572D02*
X018243Y011525D01*
X01825Y011483D01*
X01826Y011447D01*
X018272Y011417D01*
X018287Y011392D01*
X018305Y011373D01*
X018326Y011359D01*
X018349Y01135D01*
X018376Y011348D01*
X017824D01*
X017851Y01135D01*
X017874Y011359D01*
X017895Y011373D01*
X017913Y011392D01*
X017928Y011417D01*
X01794Y011447D01*
X01795Y011483D01*
X017957Y011525D01*
X017961Y011572D01*
X017962Y011624D01*
X018238D01*
X018239Y011572D01*
D02*
G37*
G36*
X03539Y011822D02*
X035371Y0118D01*
X035355Y011775D01*
X035343Y011747D01*
X035334Y011716D01*
X035329Y011683D01*
X035327Y011646D01*
X035328Y011607D01*
X035333Y011567D01*
X035371Y011534D01*
X035406Y011507D01*
X035439Y011485D01*
X035471Y011467D01*
X035502Y011452D01*
X035531Y011442D01*
X035559Y011436D01*
X035585Y011434D01*
Y011316D01*
X035559Y011314D01*
X035531Y011308D01*
X035502Y011298D01*
X035471Y011283D01*
X035439Y011265D01*
X035406Y011243D01*
X035371Y011216D01*
X035297Y011151D01*
X035258Y011113D01*
Y011527D01*
X034901Y011739D01*
X034962Y011755D01*
X035191Y011828D01*
X035222Y011842D01*
X035248Y011856D01*
X035269Y01187D01*
X035285Y011884D01*
X03539Y011822D01*
D02*
G37*
G36*
X037531Y011914D02*
X037537Y011886D01*
X037547Y011857D01*
X037562Y011826D01*
X03758Y011794D01*
X037602Y011761D01*
X037629Y011726D01*
X037694Y011652D01*
X037733Y011613D01*
X037223D01*
X037182Y011105D01*
X037147Y011145D01*
X03708Y011212D01*
X037048Y01124D01*
X037016Y011263D01*
X036986Y011282D01*
X036956Y011297D01*
X036927Y011307D01*
X036898Y011314D01*
X036871Y011316D01*
X036881Y011434D01*
X036906Y011436D01*
X036933Y011442D01*
X036962Y011452D01*
X036993Y011465D01*
X037027Y011483D01*
X037062Y011504D01*
X037139Y011558D01*
X03718Y011591D01*
X037215Y011621D01*
X037246Y011652D01*
X037311Y011726D01*
X037338Y011761D01*
X03736Y011794D01*
X037378Y011826D01*
X037393Y011857D01*
X037403Y011886D01*
X037409Y011914D01*
X037411Y01194D01*
X037529D01*
X037531Y011914D01*
D02*
G37*
G36*
X021553Y011754D02*
X021536Y011734D01*
X02152Y01171D01*
X021507Y011682D01*
X021495Y011651D01*
X021485Y011615D01*
X021478Y011576D01*
X021472Y011532D01*
X021471Y011525D01*
X021476Y011521D01*
X021509Y011494D01*
X021542Y011471D01*
X021573Y011452D01*
X021603Y011438D01*
X021633Y011427D01*
X021661Y011421D01*
X021687Y011419D01*
X021683Y011301D01*
X021657Y011299D01*
X021629Y011293D01*
X0216Y011283D01*
X021569Y011269D01*
X021537Y011251D01*
X021502Y011229D01*
X021466Y011203D01*
X021388Y01114D01*
X021347Y011102D01*
X021362Y011481D01*
X021094Y01175D01*
X021149Y01175D01*
X021247Y011757D01*
X021291Y011763D01*
X02133Y01177D01*
X021366Y01178D01*
X021397Y011792D01*
X021425Y011805D01*
X021449Y011821D01*
X021469Y011838D01*
X021553Y011754D01*
D02*
G37*
G36*
X030242Y011093D02*
X030205Y011133D01*
X030134Y011199D01*
X030101Y011226D01*
X030068Y011249D01*
X030037Y011268D01*
X030007Y011282D01*
X029977Y011293D01*
X029949Y011299D01*
X029923Y011301D01*
X029927Y011419D01*
X029953Y011421D01*
X029981Y011427D01*
X03001Y011437D01*
X030041Y011451D01*
X030073Y011469D01*
X030108Y011491D01*
X030144Y011517D01*
X030222Y01158D01*
X030263Y011618D01*
X030242Y011093D01*
D02*
G37*
G36*
X023292D02*
X023255Y011133D01*
X023184Y011199D01*
X023151Y011226D01*
X023118Y011249D01*
X023087Y011268D01*
X023057Y011282D01*
X023027Y011293D01*
X022999Y011299D01*
X022973Y011301D01*
X022977Y011419D01*
X023003Y011421D01*
X023031Y011427D01*
X02306Y011437D01*
X023091Y011451D01*
X023123Y011469D01*
X023158Y011491D01*
X023194Y011517D01*
X023272Y01158D01*
X023313Y011618D01*
X023292Y011093D01*
D02*
G37*
G36*
X037903Y009804D02*
X037886Y009784D01*
X03787Y00976D01*
X037857Y009732D01*
X037845Y009701D01*
X037835Y009665D01*
X037828Y009626D01*
X037822Y009582D01*
X037815Y009484D01*
X037815Y009429D01*
X037444Y0098D01*
X037499Y0098D01*
X037597Y009807D01*
X037641Y009813D01*
X03768Y00982D01*
X037716Y00983D01*
X037747Y009842D01*
X037775Y009855D01*
X037799Y009871D01*
X037819Y009888D01*
X037903Y009804D01*
D02*
G37*
G36*
X030953D02*
X030936Y009784D01*
X03092Y00976D01*
X030907Y009732D01*
X030895Y009701D01*
X030885Y009665D01*
X030878Y009626D01*
X030872Y009582D01*
X030865Y009484D01*
X030865Y009429D01*
X030494Y0098D01*
X030549Y0098D01*
X030647Y009807D01*
X030691Y009813D01*
X03073Y00982D01*
X030766Y00983D01*
X030797Y009842D01*
X030825Y009855D01*
X030849Y009871D01*
X030869Y009888D01*
X030953Y009804D01*
D02*
G37*
G36*
X024003D02*
X023986Y009784D01*
X02397Y00976D01*
X023957Y009732D01*
X023945Y009701D01*
X023935Y009665D01*
X023928Y009626D01*
X023922Y009582D01*
X023915Y009484D01*
X023915Y009429D01*
X023544Y0098D01*
X023599Y0098D01*
X023697Y009807D01*
X023741Y009813D01*
X02378Y00982D01*
X023816Y00983D01*
X023847Y009842D01*
X023875Y009855D01*
X023899Y009871D01*
X023919Y009888D01*
X024003Y009804D01*
D02*
G37*
%LPC*%
G36*
X042367Y026164D02*
X041933D01*
Y026104D01*
X041877Y026056D01*
X041786Y026018D01*
X041786Y026018D01*
X041709Y025941D01*
X041671Y02585D01*
X041671Y02585D01*
Y025603D01*
X041617Y02555D01*
X041545Y025588D01*
X041567Y0257D01*
X041539Y02584D01*
X04146Y02596D01*
X04134Y026039D01*
X0412Y026067D01*
X0409D01*
X04076Y026039D01*
X04064Y02596D01*
X040561Y02584D01*
X040533Y0257D01*
X040561Y02556D01*
X040629Y025458D01*
X040602Y025379D01*
X039553D01*
X039141Y025791D01*
X03905Y025829D01*
X03905Y025829D01*
X038551D01*
X038542Y025831D01*
X038541Y025831D01*
X038539Y02584D01*
X03846Y02596D01*
X03834Y026039D01*
X0382Y026067D01*
X0379D01*
X03776Y026039D01*
X03764Y02596D01*
X037561Y02584D01*
X037533Y0257D01*
X037561Y02556D01*
X03764Y02544D01*
X03776Y025361D01*
X0379Y025333D01*
X0382D01*
X03834Y025361D01*
X03846Y02544D01*
X038539Y02556D01*
X038541Y025569D01*
X038542Y025569D01*
X038551Y025571D01*
X038997D01*
X039409Y025159D01*
X0395Y025121D01*
X040497D01*
X04054Y02506D01*
X04054Y025042D01*
Y02434D01*
X04156D01*
Y024606D01*
X041561Y024606D01*
X041566Y024607D01*
X041855D01*
X041933Y024558D01*
X041994Y024554D01*
X041995Y024555D01*
X042001Y024555D01*
X042007Y024558D01*
X042011Y024558D01*
X042367D01*
Y024914D01*
X042011D01*
X042007Y024914D01*
X042001Y024918D01*
X041995Y024917D01*
X041994Y024918D01*
X041933Y024914D01*
X041855Y024865D01*
X041566D01*
X041561Y024866D01*
X04156Y024867D01*
Y02506D01*
X041558D01*
X041543Y025139D01*
X041591Y025159D01*
X041854Y025422D01*
X041933Y025389D01*
Y025322D01*
X042061D01*
X042073Y025314D01*
X04215Y025298D01*
X042924D01*
X042969Y025252D01*
X043043Y025169D01*
X043069Y025135D01*
X043089Y025106D01*
X043103Y025083D01*
X043103Y025083D01*
Y025041D01*
X0431Y025035D01*
X043103Y025029D01*
Y025025D01*
X043102Y02502D01*
X043103Y025019D01*
Y024893D01*
X043103Y024884D01*
X043099Y024875D01*
X043103Y024814D01*
X043116D01*
X043127Y024649D01*
X043127Y024599D01*
X043128Y024597D01*
Y024444D01*
X043144Y024367D01*
X043187Y024302D01*
X043246Y024243D01*
Y024133D01*
X043603D01*
Y024261D01*
X043611Y024273D01*
X043626Y02435D01*
X043611Y024427D01*
X043603Y024439D01*
Y024567D01*
X043597Y02457D01*
X043534Y024646D01*
X043535Y024737D01*
X04354Y0248D01*
X043541Y024814D01*
X043557D01*
X043561Y024875D01*
X043557Y024884D01*
Y025381D01*
X043557Y025381D01*
X043557Y025406D01*
X043489Y025407D01*
X043484Y025406D01*
X04348Y025406D01*
X043474Y025409D01*
X043468Y025406D01*
X043426D01*
X043425Y025406D01*
X043402Y025419D01*
X043375Y025439D01*
X043256Y02554D01*
X043209Y025586D01*
X043207Y025587D01*
X043151Y025643D01*
X043086Y025686D01*
X043009Y025702D01*
X04215D01*
X042073Y025686D01*
X042061Y025678D01*
X041998D01*
X041958Y025757D01*
X041989Y025798D01*
X042091D01*
X042091Y025798D01*
X042115Y025808D01*
X042367D01*
Y026164D01*
D02*
G37*
G36*
X025709Y025706D02*
X025255D01*
Y025114D01*
X02519Y025079D01*
X025145D01*
X02514Y02508D01*
X025123Y025084D01*
X025108Y02509D01*
X025093Y025097D01*
X025079Y025105D01*
X025074Y025108D01*
X024591Y025591D01*
X0245Y025629D01*
X0245Y025629D01*
X024345D01*
X024267Y025678D01*
X024206Y025682D01*
X024205Y025681D01*
X024199Y025681D01*
X024193Y025678D01*
X024189Y025678D01*
X023833D01*
Y025322D01*
X024189D01*
X024193Y025322D01*
X024199Y025319D01*
X024205Y025319D01*
X024206Y025318D01*
X024267Y025322D01*
X024345Y025371D01*
X024447D01*
X024892Y024926D01*
X024895Y024921D01*
X024903Y024907D01*
X02491Y024892D01*
X024916Y024877D01*
X02492Y02486D01*
X024921Y024855D01*
Y024709D01*
X024921Y024709D01*
X024959Y024618D01*
X025068Y024509D01*
X025159Y024471D01*
X025159Y024471D01*
X025394D01*
X025399Y02447D01*
X0254Y024469D01*
Y024383D01*
X025757D01*
Y024817D01*
X025635D01*
X025589Y024896D01*
X025611Y02495D01*
Y025107D01*
X025612Y025112D01*
X025613Y025114D01*
X025613Y025114D01*
X025709D01*
Y025706D01*
D02*
G37*
G36*
X04215Y024452D02*
X042073Y024436D01*
X042061Y024428D01*
X041933D01*
Y024151D01*
X041933Y024142D01*
X041929Y024133D01*
X041929Y024125D01*
X041929Y024125D01*
X041933Y024072D01*
X041936D01*
X041947Y023908D01*
X041947Y023857D01*
X041948Y023855D01*
Y023734D01*
X041666Y023452D01*
X04065D01*
X040573Y023436D01*
X040507Y023393D01*
X040464Y023327D01*
X040448Y02325D01*
X040464Y023173D01*
X040507Y023107D01*
X040573Y023064D01*
X04065Y023048D01*
X04175D01*
X041827Y023064D01*
X041893Y023107D01*
X042293Y023507D01*
X042336Y023573D01*
X042352Y02365D01*
Y023854D01*
X042353Y023856D01*
X042356Y024031D01*
X042358Y024072D01*
X042367Y024072D01*
X042371Y024125D01*
X042371Y024125D01*
X042371Y024133D01*
X042367Y024142D01*
Y024428D01*
X042239D01*
X042227Y024436D01*
X04215Y024452D01*
D02*
G37*
G36*
X043199Y023868D02*
X043039Y023836D01*
X042904Y023746D01*
X042813Y02361D01*
X042781Y02345D01*
X042813Y02329D01*
X042904Y023154D01*
X043039Y023064D01*
X043199Y023032D01*
X043359Y023064D01*
X043495Y023154D01*
X043586Y02329D01*
X043617Y02345D01*
X043586Y02361D01*
X043495Y023746D01*
X043359Y023836D01*
X043199Y023868D01*
D02*
G37*
G36*
X044575Y022525D02*
X043825D01*
Y021775D01*
X044575D01*
Y022525D01*
D02*
G37*
G36*
X0432Y022532D02*
X043054Y022503D01*
X04293Y02242D01*
X042847Y022296D01*
X042818Y02215D01*
X042847Y022004D01*
X042879Y021956D01*
X04288Y021945D01*
X04289Y021928D01*
X042898Y021913D01*
X042905Y021895D01*
X042911Y021877D01*
X042921Y021831D01*
X042925Y021808D01*
X042929Y021752D01*
X042929Y02173D01*
X042923Y021709D01*
X042895Y021652D01*
X036528D01*
X036525Y021653D01*
X036386Y021654D01*
X03631Y021658D01*
X03631Y021666D01*
X036253Y021669D01*
X036253Y021669D01*
X036249Y021669D01*
X03624Y021666D01*
X03549D01*
Y020846D01*
X03631D01*
Y021163D01*
X036312Y021167D01*
X036314Y021186D01*
X036317Y021195D01*
X036322Y021202D01*
X036331Y02121D01*
X036346Y02122D01*
X036368Y021228D01*
X036397Y021236D01*
X036433Y021242D01*
X036476Y021246D01*
X036526Y021247D01*
X036528Y021248D01*
X04305D01*
X043127Y021264D01*
X043193Y021307D01*
X043275Y02139D01*
X043319Y021455D01*
X043334Y021532D01*
Y02165D01*
X043335Y021652D01*
X043336Y021682D01*
X043338Y021708D01*
X043342Y021732D01*
X043348Y021752D01*
X043354Y02177D01*
X043362Y021785D01*
X04337Y021798D01*
X043379Y02181D01*
X04339Y021819D01*
X043405Y02183D01*
X043411Y02184D01*
X04347Y02188D01*
X043553Y022004D01*
X043582Y02215D01*
X043553Y022296D01*
X04347Y02242D01*
X043346Y022503D01*
X0432Y022532D01*
D02*
G37*
%LPD*%
G36*
X041994Y025869D02*
X041993Y025869D01*
X041989Y025869D01*
X041877Y025868D01*
Y025986D01*
X041899Y025987D01*
X041919Y025989D01*
X041937Y025991D01*
X041952Y025995D01*
X041965Y026001D01*
X041976Y026007D01*
X041984Y026014D01*
X04199Y026023D01*
X041994Y026033D01*
X041995Y026044D01*
X041994Y025869D01*
D02*
G37*
G36*
X038476Y025806D02*
X03848Y025796D01*
X038487Y025788D01*
X038497Y02578D01*
X038509Y025774D01*
X038524Y025768D01*
X038542Y025764D01*
X038563Y025761D01*
X038586Y02576D01*
X038612Y025759D01*
Y025641D01*
X038586Y02564D01*
X038563Y025639D01*
X038542Y025636D01*
X038524Y025632D01*
X038509Y025626D01*
X038497Y02562D01*
X038487Y025612D01*
X03848Y025604D01*
X038476Y025594D01*
X038475Y025582D01*
Y025818D01*
X038476Y025806D01*
D02*
G37*
G36*
X043213Y025492D02*
X043335Y025387D01*
X043368Y025364D01*
X043397Y025348D01*
X043422Y025338D01*
X043443Y025333D01*
X04346Y025336D01*
X043474Y025344D01*
X043165Y025035D01*
X043173Y025048D01*
X043175Y025066D01*
X043171Y025087D01*
X043161Y025112D01*
X043145Y025141D01*
X043122Y025174D01*
X043093Y025211D01*
X043017Y025296D01*
X042969Y025345D01*
X043164Y02554D01*
X043213Y025492D01*
D02*
G37*
G36*
X041994Y024619D02*
X041993Y02463D01*
X041989Y02464D01*
X041983Y024649D01*
X041975Y024656D01*
X041964Y024663D01*
X041951Y024668D01*
X041936Y024672D01*
X041918Y024675D01*
X041898Y024677D01*
X041876Y024677D01*
Y024795D01*
X041898Y024796D01*
X041918Y024798D01*
X041936Y0248D01*
X041951Y024805D01*
X041964Y02481D01*
X041975Y024816D01*
X041983Y024824D01*
X041989Y024832D01*
X041993Y024842D01*
X041994Y024853D01*
Y024619D01*
D02*
G37*
G36*
X041499Y024843D02*
X041502Y024833D01*
X041508Y024824D01*
X041517Y024817D01*
X041527Y02481D01*
X041541Y024805D01*
X041556Y024801D01*
X041574Y024798D01*
X041594Y024796D01*
X041617Y024795D01*
Y024677D01*
X041594Y024677D01*
X041574Y024675D01*
X041556Y024672D01*
X041541Y024668D01*
X041527Y024662D01*
X041517Y024656D01*
X041508Y024648D01*
X041502Y024639D01*
X041499Y024629D01*
X041498Y024618D01*
Y024854D01*
X041499Y024843D01*
D02*
G37*
G36*
X043491Y024872D02*
X043486Y024864D01*
X043482Y02485D01*
X043478Y024831D01*
X043475Y024806D01*
X04347Y02474D01*
X043468Y024599D01*
X043192D01*
X043192Y024652D01*
X043178Y02485D01*
X043174Y024864D01*
X043169Y024872D01*
X043164Y024875D01*
X043496D01*
X043491Y024872D01*
D02*
G37*
G36*
X024207Y025606D02*
X024211Y025596D01*
X024217Y025587D01*
X024225Y02558D01*
X024236Y025574D01*
X024249Y025568D01*
X024264Y025564D01*
X024282Y025561D01*
X024302Y02556D01*
X024324Y025559D01*
Y025441D01*
X024302Y02544D01*
X024282Y025439D01*
X024264Y025436D01*
X024249Y025432D01*
X024236Y025426D01*
X024225Y02542D01*
X024217Y025413D01*
X024211Y025404D01*
X024207Y025394D01*
X024206Y025383D01*
Y025617D01*
X024207Y025606D01*
D02*
G37*
G36*
X025589Y025174D02*
X025579Y02517D01*
X02557Y025164D01*
X025562Y025156D01*
X025556Y025145D01*
X025551Y025132D01*
X025546Y025117D01*
X025543Y025099D01*
X025542Y025079D01*
X025541Y025057D01*
X025423D01*
X025422Y025079D01*
X025421Y025099D01*
X025418Y025117D01*
X025414Y025132D01*
X025408Y025145D01*
X025402Y025156D01*
X025394Y025164D01*
X025385Y02517D01*
X025375Y025174D01*
X025364Y025175D01*
X0256D01*
X025589Y025174D01*
D02*
G37*
G36*
X025008Y025077D02*
X025026Y025063D01*
X025044Y02505D01*
X025063Y025039D01*
X025083Y02503D01*
X025104Y025022D01*
X025125Y025017D01*
X025147Y025012D01*
X025169Y02501D01*
X025193Y025009D01*
X025227Y024891D01*
X025205Y02489D01*
X025185Y024886D01*
X025167Y02488D01*
X025152Y024872D01*
X025139Y024861D01*
X025128Y024848D01*
X02512Y024833D01*
X025114Y024815D01*
X02511Y024795D01*
X025109Y024773D01*
X024991Y024807D01*
X02499Y024831D01*
X024988Y024853D01*
X024983Y024875D01*
X024978Y024896D01*
X02497Y024917D01*
X024961Y024937D01*
X02495Y024956D01*
X024937Y024974D01*
X024923Y024992D01*
X024907Y025009D01*
X024991Y025093D01*
X025008Y025077D01*
D02*
G37*
G36*
X025463Y024482D02*
X025462Y024493D01*
X025458Y024503D01*
X025452Y024512D01*
X025444Y02452D01*
X025433Y024526D01*
X02542Y024532D01*
X025404Y024536D01*
X025386Y024539D01*
X025366Y02454D01*
X025343Y024541D01*
Y024659D01*
X025366Y02466D01*
X025386Y024661D01*
X025404Y024664D01*
X02542Y024669D01*
X025433Y024674D01*
X025444Y02468D01*
X025452Y024688D01*
X025458Y024697D01*
X025462Y024707D01*
X025463Y024718D01*
Y024482D01*
D02*
G37*
G36*
X042303Y02413D02*
X0423Y024122D01*
X042297Y024108D01*
X042294Y024089D01*
X042291Y024034D01*
X042288Y023858D01*
X042012D01*
X042012Y02391D01*
X041997Y02413D01*
X041994Y024133D01*
X042306D01*
X042303Y02413D01*
D02*
G37*
G36*
X043367Y021883D02*
X043348Y02187D01*
X043332Y021854D01*
X043317Y021837D01*
X043305Y021817D01*
X043294Y021795D01*
X043285Y021771D01*
X043279Y021745D01*
X043274Y021717D01*
X043271Y021687D01*
X04327Y021654D01*
X042994Y021722D01*
X042994Y021755D01*
X042989Y021815D01*
X042985Y021843D01*
X042973Y021894D01*
X042966Y021917D01*
X042957Y021939D01*
X042947Y021959D01*
X042936Y021978D01*
X043367Y021883D01*
D02*
G37*
G36*
X036252Y021601D02*
X03626Y021598D01*
X036274Y021596D01*
X036293Y021594D01*
X036384Y021589D01*
X036524Y021588D01*
Y021312D01*
X036472Y021311D01*
X036425Y021307D01*
X036383Y0213D01*
X036347Y02129D01*
X036317Y021278D01*
X036292Y021263D01*
X036273Y021245D01*
X036259Y021224D01*
X03625Y021201D01*
X036248Y021174D01*
X036249Y021604D01*
X036252Y021601D01*
D02*
G37*
%LPC*%
G36*
X02281Y028044D02*
X02169D01*
Y027899D01*
X021629Y027849D01*
X021617Y027852D01*
X021539Y027836D01*
X021488Y027802D01*
X020981D01*
X020978Y027803D01*
X020976Y027802D01*
X020973D01*
X020971Y027802D01*
X020965Y027802D01*
X020586D01*
X020509Y027786D01*
X020481Y027767D01*
X020408D01*
Y027689D01*
X0204Y027677D01*
X020384Y0276D01*
X0204Y027523D01*
X020408Y027511D01*
Y027333D01*
X020685D01*
X020686Y027333D01*
X020689Y02733D01*
X020699Y02733D01*
X020703Y027329D01*
X020764Y027333D01*
X020764Y02737D01*
X020835Y027389D01*
X020929Y027397D01*
X020979Y027397D01*
X020982Y027398D01*
X021567D01*
X021611Y027407D01*
X02169Y027357D01*
Y027274D01*
X02281D01*
Y028044D01*
D02*
G37*
%LPD*%
G36*
X020978Y027462D02*
X020926Y027462D01*
X020802Y027451D01*
X020772Y027445D01*
X020747Y027438D01*
X020728Y027429D01*
X020714Y027418D01*
X020706Y027407D01*
X020703Y027394D01*
Y027706D01*
X020978Y027738D01*
Y027462D01*
D02*
G37*
%LPC*%
G36*
X034797Y012471D02*
X034789Y012471D01*
X034789Y012471D01*
X034736Y012467D01*
Y012464D01*
X034571Y012453D01*
X034521Y012453D01*
X034518Y012452D01*
X033961D01*
X03395Y012454D01*
X033873Y012439D01*
X033807Y012395D01*
X033764Y012329D01*
X033748Y012252D01*
X033764Y012175D01*
X033807Y01211D01*
X03381Y012107D01*
X033875Y012064D01*
X033952Y012048D01*
X034518D01*
X03452Y012047D01*
X034695Y012044D01*
X034736Y012042D01*
X034736Y012033D01*
X034789Y012029D01*
X034789Y012029D01*
X034797Y012029D01*
X034806Y012033D01*
X035092D01*
Y012161D01*
X0351Y012173D01*
X035115Y01225D01*
X0351Y012327D01*
X035092Y012339D01*
Y012467D01*
X034814D01*
X034806Y012467D01*
X034797Y012471D01*
D02*
G37*
%LPD*%
G36*
Y012094D02*
X034794Y012097D01*
X034786Y0121D01*
X034772Y012103D01*
X034753Y012106D01*
X034698Y012109D01*
X034521Y012112D01*
Y012388D01*
X034574Y012388D01*
X034794Y012403D01*
X034797Y012406D01*
Y012094D01*
D02*
G37*
%LPC*%
G36*
X0191Y011418D02*
X01895Y011388D01*
X018822Y011303D01*
X018737Y011175D01*
X018707Y011025D01*
Y010675D01*
X018737Y010525D01*
X018822Y010397D01*
X01895Y010312D01*
X0191Y010282D01*
X01925Y010312D01*
X019378Y010397D01*
X019463Y010525D01*
X019493Y010675D01*
Y011025D01*
X019463Y011175D01*
X019378Y011303D01*
X01925Y011388D01*
X0191Y011418D01*
D02*
G37*
G36*
X027947Y012471D02*
X027939Y012471D01*
X027939Y012471D01*
X027886Y012467D01*
Y012464D01*
X027721Y012453D01*
X027671Y012453D01*
X027668Y012452D01*
X02695D01*
X026873Y012436D01*
X026807Y012393D01*
X026764Y012327D01*
X026748Y01225D01*
X026764Y012173D01*
X026807Y012107D01*
X026873Y012064D01*
X02695Y012048D01*
X027668D01*
X02767Y012047D01*
X027845Y012044D01*
X027886Y012042D01*
X027886Y012033D01*
X027939Y012029D01*
X027939Y012029D01*
X027947Y012029D01*
X027956Y012033D01*
X028242D01*
Y012161D01*
X02825Y012173D01*
X028265Y01225D01*
X02825Y012327D01*
X028242Y012339D01*
Y012467D01*
X027964D01*
X027956Y012467D01*
X027947Y012471D01*
D02*
G37*
%LPD*%
G36*
Y012094D02*
X027944Y012097D01*
X027936Y0121D01*
X027922Y012103D01*
X027903Y012106D01*
X027848Y012109D01*
X027671Y012112D01*
Y012388D01*
X027724Y012388D01*
X027944Y012403D01*
X027947Y012406D01*
Y012094D01*
D02*
G37*
%LPC*%
G36*
X043465Y010755D02*
X043269Y01073D01*
X043087Y010654D01*
X04293Y010534D01*
X04281Y010378D01*
X042735Y010196D01*
X042709Y01D01*
X042735Y009804D01*
X04281Y009622D01*
X04293Y009466D01*
X043087Y009346D01*
X043269Y00927D01*
X043465Y009245D01*
X04366Y00927D01*
X043842Y009346D01*
X043999Y009466D01*
X044119Y009622D01*
X044194Y009804D01*
X04422Y01D01*
X044194Y010196D01*
X044119Y010378D01*
X043999Y010534D01*
X043842Y010654D01*
X04366Y01073D01*
X043465Y010755D01*
D02*
G37*
G36*
X037559Y012261D02*
Y012203D01*
X037564Y012216D01*
X037568Y01223D01*
Y012243D01*
X037564Y012254D01*
X037559Y012261D01*
D02*
G37*
%LPD*%
D18*
X019097Y02275D02*
G03*
X0188Y023047I-000297J0D01*
G01*
Y022453D02*
G03*
X019097Y02275I0J000297D01*
G01*
X0186Y023047D02*
G03*
X01839Y02296I0J-000297D01*
G01*
X0186Y023047D02*
G03*
X01839Y02296I0J-000297D01*
G01*
X018223Y022793D02*
G03*
X018175Y022797I-000048J-000293D01*
G01*
X017903Y027762D02*
G03*
X01825Y0282I-000103J000438D01*
G01*
D02*
G03*
X017357Y028121I-00045J0D01*
G01*
X018146Y027488D02*
G03*
X017772Y027649I-000346J-000288D01*
G01*
X01744Y025224D02*
G03*
X0182Y02555I00031J000326D01*
G01*
X017351Y027231D02*
G03*
X01807Y02684I000449J-000031D01*
G01*
X0182Y02555D02*
G03*
X01744Y025876I-00045J0D01*
G01*
X017859Y024113D02*
G03*
X0182Y02455I-000109J000437D01*
G01*
D02*
G03*
X017438Y024874I-00045J0D01*
G01*
X017788Y023688D02*
G03*
X0179Y023641I000112J000112D01*
G01*
X017788Y023688D02*
G03*
X0179Y023641I000112J000112D01*
G01*
X02111Y02211D02*
G03*
X0209Y022197I-00021J-00021D01*
G01*
X02111Y02211D02*
G03*
X0209Y022197I-00021J-00021D01*
G01*
X01967Y02141D02*
G03*
X01946Y021497I-00021J-00021D01*
G01*
X020047Y02091D02*
G03*
X01996Y02112I-000297J0D01*
G01*
X020047Y02091D02*
G03*
X01996Y02112I-000297J0D01*
G01*
X01967Y02141D02*
G03*
X01946Y021497I-00021J-00021D01*
G01*
X016622Y025847D02*
G03*
X016412Y02576I0J-000297D01*
G01*
X016622Y025847D02*
G03*
X016412Y02576I0J-000297D01*
G01*
X01665Y024788D02*
G03*
X016482Y024718I0J-000238D01*
G01*
X01665Y024788D02*
G03*
X016481Y024718I0J-000238D01*
G01*
X015884Y02526D02*
G03*
X016332Y024812I000013J-000434D01*
G01*
X014525Y024528D02*
G03*
X014735Y024615I0J000297D01*
G01*
X014525Y024528D02*
G03*
X014735Y024615I0J000297D01*
G01*
X017541Y024D02*
G03*
X017588Y023888I000159J0D01*
G01*
X017438Y024226D02*
G03*
X017541Y024152I000312J000324D01*
G01*
Y024D02*
G03*
X017588Y023888I000159J0D01*
G01*
X0174Y023538D02*
G03*
X017232Y023468I0J-000238D01*
G01*
X0174Y023538D02*
G03*
X017231Y023468I0J-000238D01*
G01*
X0161Y023762D02*
G03*
X016268Y023832I0J000238D01*
G01*
X0161Y023762D02*
G03*
X016269Y023832I0J000238D01*
G01*
X015193Y020907D02*
G03*
X015263Y021075I-000168J000169D01*
G01*
X015193Y020907D02*
G03*
X015263Y021075I-000168J000168D01*
G01*
X015193Y020907D02*
G03*
X015263Y021075I-000168J000169D01*
G01*
X01465Y020462D02*
G03*
X014818Y020532I0J000238D01*
G01*
X01465Y020462D02*
G03*
X014819Y020532I0J000238D01*
G01*
X016531Y019688D02*
G03*
X016321Y019775I-00021J-00021D01*
G01*
X016531Y019688D02*
G03*
X016321Y019775I-00021J-00021D01*
G01*
X016757Y019352D02*
G03*
X01667Y01955I-000297J-000012D01*
G01*
X016757Y019352D02*
G03*
X01667Y01955I-000297J-000012D01*
G01*
X01646Y017843D02*
G03*
X016757Y018128I0J000297D01*
G01*
X01646Y017843D02*
G03*
X016757Y018128I0J000297D01*
G01*
X02286Y01409D02*
G03*
X022883Y014117I-00021J00021D01*
G01*
X02286Y01409D02*
G03*
X022883Y014117I-00021J00021D01*
G01*
X019044Y014D02*
G03*
X018994Y01396I00016J-00025D01*
G01*
X019044Y014D02*
G03*
X018994Y01396I00016J-00025D01*
G01*
X0221Y013453D02*
G03*
X02231Y01354I0J000297D01*
G01*
X0221Y013453D02*
G03*
X02231Y01354I0J000297D01*
G01*
X01855Y013516D02*
G03*
X018463Y013306I00021J-00021D01*
G01*
X01855Y013516D02*
G03*
X018463Y013306I00021J-00021D01*
G01*
X016149Y017667D02*
G03*
X015939Y017754I-00021J-00021D01*
G01*
X016149Y017667D02*
G03*
X015939Y017754I-00021J-00021D01*
G01*
X016253Y01575D02*
G03*
X01634Y01554I000297J0D01*
G01*
X016253Y01575D02*
G03*
X01634Y01554I000297J0D01*
G01*
X015329Y016368D02*
G03*
X015419Y016491I-000349J000349D01*
G01*
X014763Y01716D02*
G03*
X014684Y017112I000217J-000443D01*
G01*
X015276D02*
G03*
X015197Y01716I-000296J-000395D01*
G01*
X014613Y015856D02*
G03*
X014955Y015994I0J000494D01*
G01*
X014613Y015856D02*
G03*
X014955Y015994I0J000494D01*
G01*
X014115Y023744D02*
G03*
X014044Y023762I-000095J-000218D01*
G01*
X013196D02*
G03*
X013125Y023744I000024J-000237D01*
G01*
X01402Y023288D02*
G03*
X014115Y023307I0J000238D01*
G01*
X013125D02*
G03*
X01322Y023288I000095J000218D01*
G01*
X013295Y023212D02*
G03*
X0132Y023232I-000095J-000218D01*
G01*
X013295Y023212D02*
G03*
X0132Y023232I-000095J-000218D01*
G01*
X012639Y023643D02*
G03*
X012471Y023713I-000169J-000168D01*
G01*
X012639Y023644D02*
G03*
X012471Y023713I-000168J-000168D01*
G01*
X014371Y022737D02*
G03*
X01434Y02271I000179J-000237D01*
G01*
X014371Y022737D02*
G03*
X01434Y02271I000179J-000237D01*
G01*
X01384Y02221D02*
G03*
X013753Y022I00021J-00021D01*
G01*
X01384Y02221D02*
G03*
X013753Y022I00021J-00021D01*
G01*
X013125Y022756D02*
G03*
X01322Y022737I000095J000218D01*
G01*
X013125Y022756D02*
G03*
X01322Y022737I000095J000218D01*
G01*
X013125Y022756D02*
G03*
X01322Y022737I000095J000218D01*
G01*
X014307Y021528D02*
G03*
X014347Y021676I-000257J000148D01*
G01*
X014251Y021457D02*
G03*
X014307Y021528I-000201J000218D01*
G01*
X013876Y021435D02*
G03*
X014251Y021457I000174J000241D01*
G01*
X013158Y021362D02*
G03*
X01309Y021372I-000068J-000228D01*
G01*
X012835Y022787D02*
G03*
X012952Y022756I000118J000207D01*
G01*
X012835Y022787D02*
G03*
X012952Y022756I000118J000207D01*
G01*
X012838Y02275D02*
G03*
X012835Y022787I-000238J0D01*
G01*
X012838Y02275D02*
G03*
X012835Y022787I-000238J0D01*
G01*
X012362Y022176D02*
G03*
X012432Y022007I000238J0D01*
G01*
X012362Y022176D02*
G03*
X012432Y022007I000238J0D01*
G01*
X013005Y021457D02*
G03*
X0131Y021438I000095J000218D01*
G01*
X013005Y021457D02*
G03*
X0131Y021438I000095J000218D01*
G01*
X013005Y021457D02*
G03*
X0131Y021438I000095J000218D01*
G01*
X012931Y021508D02*
G03*
X012993Y021463I000169J000168D01*
G01*
X013158Y021362D02*
G03*
X01309Y021372I-000068J-000228D01*
G01*
X013032Y020897D02*
G03*
X0131Y020887I000068J000228D01*
G01*
X013032Y020897D02*
G03*
X0131Y020887I000068J000228D01*
G01*
X012931Y021508D02*
G03*
X012993Y021463I000169J000168D01*
G01*
X012932Y021507D02*
G03*
X012993Y021463I000168J000168D01*
G01*
X01095Y024238D02*
G03*
X010782Y024168I0J-000238D01*
G01*
X01095Y024238D02*
G03*
X010781Y024168I0J-000238D01*
G01*
X011226Y023713D02*
G03*
X011057Y023644I0J-000238D01*
G01*
X011226Y023713D02*
G03*
X011057Y023643I0J-000238D01*
G01*
X010732Y023319D02*
G03*
X010662Y02315I000168J-000169D01*
G01*
X010732Y023318D02*
G03*
X010662Y02315I000168J-000168D01*
G01*
X010132Y025141D02*
G03*
X010132Y024509I-000298J-000316D01*
G01*
X010182Y023569D02*
G03*
X010112Y0234I000168J-000169D01*
G01*
X010182Y023568D02*
G03*
X010112Y0234I000168J-000168D01*
G01*
X010662Y022725D02*
G03*
X010732Y022557I000238J0D01*
G01*
X010662Y022725D02*
G03*
X010732Y022557I000238J0D01*
G01*
X010112Y02237D02*
G03*
X010182Y022202I000238J0D01*
G01*
X010112Y02237D02*
G03*
X010182Y022201I000238J0D01*
G01*
X0143Y020397D02*
G03*
X01409Y02031I0J-000297D01*
G01*
X0143Y020397D02*
G03*
X01409Y02031I0J-000297D01*
G01*
X01374Y01996D02*
G03*
X013653Y01975I00021J-00021D01*
G01*
X01374Y01996D02*
G03*
X013653Y01975I00021J-00021D01*
G01*
Y019054D02*
G03*
X01374Y018844I000297J0D01*
G01*
X013653Y019054D02*
G03*
X01374Y018844I000297J0D01*
G01*
X013971Y018613D02*
G03*
X014169Y018526I00021J00021D01*
G01*
X013971Y018613D02*
G03*
X014169Y018526I00021J00021D01*
G01*
X013082Y020018D02*
G03*
X013012Y01985I000168J-000168D01*
G01*
X013082Y020019D02*
G03*
X013012Y01985I000168J-000169D01*
G01*
X013441Y017972D02*
G03*
X01361Y017902I000169J000168D01*
G01*
X013442Y017972D02*
G03*
X01361Y017902I000168J000168D01*
G01*
X013012Y0185D02*
G03*
X013082Y018332I000238J0D01*
G01*
X013012Y0185D02*
G03*
X013082Y018331I000238J0D01*
G01*
X012936Y016844D02*
G03*
X012587Y016699I0J-000494D01*
G01*
X012936Y016844D02*
G03*
X012586Y016699I0J-000494D01*
G01*
X012126Y016238D02*
G03*
X011981Y015889I000349J-00035D01*
G01*
X012126Y016238D02*
G03*
X011981Y015889I000349J-000349D01*
G01*
X012096Y013883D02*
G03*
X012824Y013851I000379J000317D01*
G01*
X012096Y013883D02*
G03*
X012824Y013851I000379J000317D01*
G01*
X01075Y011551D02*
G03*
X0111Y011406I00035J000349D01*
G01*
X010751Y011551D02*
G03*
X0111Y011406I000349J000349D01*
G01*
X00972Y014497D02*
G03*
X008931Y014497I-000394J-000297D01*
G01*
X008831Y013675D02*
G03*
X008976Y013326I000494J0D01*
G01*
X008831Y013675D02*
G03*
X008977Y013325I000494J0D01*
G01*
X010789Y01D02*
G03*
X010789Y01I-000789J0D01*
G01*
D02*
G03*
X010789Y01I-000789J0D01*
G01*
X041404Y0181D02*
G03*
X040754Y01875I-00065J0D01*
G01*
Y01745D02*
G03*
X041404Y0181I0J00065D01*
G01*
X040654Y016749D02*
G03*
X040133Y016488I0J-00065D01*
G01*
X040654Y01875D02*
G03*
X040133Y018489I0J-00065D01*
G01*
X040122Y018473D02*
G03*
X040089Y018422I000532J-000373D01*
G01*
X04004Y017885D02*
G03*
X040654Y01745I000613J000215D01*
G01*
X040122Y016472D02*
G03*
X04009Y016421I000532J-000373D01*
G01*
X039461Y018388D02*
G03*
X039292Y018319I0J-000238D01*
G01*
X039461Y018388D02*
G03*
X039292Y018318I0J-000238D01*
G01*
X041404Y016099D02*
G03*
X040754Y016749I-00065J0D01*
G01*
Y015449D02*
G03*
X041404Y016099I0J00065D01*
G01*
X040041Y015884D02*
G03*
X040654Y015449I000613J000216D01*
G01*
X038247Y016699D02*
G03*
X038415Y016769I0J000238D01*
G01*
X038247Y016699D02*
G03*
X038415Y016768I0J000238D01*
G01*
X018695Y027474D02*
Y028635D01*
Y02875D01*
X0186Y027456D02*
Y02875D01*
X01825Y0282D02*
X018695D01*
X018203Y0284D02*
X018695D01*
X018203Y028D02*
X018695D01*
X018277Y026863D02*
X018695D01*
X01834Y027456D02*
X018677D01*
X018695Y023959D02*
Y026863D01*
X018197Y0256D02*
X018695D01*
X018197Y0246D02*
X018695D01*
X0184Y027456D02*
Y02875D01*
X018289Y027459D02*
X018325Y027458D01*
X0184Y023959D02*
Y026863D01*
X0182Y027467D02*
Y027994D01*
Y028406D02*
Y02875D01*
X018227Y027463D02*
X018289Y027459D01*
X018232Y02686D02*
X018268Y026861D01*
X0182Y02555D02*
Y026858D01*
X0186Y023959D02*
Y026863D01*
X0182Y024551D02*
Y02555D01*
Y023959D02*
Y024549D01*
X019133Y023062D02*
X01935Y022845D01*
X019Y022969D02*
Y023062D01*
X0192Y022197D02*
Y022995D01*
X01896Y023D02*
X019195D01*
X0186Y023047D02*
X0188D01*
X019056Y0226D02*
X01935D01*
X019093Y0228D02*
X01935D01*
Y0222D02*
Y022845D01*
X019Y022197D02*
Y022531D01*
X0186Y023538D02*
Y023641D01*
X0184Y023538D02*
Y023641D01*
X018695Y023538D02*
Y023641D01*
X0182Y023538D02*
Y023641D01*
Y022796D02*
Y023062D01*
X0184Y022969D02*
Y023062D01*
X018223Y022793D02*
X01839Y02296D01*
X018006Y0278D02*
X018695D01*
X018006Y0286D02*
X018695D01*
X018006Y0268D02*
X018695D01*
X01672Y0266D02*
X018695D01*
X018006Y0276D02*
X018695D01*
X01652Y0264D02*
X018695D01*
X018174Y0254D02*
X018695D01*
X018124Y0258D02*
X018695D01*
X018033Y0252D02*
X018695D01*
X01632Y0262D02*
X018695D01*
X01775Y026D02*
X018695D01*
X018Y028603D02*
Y02875D01*
Y027603D02*
Y027797D01*
X017848Y027721D02*
X017881Y027748D01*
X018115Y026852D02*
X018232Y02686D01*
X018Y025924D02*
Y026797D01*
X018174Y0244D02*
X018695D01*
X018124Y0248D02*
X018695D01*
X018033Y0242D02*
X018695D01*
X017925Y024D02*
X018695D01*
X016492Y025D02*
X018695D01*
X017966Y023959D02*
X018695D01*
X017499Y023062D02*
X019133D01*
X0179Y023641D02*
X018695D01*
X017436Y023D02*
X01844D01*
X0174Y023538D02*
X018695D01*
X017236Y0228D02*
X01823D01*
X018Y024924D02*
Y025176D01*
Y023959D02*
Y024176D01*
X017859Y024066D02*
X017966Y023959D01*
X018Y023538D02*
Y023641D01*
Y022797D02*
Y023062D01*
X017233Y022797D02*
X018175D01*
X0216Y02162D02*
Y021764D01*
X02142Y0218D02*
X021564D01*
X02162Y0216D02*
X021764D01*
X02122Y022D02*
X021364D01*
X0212Y02202D02*
Y022164D01*
X0214Y02182D02*
Y021964D01*
X02202Y0212D02*
X022164D01*
X022Y02122D02*
Y021364D01*
X0222Y02102D02*
Y021164D01*
X0218Y02142D02*
Y021564D01*
X02182Y0214D02*
X021964D01*
X02Y02107D02*
Y021603D01*
X01985Y022197D02*
X0209D01*
X01985Y021603D02*
X020777D01*
X0198Y02128D02*
Y021603D01*
X01988Y0212D02*
X02118D01*
X01968Y0214D02*
X02098D01*
X01967Y02141D02*
X01996Y02112D01*
X0196Y021462D02*
Y021603D01*
X0224Y02082D02*
Y020964D01*
X02222Y021D02*
X022364D01*
X02242Y0208D02*
X022564D01*
X021164Y0222D02*
X02285Y020514D01*
X0214Y020452D02*
Y02098D01*
X020777Y021603D02*
X021929Y020452D01*
X02262Y0206D02*
X022764D01*
X0226Y02062D02*
Y020764D01*
X0218Y020452D02*
Y02058D01*
X020047Y0208D02*
X02158D01*
X020047Y0206D02*
X02178D01*
X021Y020452D02*
Y02138D01*
X0208Y020452D02*
Y02158D01*
X0212Y020452D02*
Y02118D01*
X0204Y020452D02*
Y021603D01*
X0206Y020452D02*
Y021603D01*
X020033Y021D02*
X02138D01*
X020047Y020567D02*
Y02091D01*
X020049Y020559D02*
X020051Y020487D01*
X01935Y0222D02*
X021164D01*
X01867Y0224D02*
X01935D01*
Y0222D02*
X021164D01*
X018669Y022197D02*
X01985D01*
X018479Y0222D02*
X01935D01*
X018669Y021603D02*
X01985D01*
X0192Y021497D02*
Y021603D01*
X019Y021497D02*
Y021603D01*
X0194Y021497D02*
Y021603D01*
X018511Y0216D02*
X02078D01*
X0188Y021497D02*
Y021603D01*
X018723Y022453D02*
X0188D01*
X0186Y022197D02*
Y02233D01*
X0188Y022197D02*
Y022453D01*
X018478Y022209D02*
X018723Y022453D01*
X018479Y022197D02*
X018669D01*
X01851Y021603D02*
X018669D01*
X018512Y021596D02*
X018529Y02155D01*
X018547Y021509D01*
X018479Y022197D02*
X018669D01*
X01851Y021603D02*
X018669D01*
X019337Y020903D02*
X019453Y020787D01*
X0194Y020452D02*
Y02084D01*
X018554Y021497D02*
X01946D01*
X018472Y020903D02*
X019337D01*
X018472Y0208D02*
X01944D01*
X019453Y020567D02*
Y020787D01*
X019449Y020487D02*
X019451Y020559D01*
X019446Y020452D02*
X019449Y020487D01*
X018472Y0206D02*
X019453D01*
X018472Y020452D02*
X019446D01*
X0186Y021497D02*
Y021603D01*
X015263Y0214D02*
X017878D01*
X0188Y020452D02*
Y020903D01*
X015263Y0212D02*
X017878D01*
X015251Y021D02*
X017878D01*
X019Y020452D02*
Y020903D01*
X0186Y020452D02*
Y020903D01*
X0192Y020452D02*
Y020903D01*
X017832Y020452D02*
X017878Y020498D01*
X018472Y020452D02*
Y020903D01*
X0178Y02865D02*
Y02875D01*
X0176Y028603D02*
Y02875D01*
X01778Y027657D02*
X017848Y027721D01*
X0174Y028406D02*
Y02875D01*
X01732Y0272D02*
X01735D01*
X01712Y027D02*
X017397D01*
X0178Y025997D02*
Y02675D01*
X0176Y025974D02*
Y026797D01*
X0174Y02586D02*
Y026994D01*
X01692Y0268D02*
X017594D01*
X017285Y025849D02*
X017376Y025856D01*
X017283Y028006D02*
X017323Y028053D01*
X017258Y027981D02*
X017283Y028006D01*
X0172Y02792D02*
Y02875D01*
X017Y02772D02*
Y02875D01*
X0168Y02752D02*
Y02875D01*
X0166Y02732D02*
Y02875D01*
X017249Y025849D02*
X017285Y025849D01*
X0172Y025847D02*
Y02708D01*
X017Y025847D02*
Y02688D01*
X016622Y025847D02*
X01724D01*
X0168D02*
Y02668D01*
X017319Y025249D02*
X017375Y025244D01*
X017248Y025251D02*
X017319Y025249D01*
X0174Y024843D02*
Y02524D01*
X016745Y025253D02*
X017239D01*
X017Y024788D02*
Y025253D01*
X0172Y024788D02*
Y025253D01*
X0178Y024997D02*
Y025103D01*
X0176Y024974D02*
Y025126D01*
X017215Y02479D02*
X017246Y024791D01*
X016692Y0252D02*
X017467D01*
X01665Y024788D02*
X017207D01*
X016448Y024956D02*
X016745Y025253D01*
X0166Y025846D02*
Y02648D01*
X0168Y024788D02*
Y025253D01*
X0166Y024782D02*
Y025108D01*
X016419Y024924D02*
X016443Y024948D01*
X0164Y024636D02*
Y024902D01*
Y02712D02*
Y02875D01*
X0162Y02692D02*
Y02875D01*
X0164Y025748D02*
Y02628D01*
X01612Y026D02*
X01775D01*
X016Y02672D02*
Y02875D01*
X0162Y025548D02*
Y02608D01*
X01592Y0258D02*
X016462D01*
X016028Y025376D02*
X016412Y02576D01*
X015971Y025323D02*
X016021Y025371D01*
X01572Y0256D02*
X016252D01*
X01552Y0254D02*
X016052D01*
X0158Y02652D02*
Y02875D01*
X0156Y02632D02*
Y02875D01*
X0154Y02612D02*
Y02875D01*
X0152Y02592D02*
Y02875D01*
X0146Y02532D02*
Y02875D01*
X016Y025351D02*
Y02588D01*
X01593Y025289D02*
X015971Y025323D01*
X0158Y025249D02*
Y02568D01*
X015Y02572D02*
Y02875D01*
X0148Y02552D02*
Y02875D01*
X01532Y0252D02*
X015677D01*
X0156Y025142D02*
Y02548D01*
X014402Y025122D02*
X017253Y027973D01*
X01512Y025D02*
X015499D01*
X014735Y024615D02*
X017351Y027231D01*
X016331Y0248D02*
X017308D01*
X016347Y02484D02*
X016419Y024924D01*
X016269Y0246D02*
X016364D01*
X014719D02*
X015525D01*
X016001Y024238D02*
X016481Y024718D01*
X0152Y024238D02*
Y02508D01*
X015Y024238D02*
Y02488D01*
X0154Y024238D02*
Y02528D01*
X0144Y025122D02*
Y02875D01*
X01492Y0248D02*
X015463D01*
X0146Y024238D02*
Y024538D01*
X0148Y024238D02*
Y02468D01*
X0144Y024238D02*
Y024528D01*
X017859Y024066D02*
Y024113D01*
X017541Y024D02*
Y024152D01*
X016636Y0242D02*
X017467D01*
X016436Y024D02*
X017541D01*
X017588Y023888D02*
X017788Y023688D01*
X0176Y023538D02*
Y023875D01*
X0178Y023538D02*
Y023676D01*
X016229Y0238D02*
X017675D01*
X017215Y02431D02*
X017246Y024309D01*
X016748Y024312D02*
X017207D01*
X0172Y023436D02*
Y024312D01*
X0162Y024436D02*
Y024513D01*
X016Y024238D02*
Y024403D01*
X016269Y023832D02*
X016748Y024312D01*
X0174Y023538D02*
Y024257D01*
X017681Y022197D02*
X017872D01*
X0178Y022797D02*
Y023062D01*
X017681Y021603D02*
X017862D01*
X017681D02*
Y022197D01*
X0176Y022797D02*
Y023062D01*
Y020452D02*
Y022203D01*
X017875Y021479D02*
X017876Y021429D01*
X01787Y02156D02*
X017875Y021479D01*
X017878Y020498D02*
Y021416D01*
X017279Y020452D02*
X017832D01*
X0178D02*
Y021603D01*
X017Y023236D02*
Y024312D01*
X0168Y023212D02*
Y024312D01*
X0166Y023212D02*
Y024164D01*
X0162Y023212D02*
Y023784D01*
X0164Y023212D02*
Y023964D01*
X017243Y022807D02*
X017499Y023062D01*
X0174Y022797D02*
Y022964D01*
Y020452D02*
Y022203D01*
X016Y023212D02*
Y023762D01*
X016976Y023212D02*
X017231Y023468D01*
X015987Y0244D02*
X016164D01*
X0158Y024238D02*
Y024402D01*
Y023212D02*
Y023762D01*
X0156Y023212D02*
Y023762D01*
Y024238D02*
Y024508D01*
X0154Y023212D02*
Y023762D01*
X015519Y0218D02*
X017681D01*
X015519Y022D02*
X017681D01*
X015519Y0216D02*
X017863D01*
X015519Y022203D02*
X017872D01*
X015519Y0222D02*
X017872D01*
X015Y023212D02*
Y023762D01*
X0148Y023212D02*
Y023762D01*
X0152Y023212D02*
Y023762D01*
X0144Y023212D02*
Y023762D01*
X0146Y023212D02*
Y023762D01*
X014347Y021877D02*
X014532Y022062D01*
X01447Y022D02*
X014532D01*
Y021583D02*
X014748D01*
X014347Y0218D02*
X014532D01*
X014347Y021676D02*
Y021877D01*
X015302Y021583D02*
X015519D01*
Y022203D01*
X01527Y021496D02*
X015275Y021529D01*
X015266Y021456D02*
X01527Y021496D01*
X015265Y021406D02*
X015266Y021456D01*
X015263Y021075D02*
Y021398D01*
X015086Y0208D02*
X017878D01*
X014886Y0206D02*
X017878D01*
X014781Y021496D02*
X014784Y021456D01*
X014775Y021529D02*
X014781Y021496D01*
X0146Y021362D02*
Y021583D01*
X014532D02*
Y022062D01*
X0144Y021362D02*
Y02193D01*
X014787Y021362D02*
Y021398D01*
X014784Y021456D02*
X014785Y021406D01*
X014819Y020532D02*
X015193Y020907D01*
X0228Y02042D02*
Y020564D01*
X0216Y020452D02*
Y02078D01*
X02285Y02037D02*
Y020514D01*
X0202Y020452D02*
Y021603D01*
X0172Y020397D02*
Y022203D01*
X02111Y02211D02*
X02285Y02037D01*
X020054Y020452D02*
X021929D01*
X020051Y020487D02*
X020054Y020452D01*
X02282Y0204D02*
X02285D01*
X017225Y020397D02*
X017279Y020452D01*
X017044Y0168D02*
X017128D01*
X017044Y0188D02*
X017128D01*
X017044Y019D02*
X017128D01*
X017044Y0186D02*
X017128D01*
X017Y019072D02*
Y019803D01*
Y020397D02*
Y022203D01*
X017044Y01836D02*
Y019072D01*
Y017D02*
X017128D01*
X017044Y0184D02*
X017128D01*
X017044Y016741D02*
Y01734D01*
X017D02*
Y01836D01*
X017044Y0172D02*
X017128D01*
X016851Y0164D02*
X017128D01*
X016896Y0166D02*
X017128D01*
Y015591D02*
Y019803D01*
X016847Y016D02*
X017128D01*
X016847Y0162D02*
X017128D01*
X016847Y015873D02*
X017128Y015591D01*
X022353Y014423D02*
Y014625D01*
X0222Y01427D02*
Y014472D01*
X021775Y014047D02*
X022353Y014625D01*
X01692Y0158D02*
X017128D01*
Y0143D02*
Y014752D01*
X016954Y016628D02*
X017044D01*
Y016725D01*
X017Y01572D02*
Y016628D01*
X016875Y016555D02*
X016887Y016585D01*
X016864Y016515D02*
X016875Y016555D01*
X016856Y016464D02*
X016864Y016515D01*
X016851Y016404D02*
X016856Y016464D01*
X017Y0143D02*
Y01488D01*
X016849Y016333D02*
X016851Y016404D01*
X016847Y015873D02*
Y016324D01*
X016751Y0194D02*
X017128D01*
X0168Y020397D02*
Y022203D01*
Y019093D02*
Y019803D01*
X01442Y0198D02*
X017128D01*
X014423Y019803D02*
X017128D01*
X01662Y0196D02*
X017128D01*
X016841Y019072D02*
X017044D01*
X016772Y019172D02*
X016782Y019134D01*
X016791Y01836D02*
X017044D01*
X016768Y0192D02*
X017128D01*
X016769Y018288D02*
X016776Y018321D01*
X0166Y01962D02*
Y019803D01*
Y020397D02*
Y022203D01*
X016531Y019688D02*
X01667Y01955D01*
X01676Y019275D02*
X016765Y019219D01*
X016759Y019342D02*
X01676Y019275D01*
X016765Y019219D02*
X016772Y019172D01*
X016722Y018D02*
X017128D01*
X01676Y0182D02*
X017128D01*
X0168Y01734D02*
Y01836D01*
X01644Y0174D02*
X017128D01*
X016216Y0176D02*
X017128D01*
X016598Y01734D02*
X017044D01*
X01634Y01554D02*
X017128Y014752D01*
X01595Y015D02*
X01688D01*
X0168Y0143D02*
Y01508D01*
X01595Y0148D02*
X01708D01*
X01595Y0146D02*
X017128D01*
X016763Y018246D02*
X016769Y018288D01*
X01676Y018197D02*
X016763Y018246D01*
X016759Y018138D02*
X01676Y018197D01*
X0166Y01734D02*
Y017878D01*
X016526Y01734D02*
X01659D01*
X0166Y0143D02*
Y01528D01*
X016462Y017382D02*
X0165Y017355D01*
X016526Y01734D01*
X022883Y014117D02*
X02295Y01405D01*
X0228Y0139D02*
Y01403D01*
X021977Y014047D02*
X022353Y014423D01*
X02231Y01354D02*
X02286Y01409D01*
X02277Y014D02*
X0229D01*
X02257Y0138D02*
X0227D01*
X0226Y0137D02*
Y01383D01*
X02237Y0136D02*
X0225D01*
X0224Y0135D02*
Y01363D01*
X022128Y0144D02*
X02233D01*
X021928Y0142D02*
X02213D01*
X022Y01407D02*
Y014272D01*
X021775Y014047D02*
X021977D01*
X0188Y013766D02*
Y014D01*
X019Y013966D02*
Y014D01*
X019327Y013453D02*
X0221D01*
X0186Y013566D02*
Y014D01*
X01855Y013516D02*
X018994Y01396D01*
X0222Y0134D02*
Y01347D01*
X0223Y0134D02*
X02295Y01405D01*
X022Y0134D02*
Y013453D01*
X0214Y0134D02*
Y013453D01*
X0216Y0134D02*
Y013453D01*
X0212Y0134D02*
Y013453D01*
X0218Y0134D02*
Y013453D01*
X019274Y0134D02*
X0223D01*
X021D02*
Y013453D01*
X0196Y0134D02*
Y013453D01*
X0194Y0134D02*
Y013453D01*
X0198Y0134D02*
Y013453D01*
X019274Y0134D02*
X019327Y013453D01*
X0206Y0134D02*
Y013453D01*
X0204Y0134D02*
Y013453D01*
X0208Y0134D02*
Y013453D01*
X02Y0134D02*
Y013453D01*
X0202Y0134D02*
Y013453D01*
X018157Y014D02*
X019044D01*
X0184Y012889D02*
Y014D01*
X018157D02*
X019044D01*
X01765Y0138D02*
X018834D01*
X01765Y0136D02*
X018634D01*
X01765Y0134D02*
X018478D01*
X01765Y0132D02*
X018463D01*
Y012952D02*
Y013306D01*
X01765Y013D02*
X018463D01*
X01765Y0128D02*
X018311D01*
X01765Y0143D02*
X017857D01*
X017128D02*
X01765D01*
X017857D02*
X018157Y014D01*
X01595Y0144D02*
X017128D01*
X01645Y0143D02*
X017128D01*
X0182Y012689D02*
Y014D01*
X01765Y0142D02*
X017957D01*
X018056Y012607D02*
X018119D01*
X017128Y0143D02*
X01765D01*
Y014D02*
X018157D01*
X018119Y012607D02*
X018463Y012952D01*
X018056Y012544D02*
Y012607D01*
X018Y012489D02*
Y014157D01*
X01765Y0126D02*
X018056D01*
X01765Y0125D02*
Y0143D01*
X0178Y012289D02*
Y0143D01*
X01645Y0125D02*
X01765D01*
X0176Y012089D02*
Y0125D01*
X0172Y011689D02*
X018056Y012544D01*
X01595Y0124D02*
X017911D01*
X01595Y0122D02*
X017711D01*
X0174Y011889D02*
Y0125D01*
X0172Y011689D02*
Y0125D01*
X017Y009017D02*
Y0125D01*
X0166Y009017D02*
Y0125D01*
X0168Y009017D02*
Y0125D01*
X01595Y012D02*
X017511D01*
X01595Y0118D02*
X017311D01*
X0172Y009017D02*
Y011689D01*
X01595Y0116D02*
X0172D01*
X01595Y0114D02*
X0172D01*
X0164Y020397D02*
Y022203D01*
X0162Y020397D02*
Y022203D01*
X0164Y019765D02*
Y019803D01*
X015875Y019775D02*
X016321D01*
X015876Y019182D02*
X016154D01*
X016146Y019123D02*
X016152Y019164D01*
X016139Y019092D02*
X016146Y019123D01*
X016056Y019072D02*
X016132D01*
X016056Y018975D02*
Y019072D01*
X015572Y0188D02*
X016056D01*
X015572Y0186D02*
X016056D01*
X016Y020397D02*
Y022203D01*
X0158Y020397D02*
Y022203D01*
X015615Y019779D02*
X015865Y019777D01*
X0156Y020397D02*
Y022203D01*
X015513Y019783D02*
X015572Y019781D01*
X015615Y019779D01*
X015572Y019D02*
X016056D01*
X015572Y01917D02*
X015868Y01918D01*
X015572Y018499D02*
Y01912D01*
X015496Y019168D02*
X015572D01*
X015496D02*
X015572Y01917D01*
X016056Y018465D02*
Y018967D01*
X016Y018437D02*
Y019182D01*
X0164Y017435D02*
Y017843D01*
X015875Y018437D02*
X016056D01*
X015615Y018441D02*
X015865Y018439D01*
X015876Y017843D02*
X01646D01*
X016Y017747D02*
Y017843D01*
X0158Y017757D02*
Y017839D01*
X0162Y017616D02*
Y017843D01*
X015572Y017832D02*
X015868Y017841D01*
X015617Y01776D02*
X015866Y017756D01*
X015572Y018442D02*
X015615Y018441D01*
X0156Y018441D02*
Y019171D01*
X0158Y018439D02*
Y019178D01*
X015475Y018451D02*
X015572D01*
X015513Y018445D02*
X015572Y018442D01*
X0156Y017761D02*
Y017833D01*
X015496Y017829D02*
X015572Y017832D01*
Y017763D02*
X015617Y01776D01*
X015496Y017829D02*
X015572D01*
X015483Y017781D02*
X015572D01*
X0154Y020397D02*
Y021583D01*
X0152Y020397D02*
Y020914D01*
X015475Y019789D02*
X015572D01*
X014409D02*
X015467D01*
X015Y020397D02*
Y020714D01*
X014388Y019168D02*
X015467D01*
X0152Y01912D02*
Y019168D01*
X015Y01912D02*
Y019168D01*
X0154Y01912D02*
Y019168D01*
X014493Y01912D02*
X015572D01*
X014493Y01912D02*
X014966D01*
X0148Y020397D02*
Y020515D01*
X0146Y020397D02*
Y020462D01*
Y01912D02*
Y019168D01*
X0144Y020397D02*
Y020462D01*
X014388Y019168D02*
Y019768D01*
X0148Y01912D02*
Y019168D01*
X0144Y019121D02*
Y019168D01*
X014388Y01912D02*
X014493D01*
X014388Y01912D02*
X014493D01*
X014388Y018499D02*
X014485D01*
X0152Y018451D02*
Y018499D01*
X015Y018451D02*
Y018499D01*
X0154Y018451D02*
Y018499D01*
X014493D02*
X015572D01*
X014493Y018451D02*
X015467D01*
X0148D02*
Y018499D01*
X0152Y017781D02*
Y017829D01*
X015Y017781D02*
Y017829D01*
X0154Y017781D02*
Y017829D01*
X014493D02*
X015467D01*
X014388Y017781D02*
X015467D01*
X0146Y018451D02*
Y018499D01*
X0144Y018451D02*
Y018499D01*
X014388Y018393D02*
Y018451D01*
X014485D01*
X014388Y017829D02*
Y017887D01*
X0146Y017781D02*
Y017829D01*
X0144Y017781D02*
Y017829D01*
X0148Y017781D02*
Y017829D01*
X014388D02*
X014485D01*
X014388Y01716D02*
Y017781D01*
X016229Y01759D02*
X016295Y017525D01*
X016149Y017667D02*
X016221Y017595D01*
X016295Y017525D02*
X016462Y017382D01*
X016041Y016896D02*
X016056Y01687D01*
X016213Y016585D02*
X016225Y016555D01*
X016056Y016628D02*
X016146D01*
X016225Y016555D02*
X016236Y016515D01*
X016056Y016628D02*
Y016725D01*
X015572Y0166D02*
X016204D01*
X015875Y017754D02*
X015939D01*
X015815Y017158D02*
X015872Y0171D01*
X015976Y016983D01*
X015572Y017D02*
X015961D01*
X015572Y01716D02*
X015813D01*
X015572Y016491D02*
Y017112D01*
X016056Y016806D02*
Y01687D01*
X016013Y016936D02*
X016041Y016896D01*
X016056Y016741D02*
Y016798D01*
X015976Y016983D02*
X016013Y016936D01*
X015572Y0168D02*
X016056D01*
X016253Y01575D02*
Y016324D01*
X016244Y016464D02*
X016249Y016404D01*
X016236Y016515D02*
X016244Y016464D01*
X016249Y016404D02*
X016251Y016333D01*
X01645Y0125D02*
Y0143D01*
X01595Y0142D02*
X01645D01*
X0164Y009017D02*
Y01548D01*
X01595Y014D02*
X01645D01*
X01595Y0138D02*
X01645D01*
X016Y009017D02*
Y016953D01*
X01595Y0138D02*
Y015D01*
X0162Y009017D02*
Y016605D01*
X0156Y015D02*
Y017159D01*
X0158Y015D02*
Y017158D01*
X01595Y0113D02*
Y0125D01*
X0158D02*
Y0138D01*
Y009017D02*
Y0113D01*
X0156Y0125D02*
Y0138D01*
Y009017D02*
Y0113D01*
X015467Y01716D02*
X015572D01*
X015467Y01716D02*
X015572D01*
X015471Y017159D02*
X015815Y017158D01*
X015197Y01716D02*
X015467D01*
X015197Y01716D02*
X015467D01*
X0154Y017112D02*
Y01716D01*
X015359Y0164D02*
X016249D01*
X015419Y016491D02*
X015572D01*
X015276Y017112D02*
X015572D01*
X015161Y0162D02*
X016253D01*
X0146Y017112D02*
Y01716D01*
X014388D02*
X014763D01*
X0144Y017112D02*
Y01716D01*
X01514Y016178D02*
X015329Y016368D01*
X014963Y016001D02*
X01514Y016178D01*
X014964Y016D02*
X01514Y016178D01*
X014388Y017112D02*
X014684D01*
X014388Y016844D02*
Y017112D01*
X0154Y015D02*
Y016457D01*
X0152Y015D02*
Y016239D01*
X0154Y0125D02*
Y0138D01*
X014964Y016D02*
X016253D01*
X015Y015D02*
Y016036D01*
X0154Y009017D02*
Y0113D01*
X0152Y0125D02*
Y0138D01*
Y009017D02*
Y0113D01*
X015Y0125D02*
Y0138D01*
Y009017D02*
Y0113D01*
X0148Y015D02*
Y015893D01*
Y0125D02*
Y0138D01*
X0144Y015D02*
Y015856D01*
X0146Y015D02*
Y015856D01*
X0148Y009017D02*
Y0113D01*
X0146Y0125D02*
Y0138D01*
Y009017D02*
Y0113D01*
X0144Y0125D02*
Y0138D01*
Y009017D02*
Y0113D01*
X0142Y025122D02*
Y02875D01*
X014Y025122D02*
Y02875D01*
X0142Y024238D02*
Y024528D01*
X014Y024238D02*
Y024528D01*
X0138Y025122D02*
Y02875D01*
X0136Y024238D02*
X016001D01*
X014277Y0236D02*
X018695D01*
X014115Y023744D02*
X014277D01*
Y0234D02*
X017164D01*
X014044Y023762D02*
X0161D01*
X0136Y025122D02*
Y02875D01*
X0134Y025122D02*
Y02875D01*
X0136Y024238D02*
Y024528D01*
X0132Y025122D02*
Y02875D01*
X013Y025122D02*
Y02875D01*
Y024238D02*
Y024528D01*
X0134Y024238D02*
Y024528D01*
X0132Y024238D02*
Y024528D01*
X0138Y024238D02*
Y024528D01*
X012963Y023744D02*
X013125D01*
X014115Y023307D02*
X014277D01*
Y023744D01*
X0142Y023212D02*
Y023307D01*
X013639Y023288D02*
X01402D01*
X01322D02*
X013601D01*
X014Y023212D02*
Y023288D01*
X0138Y023212D02*
Y023288D01*
X01402Y023212D02*
X016976D01*
X013295D02*
X01402D01*
X0136D02*
Y023288D01*
X012975Y023307D02*
X013125D01*
X012975D02*
X013051Y023232D01*
X012883Y0234D02*
X012963D01*
Y02332D02*
Y023744D01*
X0134Y023212D02*
Y023288D01*
X013051Y023232D02*
X0132D01*
X0132D02*
Y023289D01*
X00882Y0282D02*
X01735D01*
X00882Y028D02*
X017277D01*
X00882Y0278D02*
X01708D01*
X00882Y02875D02*
X018695D01*
X00882Y0286D02*
X017594D01*
X00882Y0284D02*
X017397D01*
X00882Y0272D02*
X01648D01*
X00882Y027D02*
X01628D01*
X00882Y0268D02*
X01608D01*
X00882Y0276D02*
X01688D01*
X00882Y0274D02*
X01668D01*
X00882Y0266D02*
X01588D01*
X0124Y025122D02*
Y02875D01*
X0126Y025122D02*
Y02875D01*
X00882Y0264D02*
X01568D01*
X00882Y0262D02*
X01548D01*
X00882Y0256D02*
X01488D01*
X00882Y0254D02*
X01468D01*
X010054Y0252D02*
X01448D01*
X00882Y026D02*
X01528D01*
X00882Y0258D02*
X01508D01*
X0128Y024238D02*
Y024528D01*
Y025122D02*
Y02875D01*
X01095Y024238D02*
X0136D01*
X010316Y024528D02*
X014525D01*
X010317Y025122D02*
X014402D01*
X009924Y0244D02*
X015807D01*
X012683Y0236D02*
X012963D01*
X0128Y023483D02*
Y023762D01*
X012639Y023643D02*
X012963Y02332D01*
X011049Y023762D02*
X013196D01*
X0126Y023675D02*
Y023762D01*
Y024238D02*
Y024528D01*
X0124Y024238D02*
Y024528D01*
Y023713D02*
Y023762D01*
X012381Y023139D02*
X012414Y023137D01*
X0124Y023138D02*
Y02321D01*
X012372Y023238D02*
X012477Y023133D01*
X011226Y023713D02*
X012471D01*
X012325Y0232D02*
X01241D01*
X0142Y02257D02*
Y022737D01*
X01402D02*
X014371D01*
X01322D02*
X01402D01*
X0138Y02216D02*
Y022737D01*
X01384Y02221D02*
X01434Y02271D01*
X014Y02237D02*
Y022737D01*
X013753Y021916D02*
Y022D01*
X0136Y021916D02*
Y022737D01*
X0132Y021931D02*
Y022737D01*
X0134Y021913D02*
Y022737D01*
X013515Y021915D02*
X013753Y021916D01*
X01325Y021913D02*
X013506D01*
X0132Y021931D02*
X013226Y021913D01*
X013118Y022D02*
X013753D01*
X013106Y02201D02*
X0132Y021931D01*
X014337Y0216D02*
X014532D01*
X014307Y021457D02*
Y021528D01*
X014251Y021457D02*
X014307D01*
X01416Y0214D02*
X014787D01*
X0142Y021362D02*
Y021419D01*
X01405Y021362D02*
X014787D01*
X01325D02*
X01405D01*
X01325Y020887D02*
X013953D01*
X013516Y021436D02*
X013846Y021435D01*
X01325Y021438D02*
X013506D01*
X0134Y021362D02*
Y021438D01*
X0131D02*
X01325D01*
X0132Y021362D02*
Y021438D01*
X0136Y021362D02*
Y021436D01*
X013158Y021362D02*
X01325D01*
X0138D02*
Y021435D01*
X0131Y020887D02*
X01325D01*
X012963Y022756D02*
X013125D01*
X012963Y022756D02*
X013125D01*
X013Y022112D02*
Y022756D01*
X012912Y0222D02*
X013831D01*
X012838Y022274D02*
X013044Y022067D01*
X013054Y022061D02*
X013106Y02201D01*
X012838Y0226D02*
X01423D01*
X012838Y0224D02*
X01403D01*
X012414Y023137D02*
X012456Y023136D01*
X012838Y022274D02*
Y02275D01*
X012724Y021715D02*
X012832Y021608D01*
X012432Y022007D02*
X012724Y021715D01*
X01273Y021706D02*
X012832Y021608D01*
X012325Y022D02*
X012439D01*
X012325Y0218D02*
X012639D01*
X012325Y0214D02*
X01394D01*
X013Y021372D02*
Y021457D01*
X01251Y021372D02*
X01309D01*
X012509Y020897D02*
X013032D01*
X012832Y021608D02*
X012931Y021508D01*
X0128Y021372D02*
Y021638D01*
X011459Y0216D02*
X012839D01*
X0126Y021372D02*
Y021839D01*
X012451Y021375D02*
X012501Y021374D01*
X012451Y020894D02*
X0125Y020895D01*
X012369Y02138D02*
X012451Y021375D01*
X012325Y020885D02*
X012451Y020894D01*
X0122Y025122D02*
Y02875D01*
X012Y025122D02*
Y02875D01*
X0122Y024238D02*
Y024528D01*
X0118Y025122D02*
Y02875D01*
X0116Y025122D02*
Y02875D01*
X012Y024238D02*
Y024528D01*
X0118Y024238D02*
Y024528D01*
X0116Y024238D02*
Y024528D01*
X0122Y023713D02*
Y023762D01*
X0114Y024238D02*
Y024528D01*
X0116Y023713D02*
Y023762D01*
X0114Y025122D02*
Y02875D01*
X0112Y025122D02*
Y02875D01*
Y024238D02*
Y024528D01*
X011Y025122D02*
Y02875D01*
X0108Y025122D02*
Y02875D01*
X0106Y023986D02*
Y024528D01*
X011Y024238D02*
Y024528D01*
X0108Y024185D02*
Y024528D01*
X0114Y023713D02*
Y023762D01*
X012325Y023238D02*
X012372D01*
X012Y023713D02*
Y023762D01*
X012325Y02315D02*
Y023238D01*
X0118Y023713D02*
Y023762D01*
X011138Y023052D02*
X011278Y023192D01*
X0112Y022761D02*
Y023114D01*
X011278Y022683D02*
Y023192D01*
X011138Y023D02*
X011278D01*
X011138Y022824D02*
X011278Y022683D01*
X0112Y023712D02*
Y023762D01*
X010886Y0236D02*
X011014D01*
X011Y023586D02*
Y023714D01*
X0108Y023386D02*
Y023514D01*
X010732Y023319D02*
X011057Y023643D01*
X010686Y0234D02*
X010814D01*
X011138Y022824D02*
Y023052D01*
X010662Y022725D02*
Y02315D01*
X0106Y025122D02*
Y02875D01*
X0104Y025122D02*
Y02875D01*
Y023786D02*
Y024528D01*
X010185Y025129D02*
X010239Y025125D01*
X0102Y025128D02*
Y02875D01*
X010239Y025125D02*
X010308Y025124D01*
X010272Y024526D02*
X010307Y024526D01*
X010163Y024518D02*
X010272Y024526D01*
X00882Y0242D02*
X010821D01*
X00882Y024D02*
X010614D01*
X00882Y0238D02*
X010414D01*
X01Y025227D02*
Y02875D01*
X0098Y025258D02*
Y02875D01*
X0096Y025191D02*
Y02875D01*
X0094Y024844D02*
Y02875D01*
X00882Y0246D02*
X009462D01*
X00882Y0248D02*
X0094D01*
X00882Y0244D02*
X009744D01*
X00882Y0252D02*
X009614D01*
X00882Y025D02*
X009436D01*
X010182Y023569D02*
X010781Y024168D01*
X0102Y023586D02*
Y024521D01*
X010588Y023301D02*
X011049Y023762D01*
X00882Y0236D02*
X010214D01*
X010588Y0232D02*
X010668D01*
X010588Y022468D02*
Y023301D01*
X0106Y022456D02*
Y023314D01*
X010588Y023D02*
X010662D01*
X010588Y0228D02*
X010662D01*
X0096Y0228D02*
Y024459D01*
X0094Y0228D02*
Y024807D01*
X01Y0228D02*
Y024423D01*
X009Y0228D02*
Y02875D01*
X0092Y0228D02*
Y02875D01*
X00882Y0234D02*
X010112D01*
X0098Y0228D02*
Y024392D01*
X010112Y02237D02*
Y0234D01*
X00882Y0232D02*
X010112D01*
X00882Y023D02*
X010112D01*
X012325Y022659D02*
X012355D01*
X012219Y022659D02*
X012325D01*
X012223Y022658D02*
X012356Y022657D01*
X012219Y022659D02*
X012325D01*
X011861D02*
X012219D01*
X011303Y022659D02*
X012219D01*
X012325Y0222D02*
X012362D01*
X011773Y022347D02*
X012325D01*
X012362Y022176D02*
Y022652D01*
X011361Y0226D02*
X012362D01*
X011577Y0224D02*
X012362D01*
X012Y022347D02*
Y022659D01*
X0118Y022347D02*
Y022659D01*
X0122Y022347D02*
Y022659D01*
X011303D02*
X011443Y022519D01*
X011278Y022683D02*
X011303Y022659D01*
X0116Y022381D02*
Y022659D01*
X0116Y022381D02*
X011637Y022355D01*
X011504Y022462D02*
X0116Y022381D01*
X011652Y022347D02*
X011765D01*
X0114Y022561D02*
Y022659D01*
X01145Y022514D02*
X011504Y022462D01*
X012325Y021753D02*
Y022347D01*
X0122Y021441D02*
Y021753D01*
X0124Y021378D02*
Y022047D01*
X011303Y021753D02*
X012325D01*
X0118Y021441D02*
Y021753D01*
X012Y021441D02*
Y021753D01*
X012325Y021387D02*
Y021441D01*
X012227D02*
X012325D01*
X012234Y020848D02*
X012325D01*
X011652Y021441D02*
X011765D01*
X011773D02*
X01222D01*
X011303Y021753D02*
X011443Y021613D01*
X011278Y021778D02*
X011303Y021753D01*
X0116Y021475D02*
Y021753D01*
X011278Y02186D02*
Y021974D01*
Y021778D02*
Y021852D01*
X011504Y021556D02*
X0116Y021476D01*
X01145Y021608D02*
X011504Y021556D01*
X0116Y021476D02*
X011637Y02145D01*
X0114Y021656D02*
Y021753D01*
X011278Y020954D02*
Y021068D01*
X011161Y0228D02*
X011278D01*
X0108Y022256D02*
Y022489D01*
X010732Y022557D02*
X011106Y022183D01*
X010588Y0226D02*
X010698D01*
X01111Y022176D02*
X011209Y02207D01*
X011Y022056D02*
Y022289D01*
X011209Y02207D02*
X011243Y022027D01*
X010656Y0224D02*
X010889D01*
X010856Y0222D02*
X011089D01*
X00882Y0228D02*
X010112D01*
X008975Y0228D02*
X010022D01*
Y0226D02*
X010112D01*
X00882D02*
X008975D01*
X00882Y0224D02*
X008975D01*
X010022D02*
X010112D01*
X00882Y0222D02*
X008975D01*
X010022D02*
X010183D01*
X011243Y022027D02*
X01127Y021988D01*
X011056Y022D02*
X011262D01*
X0112Y021856D02*
Y022079D01*
X010588Y022468D02*
X011278Y021778D01*
X010022Y0214D02*
X010983D01*
X010182Y022201D02*
X011106Y021278D01*
X011209Y021164D02*
X011243Y021121D01*
X01111Y021271D02*
X011209Y021164D01*
X011243Y021121D02*
X01127Y021083D01*
X00882Y0212D02*
X011176D01*
X00882Y021D02*
X011278D01*
X010022Y022D02*
X010383D01*
X010022Y0213D02*
Y0228D01*
X008975Y0213D02*
Y0228D01*
X00882Y022D02*
X008975D01*
X00882Y0218D02*
X008975D01*
X010022Y0216D02*
X010783D01*
X010022Y0218D02*
X010583D01*
X008975Y0213D02*
X010022D01*
X00882Y0216D02*
X008975D01*
X00882Y0214D02*
X008975D01*
X0143Y020397D02*
X017225D01*
X014247Y019627D02*
X014388Y019768D01*
X014247Y0196D02*
X014388D01*
X014136Y0204D02*
X017228D01*
X014198Y020462D02*
X01465D01*
X014302Y019121D02*
X014489Y019121D01*
X014247Y019177D02*
X014302Y019121D01*
X014304Y01912D02*
X014388D01*
X014247Y0194D02*
X014388D01*
X014247Y0192D02*
X014388D01*
X0142Y02038D02*
Y020462D01*
X014Y02022D02*
Y020264D01*
X013936Y0202D02*
X01398D01*
X0138Y020736D02*
Y020887D01*
X01374Y01996D02*
X01409Y02031D01*
X0138Y02002D02*
Y020064D01*
X013736Y02D02*
X01378D01*
X014247Y019177D02*
Y019627D01*
X014289Y018523D02*
X014388Y018519D01*
X014261Y01838D02*
X014375Y01839D01*
X014212Y01838D02*
X014261Y01838D01*
X013686Y0184D02*
X014388D01*
X01418Y018524D02*
X014289Y018523D01*
X0142Y018378D02*
Y018524D01*
X014307Y017898D02*
X014343Y017894D01*
X014211Y0179D02*
X014307Y017898D01*
X0142Y016844D02*
Y017902D01*
X013708Y018378D02*
X014203D01*
X01361Y017902D02*
X014202D01*
X01374Y018844D02*
X013971Y018613D01*
X0138Y018378D02*
Y018784D01*
X013653Y019054D02*
Y01975D01*
X014Y018378D02*
Y018587D01*
Y016844D02*
Y017902D01*
X0138Y016844D02*
Y017902D01*
X013082Y020019D02*
X013931Y020868D01*
X0136Y020536D02*
Y020887D01*
X013488Y019751D02*
X014198Y020462D01*
X00882Y0208D02*
X013864D01*
X00882Y0206D02*
X013664D01*
X00882Y0204D02*
X013464D01*
X013536Y0198D02*
X013657D01*
X013488Y0196D02*
X013653D01*
X013488Y0194D02*
X013653D01*
X013488Y0192D02*
X013653D01*
X013488Y019D02*
X013658D01*
X0134Y020336D02*
Y020887D01*
X0132Y020136D02*
Y020887D01*
X011876Y0202D02*
X013264D01*
X011876Y0194D02*
X013012D01*
X011876Y0196D02*
X013012D01*
X011876Y019D02*
X013012D01*
X011876Y02D02*
X013065D01*
X011876Y0198D02*
X013012D01*
X013488Y0188D02*
X013784D01*
X013488Y018599D02*
Y019751D01*
X0136Y018486D02*
Y019864D01*
X013488Y0186D02*
X013985D01*
X013488Y018599D02*
X013708Y018378D01*
X011876Y0178D02*
X017128D01*
X0136Y016844D02*
Y017902D01*
X011876Y0176D02*
X014388D01*
X011876Y0174D02*
X014388D01*
X013012Y0185D02*
Y01985D01*
X011876Y0188D02*
X013012D01*
X011876Y0184D02*
X013034D01*
X013082Y018331D02*
X013441Y017972D01*
X0132Y016844D02*
Y018214D01*
X0134Y016844D02*
Y018014D01*
X011876Y0182D02*
X013214D01*
X011876Y018D02*
X013414D01*
X014255Y015D02*
X01595D01*
X0142D02*
Y015856D01*
X014255Y015D02*
X01595D01*
X01415D02*
X014246D01*
X01415D02*
X014246D01*
X01415Y0138D02*
Y013857D01*
X014255Y0138D02*
X01595D01*
X01415D02*
X014246D01*
X014255D02*
X01595D01*
X01415D02*
X014246D01*
X01415Y0125D02*
X014246D01*
X01415Y014943D02*
Y015D01*
X014109Y014933D02*
X014149Y014942D01*
X014Y014925D02*
Y015856D01*
X013609Y014897D02*
X014109Y014933D01*
X0138Y01491D02*
Y015856D01*
X0136Y014897D02*
Y015856D01*
X014041Y013879D02*
X014105Y013868D01*
X01396Y013888D02*
X014041Y013879D01*
X014105Y013868D02*
X014149Y013858D01*
X013463Y014896D02*
X013609Y014897D01*
X013611Y013903D02*
X01396Y013888D01*
X014255Y0125D02*
X01595D01*
X0142D02*
Y0138D01*
X01415Y012443D02*
Y0125D01*
X014109Y012433D02*
X014149Y012442D01*
X013609Y012397D02*
X014109Y012433D01*
X014041Y011379D02*
X014105Y011368D01*
X014255Y0113D02*
X01595D01*
X01415D02*
Y011357D01*
X0142Y009017D02*
Y0113D01*
X014105Y011368D02*
X014149Y011358D01*
X01415Y0113D02*
X014246D01*
X014Y012425D02*
Y013883D01*
X0138Y01241D02*
Y013895D01*
X0136Y012397D02*
Y013903D01*
X013463Y012396D02*
X013609Y012397D01*
X013463Y011404D02*
X013611Y011403D01*
X01396Y011388D02*
X014041Y011379D01*
X014Y009017D02*
Y011383D01*
X0138Y009017D02*
Y011395D01*
X013611Y011403D02*
X01396Y011388D01*
X0136Y009017D02*
Y011403D01*
X013084Y0158D02*
X016253D01*
X013141Y015856D02*
X014613D01*
X012968Y0152D02*
X01668D01*
X012968Y0156D02*
X016294D01*
X011876Y017D02*
X014388D01*
X012968Y0154D02*
X01648D01*
X010698Y013D02*
X01645D01*
X010498Y0132D02*
X01645D01*
X010898Y0128D02*
X01645D01*
X010098Y0136D02*
X01645D01*
X010298Y0134D02*
X01645D01*
X0132Y014894D02*
Y015856D01*
X012968Y015684D02*
X013141Y015856D01*
X0134Y014894D02*
Y015856D01*
X011876Y0172D02*
X014388D01*
X012936Y016844D02*
X014388D01*
X012968Y015D02*
X01415D01*
X012968Y014894D02*
X013454D01*
X013463Y013904D02*
X013611Y013903D01*
X012968Y013906D02*
X013454D01*
X012764Y0138D02*
X01415D01*
X01068Y0104D02*
X0172D01*
X010512Y0106D02*
X0172D01*
X010763Y0102D02*
X0172D01*
X00882Y011D02*
X0172D01*
X00882Y0112D02*
X0172D01*
X00882Y0108D02*
X0172D01*
X010763Y0098D02*
X0172D01*
X010789Y01D02*
X0172D01*
X010512Y0094D02*
X0172D01*
X00882Y0092D02*
X0172D01*
X00882Y009017D02*
X0172D01*
X011305Y012394D02*
X013454D01*
X0132D02*
Y013906D01*
X0134Y012394D02*
Y013906D01*
X011098Y0126D02*
X01645D01*
X011298Y0124D02*
X013656D01*
X0111Y011406D02*
X013454D01*
X0132Y009017D02*
Y011406D01*
X0134Y009017D02*
Y011406D01*
X00882Y0114D02*
X013685D01*
X01068Y0096D02*
X0172D01*
X013Y016844D02*
Y020897D01*
X0128Y016825D02*
Y020897D01*
X0126Y016712D02*
Y020897D01*
X011876Y0192D02*
X013012D01*
X012325Y020848D02*
Y020885D01*
X0124Y016512D02*
Y02089D01*
X011876Y0186D02*
X013012D01*
X011876Y0168D02*
X012733D01*
X011876Y0166D02*
X012488D01*
X011Y020376D02*
Y021383D01*
X0108Y020376D02*
Y021583D01*
X0112Y020376D02*
Y021174D01*
X0104Y020376D02*
Y021983D01*
X0102Y020376D02*
Y022183D01*
X0106Y020376D02*
Y021783D01*
X0116Y020376D02*
Y020848D01*
X0114Y020376D02*
Y020848D01*
X0118Y020376D02*
Y020848D01*
X011278D02*
X01222D01*
X011278D02*
Y020947D01*
X012126Y016238D02*
X012586Y016699D01*
X0122Y016312D02*
Y020848D01*
X012Y016024D02*
Y020848D01*
X011876Y0164D02*
X012288D01*
X013Y014894D02*
Y015716D01*
X012968Y014894D02*
Y015684D01*
X011981Y014517D02*
Y015889D01*
X011876Y0162D02*
X012092D01*
X011876Y016D02*
X011994D01*
X011876Y015924D02*
Y020376D01*
X0118Y012394D02*
Y015924D01*
X0116Y012394D02*
Y015924D01*
X0112Y012498D02*
Y015924D01*
X0114Y012394D02*
Y015924D01*
X0108Y012898D02*
Y015924D01*
X0106Y013098D02*
Y015924D01*
X011Y012698D02*
Y015924D01*
X0102Y013498D02*
Y015924D01*
X0104Y013298D02*
Y015924D01*
X0098Y020376D02*
Y0213D01*
X0096Y020376D02*
Y0213D01*
X01Y020376D02*
Y0213D01*
X0092Y020376D02*
Y0213D01*
X009Y020376D02*
Y0213D01*
X0094Y020376D02*
Y0213D01*
X008924Y020376D02*
X011876D01*
X00882Y0202D02*
X008924D01*
X00882Y02D02*
X008924D01*
X00882Y0198D02*
X008924D01*
X00882Y0196D02*
X008924D01*
X00882Y0188D02*
X008924D01*
X00882Y019D02*
X008924D01*
X00882Y0186D02*
X008924D01*
X00882Y0194D02*
X008924D01*
X00882Y0192D02*
X008924D01*
X00882Y0178D02*
X008924D01*
X00882Y018D02*
X008924D01*
X00882Y0176D02*
X008924D01*
X00882Y0184D02*
X008924D01*
X00882Y0182D02*
X008924D01*
X0098Y014497D02*
Y015924D01*
X0096Y01461D02*
Y015924D01*
X01Y013698D02*
Y015924D01*
X008924D02*
X011876D01*
X0092Y014678D02*
Y015924D01*
X009Y014571D02*
Y015924D01*
X00882Y0156D02*
X011981D01*
X00882Y0158D02*
X011981D01*
X0094Y014688D02*
Y015924D01*
X00882Y0154D02*
X011981D01*
X00882Y0152D02*
X011981D01*
X008924Y015924D02*
Y020376D01*
X00882Y0174D02*
X008924D01*
X00882Y009017D02*
Y02875D01*
Y0172D02*
X008924D01*
X00882Y017D02*
X008924D01*
X00882Y0162D02*
X008924D01*
X00882Y0164D02*
X008924D01*
X00882Y016D02*
X008924D01*
X00882Y0168D02*
X008924D01*
X00882Y0166D02*
X008924D01*
X012856Y013883D02*
X012968D01*
X012824Y013851D02*
X012856Y013883D01*
X013Y012394D02*
Y013906D01*
X011981Y013883D02*
X012096D01*
X0126Y012394D02*
Y013722D01*
X0124Y012394D02*
Y013712D01*
X0128Y012394D02*
Y013829D01*
X009898Y0138D02*
X012185D01*
X0122Y012394D02*
Y01379D01*
X011981Y0142D02*
Y014517D01*
X009819Y0142D02*
Y014497D01*
X011981Y0142D02*
Y014517D01*
X009819Y0142D02*
X011981D01*
X009819Y0144D02*
X011981D01*
X009819Y013903D02*
Y0142D01*
X012Y012394D02*
Y013883D01*
X011981D02*
Y0142D01*
X009819Y014D02*
X011981D01*
X009819Y013879D02*
X011305Y012394D01*
X0118Y009017D02*
Y011406D01*
X0116Y009017D02*
Y011406D01*
X012Y009017D02*
Y011406D01*
X0112Y009017D02*
Y011406D01*
X0114Y009017D02*
Y011406D01*
X0128Y009017D02*
Y011406D01*
X0126Y009017D02*
Y011406D01*
X013Y009017D02*
Y011406D01*
X0122Y009017D02*
Y011406D01*
X0124Y009017D02*
Y011406D01*
X0106Y010512D02*
Y011702D01*
X0104Y01068D02*
Y011902D01*
X0108Y009017D02*
Y011508D01*
X01Y010789D02*
Y012302D01*
X0102Y010763D02*
Y012102D01*
X0106Y009017D02*
Y009488D01*
X0104Y009017D02*
Y00932D01*
X011Y009017D02*
Y011417D01*
X01Y009017D02*
Y009211D01*
X0102Y009017D02*
Y009237D01*
X009615Y0146D02*
X011981D01*
X00972Y014497D02*
X009819D01*
Y013903D02*
Y0142D01*
X00882Y0148D02*
X011981D01*
X00882Y015D02*
X011981D01*
X00882Y0124D02*
X009902D01*
X00882Y0126D02*
X009702D01*
X00882Y0122D02*
X010102D01*
X00882Y013D02*
X009302D01*
X00882Y0128D02*
X009502D01*
X008831Y013903D02*
Y0142D01*
Y014497D01*
Y013903D02*
Y0142D01*
X00882Y0146D02*
X009036D01*
X008831Y014497D02*
X008931D01*
X008831Y013675D02*
Y013903D01*
X00882Y0134D02*
X008915D01*
X00882Y0132D02*
X009102D01*
X008977Y013325D02*
X01075Y011551D01*
X0098Y010763D02*
Y012502D01*
X0096Y01068D02*
Y012702D01*
X00882Y0118D02*
X010502D01*
X00882Y012D02*
X010302D01*
X00882Y0116D02*
X010702D01*
X0096Y009017D02*
Y00932D01*
X0098Y009017D02*
Y009237D01*
X00882Y0106D02*
X009488D01*
X0094Y010512D02*
Y012902D01*
X0092Y009017D02*
Y013102D01*
X009Y009017D02*
Y013302D01*
X00882Y0104D02*
X00932D01*
X00882Y0102D02*
X009237D01*
X00882Y0098D02*
X009237D01*
X00882Y01D02*
X009211D01*
X0094Y009017D02*
Y009488D01*
X00882Y0096D02*
X00932D01*
X00882Y0094D02*
X009488D01*
X043791Y019D02*
X044644Y018147D01*
X043508Y019D02*
X044644Y017864D01*
X044357Y019D02*
X044644Y018713D01*
X044074Y019D02*
X044644Y01843D01*
X04266Y019D02*
X044644Y017016D01*
X042377Y019D02*
X044644Y016733D01*
X043225Y019D02*
X044644Y017581D01*
X042943Y019D02*
X044644Y017298D01*
X04079Y016748D02*
X043042Y019D01*
X03905D02*
X044644D01*
X04137Y017894D02*
X042476Y019D01*
X040486Y016727D02*
X042759Y019D01*
X041316Y016426D02*
X04389Y019D01*
X042094D02*
X044644Y01645D01*
X041018Y016694D02*
X043324Y019D01*
X04119Y016582D02*
X043607Y019D01*
X041032Y018687D02*
X041345Y019D01*
X0412Y018573D02*
X041627Y019D01*
X04068D02*
X040965Y018715D01*
X040809Y018748D02*
X041062Y019D01*
X041323Y018413D02*
X04191Y019D01*
X041396Y018203D02*
X042193Y019D01*
X040514Y018735D02*
X040779Y019D01*
X040654Y01875D02*
X040754D01*
X039532Y017885D02*
X040668Y016749D01*
X040654Y01745D02*
X040754D01*
X039787Y017913D02*
X040998Y016702D01*
X039865Y016389D02*
X040959Y017483D01*
X040654Y016749D02*
X040754D01*
X040397Y019D02*
X040647Y01875D01*
X040114Y019D02*
X040411Y018703D01*
X039887Y018391D02*
X040496Y019D01*
X040018Y018402D02*
X040052Y018409D01*
X03992Y018392D02*
X040018Y018402D01*
X03986Y01839D02*
X03992Y018392D01*
X039602Y018388D02*
X040213Y019D01*
X039831D02*
X040235Y018597D01*
X039266Y019D02*
X039875Y018391D01*
X039548Y019D02*
X040103Y018445D01*
X039016Y018966D02*
X039594Y018388D01*
X039461D02*
X039851D01*
X038875Y018825D02*
X039343Y018357D01*
X038734Y018684D02*
X039195Y018222D01*
X039943Y017906D02*
X039985Y0179D01*
X040018Y017893D01*
X039832Y017911D02*
X039893Y01791D01*
X039943Y017906D01*
X040019Y016401D02*
X040053Y016408D01*
X03992Y016391D02*
X040019Y016401D01*
X039559Y017913D02*
X03982D01*
X03939Y017744D02*
X040426Y016708D01*
X039249Y017603D02*
X040246Y016605D01*
X039107Y017461D02*
X040112Y016457D01*
X038966Y01732D02*
X039896Y01639D01*
X041528Y019D02*
X044644Y015884D01*
X041811Y019D02*
X044644Y016167D01*
X041393Y01622D02*
X044173Y019D01*
X04138Y015925D02*
X044456Y019D01*
X044644Y01505D02*
Y019D01*
X04192Y01505D02*
X044644Y017774D01*
X041637Y01505D02*
X044644Y018057D01*
X041396Y018001D02*
X044347Y01505D01*
X041245Y019D02*
X044644Y015601D01*
X040963Y019D02*
X044644Y015319D01*
X041354Y01505D02*
X044644Y01834D01*
X041325Y017789D02*
X044064Y01505D01*
X040789D02*
X044644Y018905D01*
X041072Y01505D02*
X044644Y018623D01*
X041368Y018311D02*
X04463Y01505D01*
X041202Y017629D02*
X043781Y01505D01*
X043051D02*
X044644Y016643D01*
X043334Y01505D02*
X044644Y01636D01*
X042486Y01505D02*
X044644Y017208D01*
X042769Y01505D02*
X044644Y016925D01*
X044183Y01505D02*
X044644Y015511D01*
X044466Y01505D02*
X044644Y015228D01*
X043617Y01505D02*
X044644Y016077D01*
X0439Y01505D02*
X044644Y015794D01*
X041035Y017514D02*
X043498Y01505D01*
X040813Y017453D02*
X043216Y01505D01*
X040519Y017464D02*
X042933Y01505D01*
X041332Y015802D02*
X042084Y01505D01*
X042203D02*
X044644Y017491D01*
X041357Y016343D02*
X04265Y01505D01*
X041399Y016018D02*
X042367Y01505D01*
X039581Y016387D02*
X040643Y01745D01*
X039298Y016387D02*
X040408Y017498D01*
X03986Y016389D02*
X03992Y016391D01*
X039808Y015912D02*
X04067Y01505D01*
X039525Y015912D02*
X040387Y01505D01*
X039833Y01591D02*
X039894Y015909D01*
X038732Y016387D02*
X040102Y017757D01*
X039015Y016387D02*
X040232Y017605D01*
X038825Y017178D02*
X039615Y016387D01*
X038683Y017037D02*
X039333Y016387D01*
X03896Y015912D02*
X039821Y01505D01*
X039243Y015912D02*
X040104Y01505D01*
X038677Y015912D02*
X039539Y01505D01*
X038809D02*
X039671Y015912D01*
X041049Y01552D02*
X041519Y01505D01*
X040832Y015454D02*
X041236Y01505D01*
X040654Y015449D02*
X040754D01*
X041213Y015639D02*
X041801Y01505D01*
X040544Y015459D02*
X040953Y01505D01*
X040506D02*
X040929Y015473D01*
X040223Y01505D02*
X040623Y01545D01*
X039986Y015899D02*
X040019Y015892D01*
X03994Y01505D02*
X040394Y015504D01*
X039894Y015909D02*
X039944Y015905D01*
X039986Y015899D01*
X039374Y01505D02*
X040094Y01577D01*
X039657Y01505D02*
X040222Y015614D01*
X039092Y01505D02*
X039946Y015905D01*
X038592Y018542D02*
X039054Y01808D01*
X038451Y018401D02*
X038913Y017939D01*
X038309Y018259D02*
X038771Y017797D01*
X038168Y018118D02*
X03863Y017656D01*
X038105Y017174D02*
X03993Y019D01*
X038415Y016769D02*
X039559Y017913D01*
X038148Y017174D02*
X039292Y018318D01*
X038026Y017976D02*
X038488Y017515D01*
X0374Y01735D02*
X03905Y019D01*
X037822Y017174D02*
X039648Y019D01*
X037885Y017835D02*
X038347Y017373D01*
X037744Y017694D02*
X038205Y017232D01*
X037256Y017174D02*
X039082Y019D01*
X037539Y017174D02*
X039365Y019D01*
X037602Y017552D02*
X03798Y017174D01*
X037461Y017411D02*
X037697Y017174D01*
X0384Y016755D02*
X038767Y016387D01*
X037239Y01735D02*
X037414Y017174D01*
X037601Y016387D02*
X037912Y016699D01*
X037607D02*
X037918Y016387D01*
X037318D02*
X037629Y016699D01*
X037324D02*
X037636Y016387D01*
X0341Y01735D02*
X0374D01*
X0341Y017174D02*
X038148D01*
X036956Y01735D02*
X037131Y017174D01*
X036973D02*
X037149Y01735D01*
X037041Y016699D02*
X037353Y016387D01*
X0341Y016699D02*
X038247D01*
X037035Y016387D02*
X037346Y016699D01*
X036107Y01735D02*
X036283Y017174D01*
X036125D02*
X0363Y01735D01*
X035824D02*
X036Y017174D01*
X035842D02*
X036018Y01735D01*
X036673D02*
X036849Y017174D01*
X036691D02*
X036866Y01735D01*
X03639D02*
X036566Y017174D01*
X036408D02*
X036583Y01735D01*
X034428Y017174D02*
X034603Y01735D01*
X034994Y017174D02*
X035169Y01735D01*
X034145Y017174D02*
X034321Y01735D01*
X03441D02*
X034586Y017174D01*
X035542Y01735D02*
X035717Y017174D01*
X035559D02*
X035735Y01735D01*
X035259D02*
X035434Y017174D01*
X035276D02*
X035452Y01735D01*
X036186Y016387D02*
X036498Y016699D01*
X036193D02*
X036504Y016387D01*
X034711Y017174D02*
X034886Y01735D01*
X034976D02*
X035152Y017174D01*
X036752Y016387D02*
X037064Y016699D01*
X036758D02*
X03707Y016387D01*
X036469D02*
X036781Y016699D01*
X036476D02*
X036787Y016387D01*
X034693Y01735D02*
X034869Y017174D01*
X034711D02*
X034886Y01735D01*
X0341Y017174D02*
Y01735D01*
X034127D02*
X034303Y017174D01*
X0341Y016564D02*
X034235Y016699D01*
X034489Y016387D02*
X034801Y016699D01*
X0341Y016564D02*
X034235Y016699D01*
X038166Y016387D02*
X039692Y017913D01*
X038449Y016387D02*
X039965Y017903D01*
X038542Y016895D02*
X03905Y016387D01*
X038173Y016699D02*
X038484Y016387D01*
X038394Y015912D02*
X039256Y01505D01*
X038526D02*
X039388Y015912D01*
X038111D02*
X038973Y01505D01*
X038243D02*
X039105Y015912D01*
X0341Y016387D02*
X039852D01*
X0341Y015912D02*
X039821D01*
X037883Y016387D02*
X038195Y016699D01*
X03789D02*
X038201Y016387D01*
X037828Y015912D02*
X03869Y01505D01*
X03798Y01507D02*
X038822Y015912D01*
X037545D02*
X038407Y01505D01*
X037839Y015211D02*
X038539Y015912D01*
X037414Y015636D02*
X037691Y015912D01*
X037556Y015494D02*
X037974Y015912D01*
X03698D02*
X037142Y01575D01*
X037246D02*
X037408Y015912D01*
X037697Y015353D02*
X038256Y015912D01*
X038Y01505D02*
X044644D01*
X037263Y015912D02*
X038124Y01505D01*
X0373Y01575D02*
X038Y01505D01*
X036414Y015912D02*
X036576Y01575D01*
X0341D02*
X0373D01*
X036131Y015912D02*
X036293Y01575D01*
X036398D02*
X036559Y015912D01*
X036697D02*
X036859Y01575D01*
X036963D02*
X037125Y015912D01*
X03668Y01575D02*
X036842Y015912D01*
X035344Y016699D02*
X035656Y016387D01*
X035621D02*
X035932Y016699D01*
X035061D02*
X035373Y016387D01*
X035338D02*
X035649Y016699D01*
X03591D02*
X036221Y016387D01*
X036115Y01575D02*
X036276Y015912D01*
X035627Y016699D02*
X035939Y016387D01*
X035904D02*
X036215Y016699D01*
X034206Y016387D02*
X034518Y016699D01*
X034213D02*
X034524Y016387D01*
X0341D02*
Y016699D01*
Y016529D02*
X034241Y016387D01*
X034779Y016699D02*
X03509Y016387D01*
X035055D02*
X035366Y016699D01*
X034496D02*
X034807Y016387D01*
X034772D02*
X035084Y016699D01*
X035266Y01575D02*
X035428Y015912D01*
X035283D02*
X035445Y01575D01*
X034983D02*
X035145Y015912D01*
X035D02*
X035162Y01575D01*
X035832D02*
X035994Y015912D01*
X035848D02*
X03601Y01575D01*
X035549D02*
X035711Y015912D01*
X035566D02*
X035727Y01575D01*
X034151Y015912D02*
X034313Y01575D01*
X034418D02*
X034579Y015912D01*
X0341Y01575D02*
Y015912D01*
X034135Y01575D02*
X034297Y015912D01*
X0347Y01575D02*
X034862Y015912D01*
X034717D02*
X034879Y01575D01*
X034434Y015912D02*
X034596Y01575D01*
D22*
X027447Y020086D02*
D03*
Y019299D02*
D03*
Y018511D02*
D03*
Y017724D02*
D03*
Y016937D02*
D03*
Y016149D02*
D03*
Y015362D02*
D03*
Y014574D02*
D03*
X033353D02*
D03*
Y015362D02*
D03*
Y016149D02*
D03*
Y016937D02*
D03*
Y017724D02*
D03*
Y018511D02*
D03*
Y019299D02*
D03*
Y020086D02*
D03*
D23*
X043976Y02435D02*
D03*
X043424D02*
D03*
X034776D02*
D03*
X034224D02*
D03*
X03825Y02755D02*
D03*
X037764D02*
D03*
X038326Y02685D02*
D03*
X037774D02*
D03*
X029476D02*
D03*
X028924D02*
D03*
X02945Y02755D02*
D03*
X028964D02*
D03*
X020074Y02685D02*
D03*
X020626D02*
D03*
X030538Y012252D02*
D03*
X03109D02*
D03*
X02855Y01225D02*
D03*
X028064D02*
D03*
X023624Y012252D02*
D03*
X024176D02*
D03*
X02155Y01225D02*
D03*
X021064D02*
D03*
X037674Y012252D02*
D03*
X038226D02*
D03*
X0354Y01225D02*
D03*
X034914D02*
D03*
X01876Y01235D02*
D03*
X018274D02*
D03*
X02613Y0246D02*
D03*
X025578D02*
D03*
X020586Y02755D02*
D03*
X0201D02*
D03*
X025725Y0201D02*
D03*
X026212D02*
D03*
X025728Y0185D02*
D03*
X026214D02*
D03*
X026251Y02135D02*
D03*
X0257D02*
D03*
D24*
X04215Y02425D02*
D03*
Y024736D02*
D03*
Y0255D02*
D03*
Y025986D02*
D03*
X0328Y02425D02*
D03*
Y024736D02*
D03*
Y0255D02*
D03*
Y025986D02*
D03*
X02405D02*
D03*
Y0255D02*
D03*
Y02425D02*
D03*
Y024736D02*
D03*
X01402Y023526D02*
D03*
Y022974D02*
D03*
X01322D02*
D03*
Y023526D02*
D03*
X01325Y021676D02*
D03*
Y021124D02*
D03*
X01405Y021676D02*
D03*
Y021124D02*
D03*
X0345Y018764D02*
D03*
Y01925D02*
D03*
X03475Y014714D02*
D03*
Y0152D02*
D03*
D25*
X0344Y026092D02*
D03*
X034028Y02511D02*
D03*
X034786Y025108D02*
D03*
X025854Y026392D02*
D03*
X025482Y02541D02*
D03*
X02624Y025408D02*
D03*
X044088Y025108D02*
D03*
X04333Y02511D02*
D03*
X043702Y026092D02*
D03*
D26*
X042094Y02715D02*
D03*
X043866D02*
D03*
X033044D02*
D03*
X034816D02*
D03*
X023994D02*
D03*
X025766D02*
D03*
D27*
X01655Y018716D02*
D03*
Y016984D02*
D03*
D28*
X0104Y01815D02*
D03*
D29*
X01498Y019479D02*
D03*
Y018809D02*
D03*
Y01814D02*
D03*
Y017471D02*
D03*
Y016801D02*
D03*
D30*
X011802Y021144D02*
D03*
Y02205D02*
D03*
Y022956D02*
D03*
D31*
X009498Y02205D02*
D03*
D32*
X012475Y0142D02*
D03*
X015025Y0219D02*
D03*
D33*
X009325Y0142D02*
D03*
X018175Y0219D02*
D03*
D34*
X0197Y0148D02*
D03*
X01975Y019711D02*
D03*
D35*
X0359Y019484D02*
D03*
Y021256D02*
D03*
D70*
X03335Y0232D02*
X037243D01*
X0373Y023143D01*
Y02255D02*
Y023143D01*
X0131Y021676D02*
Y021676D01*
X020087Y026863D02*
Y027559D01*
X037783Y02845D02*
Y029533D01*
Y02757D02*
Y02845D01*
X037833Y0285D02*
X04205D01*
X037783Y02845D02*
X037833Y0285D01*
X03485Y027064D02*
X034876Y02709D01*
X04205Y027194D02*
Y0285D01*
Y027194D02*
X042094Y02715D01*
X0328Y02425D02*
X033382D01*
X0373Y01855D02*
Y0209D01*
X041487Y02645D02*
X043413D01*
X041287Y02665D02*
X041487Y02645D01*
X043413D02*
X043702Y026161D01*
X02523Y02373D02*
X0254Y0239D01*
X02373Y02373D02*
X02523D01*
X033353Y01615D02*
X04075D01*
X04075Y01615D01*
X033353Y016149D02*
X033353Y01615D01*
X033353Y016937D02*
X038247D01*
X039461Y018151D01*
X03395Y012252D02*
X033952Y01225D01*
X034914D01*
X025406Y014574D02*
X027447D01*
X02695Y01225D02*
X028064D01*
X023365Y014574D02*
X025406D01*
X043976Y02435D02*
X043976D01*
X044118Y024207D01*
Y023531D02*
Y024207D01*
Y023531D02*
X044199Y02345D01*
X044084Y025104D02*
X044088Y025108D01*
X044084Y024458D02*
Y025104D01*
X043995Y02437D02*
X044084Y024458D01*
X043424Y02435D02*
X043424D01*
X04333Y024444D02*
X043424Y02435D01*
X04333Y024444D02*
Y02511D01*
Y025179D01*
X043009Y0255D02*
X04333Y025179D01*
X04215Y0255D02*
X043009D01*
X043702Y026092D02*
X043866D01*
X043702Y026102D02*
Y026161D01*
X04015Y02665D02*
X041287D01*
X03925Y0266D02*
X0401D01*
X04015Y02665D01*
X039Y02685D02*
X03925Y0266D01*
X038326Y02685D02*
X039D01*
X04007Y02757D02*
X04015Y02765D01*
X03827Y02757D02*
X04007D01*
X03825Y02755D02*
X03827Y02757D01*
X04065Y02325D02*
X04175D01*
X04215Y02365D01*
Y02425D01*
X03835Y0301D02*
Y03105D01*
X037783Y029533D02*
X03835Y0301D01*
X03665Y025179D02*
X037129Y0247D01*
X03805D01*
X03665Y025179D02*
Y0266D01*
X0369Y02685D01*
X037774D01*
Y027539D01*
X037764Y02755D02*
X037774Y027539D01*
X037764Y02755D02*
X037783Y02757D01*
X034816Y02715D02*
X034876Y02709D01*
X03485Y026092D02*
Y027064D01*
X0344Y026092D02*
X03485D01*
X034161Y0264D02*
X0344Y026161D01*
Y026092D02*
Y026161D01*
X03235Y0264D02*
X034161D01*
X032113Y026637D02*
X03235Y0264D01*
X031213Y026637D02*
X032113D01*
X0312Y02665D02*
X031213Y026637D01*
X030087Y02685D02*
X030287Y02665D01*
X029476Y02685D02*
X030087D01*
X030287Y02665D02*
X0312D01*
X03112Y02757D02*
X0312Y02765D01*
X02947Y02757D02*
X03112D01*
X02945Y02755D02*
X02947Y02757D01*
X02775Y02515D02*
Y026689D01*
Y02515D02*
X028138Y024762D01*
X028688D01*
X02875Y0247D01*
X02775Y026689D02*
X027911Y02685D01*
X028924D01*
X025766Y02715D02*
X025824Y027092D01*
Y026422D02*
Y027092D01*
X02373Y02423D02*
X02403D01*
X02405Y02425D01*
X020626Y02685D02*
X020816Y026659D01*
X020626Y02685D02*
X020626D01*
X020816Y026659D02*
X02225D01*
X020074Y02685D02*
X020087Y026863D01*
X022526Y026659D02*
X022794Y026392D01*
X02225Y026659D02*
X022526D01*
X022794Y026392D02*
X025854D01*
X025824Y026422D02*
X025854Y026392D01*
X020087Y027559D02*
X02009D01*
X0192D02*
X020087D01*
X02009D02*
X0201Y02755D01*
X020586Y0276D02*
X021567D01*
X021617Y02765D01*
X02334Y0185D02*
X025728D01*
X02329Y01845D02*
X02334Y0185D01*
X04305Y02145D02*
X043132Y021532D01*
X036094Y02145D02*
X04305D01*
X0359Y021256D02*
X036094Y02145D01*
X0233Y0233D02*
X02373Y02373D01*
Y02423D01*
X021Y0233D02*
X0233D01*
X02329Y01845D02*
Y02101D01*
Y0145D02*
Y01845D01*
Y01404D02*
Y0145D01*
X023365Y014574D01*
X021064Y01225D02*
Y01285D01*
X021264Y01305D01*
X0223D01*
X02329Y01404D01*
X021Y0233D02*
X02329Y02101D01*
X0174Y0233D02*
X021D01*
X017074Y022974D02*
X0174Y0233D01*
X01402Y022974D02*
X017074D01*
X0373Y01855D02*
X038904Y020154D01*
X034714Y01855D02*
X0373D01*
X0345Y018764D02*
X034714Y01855D01*
X038904Y020154D02*
X040746D01*
X03515Y02215D02*
X0422D01*
X0347Y0217D02*
X03515Y02215D01*
X0347Y0203D02*
Y0217D01*
X034486Y020086D02*
X0347Y0203D01*
X033353Y020086D02*
X034486D01*
X043132Y021532D02*
Y022082D01*
X0432Y02215D01*
X035666Y01925D02*
X0359Y019484D01*
X0345Y01925D02*
X035666D01*
X033353Y019299D02*
X033382Y01927D01*
X03448D01*
X0345Y01925D01*
Y01925D02*
Y01925D01*
X026214Y0185D02*
X02622Y018506D01*
X027442D01*
X027447Y018511D01*
X025725Y0201D02*
X025727Y020099D01*
Y018501D02*
Y020099D01*
Y018501D02*
X025728Y0185D01*
X026231Y02012D02*
X026251Y02014D01*
X026231Y02012D02*
Y02012D01*
X026212Y0201D02*
X026231Y02012D01*
X026212Y0201D02*
X026212D01*
X026251Y02014D02*
Y02135D01*
X02744Y020093D02*
X027447Y020086D01*
X026221Y020093D02*
X02744D01*
X026214Y0201D02*
X026221Y020093D01*
X039461Y018151D02*
X040749D01*
X03475Y014714D02*
Y014714D01*
X034611Y014574D02*
X03475Y014714D01*
X033353Y014574D02*
X034611D01*
X03475Y0152D02*
Y0152D01*
X034588Y015362D02*
X03475Y0152D01*
X033353Y015362D02*
X034588D01*
X01035Y02237D02*
Y0234D01*
X0181Y012189D02*
X018261Y01235D01*
X018274D01*
X0181Y01085D02*
Y012189D01*
X01362Y023526D02*
X01402D01*
X01322D02*
X01362D01*
X0136Y024D02*
X0161D01*
X01095D02*
X0136D01*
X01362Y02398D01*
Y023526D02*
Y02398D01*
X0161Y024D02*
X01665Y02455D01*
X01775D01*
X01035Y0234D02*
X01095Y024D01*
X01035Y02237D02*
X011575Y021144D01*
X011802D01*
X01322Y022974D02*
X01402D01*
X012952Y022994D02*
X0132D01*
X012471Y023476D02*
X012952Y022994D01*
X011226Y023476D02*
X012471D01*
X0132Y022994D02*
X01322Y022974D01*
Y022974D02*
Y022974D01*
X01405Y021124D02*
X014976D01*
X01325D02*
X01405D01*
X0131D02*
X01325D01*
Y021676D02*
X01405D01*
X0131D02*
X01325D01*
X0126Y022176D02*
X0131Y021676D01*
X0126Y022176D02*
Y02275D01*
X011861Y022896D02*
X012454D01*
X0126Y02275D01*
X0109Y02315D02*
X011226Y023476D01*
X0109Y022725D02*
Y02315D01*
Y022725D02*
X011575Y02205D01*
X011802D01*
X014976Y021124D02*
X015025Y021075D01*
X01309Y021134D02*
X0131Y021124D01*
X011812Y021134D02*
X01309D01*
X011802Y021144D02*
X011812Y021134D01*
X011802Y022956D02*
X011861Y022896D01*
X01465Y0207D02*
X015025Y021075D01*
Y0219D01*
X0141Y0207D02*
X01465D01*
X01325Y01985D02*
X0141Y0207D01*
X01325Y0185D02*
Y01985D01*
Y0185D02*
X01361Y01814D01*
X01498D01*
D71*
X02265Y0143D02*
Y02015D01*
X0221Y01375D02*
X02265Y0143D01*
X0209Y0219D02*
X02265Y02015D01*
X028924Y02685D02*
Y027816D01*
X0214Y029D02*
X022957D01*
X021015Y029385D02*
X0214Y029D01*
X01646Y01814D02*
Y01934D01*
X03255Y03475D02*
Y035145D01*
X030346Y0347D02*
Y035196D01*
X041864Y029464D02*
Y035181D01*
X04145Y02905D02*
X041864Y029464D01*
X0401Y02905D02*
X04145D01*
X039642Y029508D02*
X0401Y02905D01*
X039642Y029508D02*
Y03515D01*
X03255Y029592D02*
Y03475D01*
X032058Y0291D02*
X03255Y029592D01*
X030924Y0291D02*
X032058D01*
X030346Y029678D02*
X030924Y0291D01*
X030346Y029678D02*
Y0347D01*
X0235Y0315D02*
Y034967D01*
X021015Y0315D02*
Y034967D01*
X0235Y0294D02*
Y03115D01*
X0231Y029D02*
X0235Y0294D01*
X022957Y029D02*
X0231D01*
X0235Y03115D02*
Y0315D01*
X021015Y029385D02*
Y0315D01*
X034816Y02715D02*
Y0289D01*
X033883Y029833D02*
X034816Y0289D01*
X033883Y029833D02*
Y03105D01*
X01975Y019967D02*
Y02091D01*
X01946Y0212D02*
X01975Y02091D01*
X018405Y0212D02*
X01946D01*
X01455Y0225D02*
X018175D01*
Y0219D02*
Y022325D01*
X0186Y02275D02*
X0188D01*
X018175Y022325D02*
X0186Y02275D01*
X024Y02845D02*
X02465D01*
X020091D02*
X024D01*
Y027156D02*
Y02845D01*
X025766Y02715D02*
Y028834D01*
X024617Y029983D02*
X025766Y028834D01*
X024617Y029983D02*
Y03105D01*
X029083Y02845D02*
Y03105D01*
Y027975D02*
Y02845D01*
X028924Y027816D02*
X029083Y027975D01*
Y02845D02*
X0332D01*
X033044Y02715D02*
Y028294D01*
X0332Y02845D01*
X0198Y028159D02*
X020091Y02845D01*
X043866Y026092D02*
Y02715D01*
Y028584D01*
X04315Y0293D02*
X043866Y028584D01*
X04315Y0293D02*
Y03105D01*
X023994Y02715D02*
X024Y027156D01*
X0192Y027559D02*
X0198Y028159D01*
X0188Y027159D02*
X0192Y027559D01*
X0198Y028159D02*
Y031033D01*
X019817Y03105D01*
X017841Y027159D02*
X0188D01*
X0178Y0272D02*
X017841Y027159D01*
X01985Y0219D02*
X0209D01*
X018175D02*
X01985D01*
X019204Y01375D02*
X0221D01*
X01876Y013306D02*
X019204Y01375D01*
X01876Y01235D02*
Y013306D01*
X01405Y022D02*
X01455Y0225D01*
X01405Y021676D02*
Y022D01*
X02103Y009465D02*
X02105Y009485D01*
X01498Y019479D02*
X016321D01*
X01646Y01934D01*
X018175Y021431D02*
Y0219D01*
X0349Y009595D02*
X03493Y009565D01*
X0178Y0281D02*
Y0282D01*
X014525Y024825D02*
X0178Y0281D01*
X009834Y024825D02*
X014525D01*
X015897Y024897D02*
X015969D01*
X016622Y02555D01*
X01775D01*
X015897Y024825D02*
Y024897D01*
X018175Y020375D02*
Y021431D01*
X0179Y0201D02*
X018175Y020375D01*
X0143Y0201D02*
X0179D01*
X01395Y01975D02*
X0143Y0201D01*
X01395Y019054D02*
Y01975D01*
Y019054D02*
X014181Y018823D01*
X014966D01*
X01498Y018809D01*
Y01814D02*
X01646D01*
X018175Y021431D02*
X018405Y0212D01*
X019644Y019861D02*
X01975Y019967D01*
X0196Y019861D02*
X019644D01*
X0196D02*
X01975Y019711D01*
X01655Y01575D02*
X0175Y0148D01*
X0197D01*
X01655Y01575D02*
Y016984D01*
X016412D02*
X01655D01*
X015939Y017457D02*
X016412Y016984D01*
X014994Y017457D02*
X015939D01*
X01498Y017471D02*
X014994Y017457D01*
D72*
X0257Y02295D02*
Y023279D01*
Y02135D02*
Y02295D01*
X0177Y024D02*
Y0245D01*
X01775Y02455D01*
X0177Y024D02*
X0179Y0238D01*
X0213D01*
X034776Y02365D02*
X034826Y0236D01*
X03975D01*
X02215Y02295D02*
X0257D01*
X02613Y023657D02*
X032889D01*
X026077D02*
X02613D01*
Y0246D01*
X0257Y023279D02*
X026077Y023657D01*
X02807Y011375D02*
X02855Y011855D01*
Y01225D01*
X032896Y02365D02*
X034776D01*
X032889Y023657D02*
X032896Y02365D01*
X034776D02*
Y02435D01*
X042091Y025927D02*
X04215Y025986D01*
X041877Y025927D02*
X042091D01*
X0415Y02525D02*
X0418Y02555D01*
X0395Y02525D02*
X0415D01*
X02965Y0239D02*
X032411D01*
X032761Y02425D01*
X0328D01*
X041086Y024736D02*
X04215D01*
X04105Y0247D02*
X041086Y024736D01*
X0418Y02585D02*
X041877Y025927D01*
X0418Y02555D02*
Y02585D01*
X03905Y0257D02*
X0395Y02525D01*
X03805Y0257D02*
X03905D01*
X033959Y02511D02*
X034028Y025179D01*
X03369Y02511D02*
X033959D01*
X0333Y0255D02*
X03369Y02511D01*
X0328Y0255D02*
X0333D01*
X034028Y02511D02*
Y025179D01*
X034781Y025103D02*
X034786Y025108D01*
X034781Y024355D02*
Y025103D01*
X034776Y02435D02*
X034781Y024355D01*
X034028Y024586D02*
Y02511D01*
Y024586D02*
X034224Y024389D01*
Y02435D02*
Y024389D01*
X02624Y024978D02*
Y025408D01*
X02613Y024868D02*
X02624Y024978D01*
X02613Y0246D02*
Y024868D01*
X03175Y0247D02*
X031786Y024736D01*
X0328D01*
X02875Y0257D02*
X0303D01*
X0324Y0259D02*
X032469Y025969D01*
X032783D01*
X0328Y025986D01*
X0324Y0254D02*
Y0259D01*
X0322Y0252D02*
X0324Y0254D01*
X0308Y0252D02*
X0322D01*
X0303Y0257D02*
X0308Y0252D01*
X025159Y0246D02*
X025578D01*
X02505Y024709D02*
X025159Y0246D01*
X02505Y024709D02*
Y02495D01*
X025482D01*
Y02541D01*
X0245Y0255D02*
X02505Y02495D01*
X02405Y0255D02*
X0245D01*
X022886Y024736D02*
X02405D01*
X01985Y0257D02*
X021675D01*
X02357Y025896D02*
X023661Y025986D01*
X02405D01*
X02357Y0254D02*
Y025896D01*
X02337Y0252D02*
X02357Y0254D01*
X022175Y0252D02*
X02337D01*
X021675Y0257D02*
X022175Y0252D01*
X0222Y027709D02*
X02225Y027659D01*
X02285Y0247D02*
X022886Y024736D01*
X02515Y0165D02*
X025501Y016149D01*
X027447D01*
X0247Y0173D02*
X025063Y016937D01*
X027447D01*
X0242Y01785D02*
X024326Y017724D01*
X027447D01*
X03475Y014714D02*
X037836D01*
X038226Y014324D01*
Y012252D02*
Y014324D01*
X02875Y01275D02*
X0314D01*
X028551Y012551D02*
X02875Y01275D01*
X028551Y012251D02*
Y012551D01*
X02855Y01225D02*
X028551Y012251D01*
X0354Y01225D02*
Y012701D01*
X035201Y0129D02*
X0354Y012701D01*
X0331Y0129D02*
X035201D01*
X03245Y01355D02*
X0331Y0129D01*
X03245Y01355D02*
Y0176D01*
X032574Y017724D01*
X033353D01*
X03499Y011375D02*
X03744D01*
X03499Y011505D02*
X0354Y011915D01*
X03499Y011375D02*
Y011505D01*
X0354Y011915D02*
Y01225D01*
X035401Y012251D01*
X037673D01*
X037674Y012252D01*
X03747Y011345D02*
Y012008D01*
X037674Y012213D01*
Y012252D01*
X038226Y010211D02*
Y012252D01*
X03744Y009425D02*
X038226Y010211D01*
X03109Y010025D02*
Y012252D01*
X03049Y009425D02*
X03109Y010025D01*
X028551Y012251D02*
X030537D01*
X0314Y01275D02*
X03205Y0134D01*
Y01819D01*
X032371Y018511D01*
X033353D01*
X02804Y011375D02*
X028055Y01136D01*
X030505D01*
X03052Y011345D01*
X030537Y012251D02*
X030538Y012252D01*
X030529Y012243D02*
X030537Y012251D01*
X03052Y011345D02*
X030529Y011354D01*
Y012243D01*
X023624Y011386D02*
Y012252D01*
X02109Y011375D02*
X02155Y011835D01*
Y01225D01*
X0226Y012251D02*
Y0126D01*
Y012251D02*
X023623D01*
X021551D02*
X0226D01*
X023623D02*
X023624Y012252D01*
X028031Y015311D02*
X0281Y015242D01*
X027498Y015311D02*
X028031D01*
X027447Y015362D02*
X027498Y015311D01*
X0281Y01395D02*
Y015242D01*
X02785Y0137D02*
X0281Y01395D01*
X0237Y0137D02*
X02785D01*
X0226Y0126D02*
X0237Y0137D01*
X02155Y01225D02*
X021551Y012251D01*
X023555Y01136D02*
X02357Y011345D01*
X021105Y01136D02*
X023555D01*
X02109Y011375D02*
X021105Y01136D01*
X02354Y009425D02*
X024176Y010061D01*
Y012252D01*
D73*
X017294Y038294D02*
X0175Y0385D01*
X012936Y01635D02*
X014613D01*
X01498Y016717D01*
X012475Y015889D02*
X012936Y01635D01*
X012475Y0142D02*
Y015889D01*
X009325Y013675D02*
X0111Y0119D01*
X009325Y013675D02*
Y0142D01*
X0111Y0119D02*
X01505D01*
X012475Y0142D02*
X012675Y0144D01*
X01505D01*
D74*
X043199Y02345D02*
D03*
X044199Y02345D02*
D03*
X0178Y0282D02*
D03*
X0178Y0272D02*
D03*
X01775Y02555D02*
D03*
X01775Y02455D02*
D03*
D75*
X03835Y03105D02*
D03*
X04315Y03585D02*
D03*
X04075Y03005D02*
D03*
X03835Y03585D02*
D03*
X04315Y03105D02*
D03*
X029083D02*
D03*
X033883Y03585D02*
D03*
X031483Y03005D02*
D03*
X029083Y03585D02*
D03*
X033883Y03105D02*
D03*
X019817D02*
D03*
X024617Y03585D02*
D03*
X022217Y03005D02*
D03*
X019817Y03585D02*
D03*
X024617Y03105D02*
D03*
X0145Y0385D02*
D03*
X021617D02*
D03*
X028733D02*
D03*
X03585D02*
D03*
D76*
X0175D02*
D03*
X024617D02*
D03*
X031733D02*
D03*
X03885D02*
D03*
D77*
X04015Y02665D02*
D03*
X0312D02*
D03*
X02225Y026659D02*
D03*
D78*
X04015Y02765D02*
D03*
X0312D02*
D03*
X02225Y027659D02*
D03*
D79*
X04105Y0247D02*
D03*
X03175D02*
D03*
X02285D02*
D03*
D80*
X04105Y0257D02*
D03*
X03805D02*
D03*
Y0247D02*
D03*
X03175Y0257D02*
D03*
X02875D02*
D03*
Y0247D02*
D03*
X02285Y0257D02*
D03*
X01985D02*
D03*
Y0247D02*
D03*
D81*
X01705Y0134D02*
D03*
D82*
X01505Y0119D02*
D03*
Y0144D02*
D03*
D83*
X01385Y0364D02*
D03*
X011882D02*
D03*
D84*
X015897Y024825D02*
D03*
X009834D02*
D03*
D85*
X03499Y011375D02*
D03*
X03744Y009425D02*
D03*
X03747Y011345D02*
D03*
X03493Y009465D02*
D03*
X02109Y011375D02*
D03*
X02354Y009425D02*
D03*
X02357Y011345D02*
D03*
X02103Y009465D02*
D03*
X02804Y011375D02*
D03*
X03049Y009425D02*
D03*
X03052Y011345D02*
D03*
X02798Y009465D02*
D03*
D86*
X0422Y02215D02*
D03*
X0432D02*
D03*
D87*
X0442D02*
D03*
D88*
X0181Y01085D02*
D03*
D89*
X0191D02*
D03*
D90*
X040704Y016099D02*
D03*
X040704Y0181D02*
D03*
X0407Y020103D02*
D03*
D91*
X040704Y014099D02*
D03*
D92*
X043465Y041496D02*
D03*
Y01D02*
D03*
X01Y041496D02*
D03*
Y01D02*
D03*
D93*
X03335Y0232D02*
D03*
X0213Y0238D02*
D03*
X02215Y02295D02*
D03*
X03975Y0236D02*
D03*
X04205Y0285D02*
D03*
X033382Y02425D02*
D03*
X0373Y02255D02*
D03*
Y0209D02*
D03*
X02965Y0239D02*
D03*
X0254D02*
D03*
X03395Y012252D02*
D03*
X02695Y01225D02*
D03*
X025406Y014574D02*
D03*
X04065Y02325D02*
D03*
X0332Y02845D02*
D03*
X02465D02*
D03*
X02515Y0165D02*
D03*
X0247Y0173D02*
D03*
X0242Y01785D02*
D03*
X01985Y0219D02*
D03*
X0188Y02275D02*
D03*
M02*
